<?xml version="1.0" encoding="utf-8"?>
<!-- Generator: Adobe Illustrator 18.0.0, SVG Export Plug-In . SVG Version: 6.00 Build 0)  -->
<!DOCTYPE svg PUBLIC "-//W3C//DTD SVG 1.1//EN" "http://www.w3.org/Graphics/SVG/1.1/DTD/svg11.dtd">
<svg version="1.1" id="Layer_1" xmlns="http://www.w3.org/2000/svg" xmlns:xlink="http://www.w3.org/1999/xlink" x="0px" y="0px"
	 viewBox="3507.5 408.9 1937.5 974.6" enable-background="new 3507.5 408.9 1937.5 974.6" xml:space="preserve">
	<style>
		.k-1-anim{
		animation: draw linear forwards;
		}

		#k-1{
			fill: none;
  stroke: white;
  stroke-width: 40;
  stroke-linecap: round;
  clip-path: url(#1k-1);
		stroke-dasharray: 605;
  stroke-dashoffset: 605;
		animation-duration:250ms;
		}

		#k-2{
			fill: none;
  stroke: white;
  stroke-width: 90;
  stroke-linecap: round;
  clip-path: url(#1k-2);
		stroke-dasharray: 1150;
  stroke-dashoffset: 1150;
		animation-delay:250ms;
		animation-duration:.5s;
		}
		#a{
			fill: none;
  stroke: white;
  stroke-width: 90;
  stroke-linecap: round;
  clip-path: url(#1a);
		stroke-dasharray: 670;
  stroke-dashoffset: 670;
		animation-delay:750ms;
		animation-duration:.6s;
		}
		#l{
			fill: none;
  stroke: white;
  stroke-width: 90;
  stroke-linecap: round;
  clip-path: url(#1l);
		stroke-dasharray: 1050;
  stroke-dashoffset: 1050;
		animation-delay:1350ms;
		animation-duration:.6s;
		}
		#p-1{
			fill: none;
  stroke: white;
  stroke-width: 90;
  stroke-linecap: round;
  clip-path: url(#1p-1);
		stroke-dasharray: 580;
  stroke-dashoffset: 580;
		animation-delay:1950ms;
		animation-duration:250ms;
		}
		#p-2{
			fill: none;
  stroke: white;
  stroke-width: 90;
  stroke-linecap: round;
  clip-path: url(#1p-2);
		stroke-dasharray: 630;
  stroke-dashoffset: 630;
		animation-delay:2200ms;
		animation-duration:.6s;
		}
		#e{
			fill: none;
  stroke: white;
  stroke-width: 90;
  stroke-linecap: round;
  clip-path: url(#1e);
		stroke-dasharray: 630;
  stroke-dashoffset: 630;
		animation-delay:2800ms;
		animation-duration:.5s;
		}
		#s-1{
			fill: none;
  stroke: white;
  stroke-width: 105;
  stroke-linecap: round;
  clip-path: url(#1s-1);
		stroke-dasharray: 480;
  stroke-dashoffset: 480;
		animation-delay:3300ms;
		animation-duration:.5s;
		}
		#s-2{
			fill: none;
  stroke: white;
  stroke-width: 105;
  stroke-linecap: round;
  clip-path: url(#1s-2);
		stroke-dasharray: 130;
  stroke-dashoffset: 130;
		animation-delay:3800ms;
		animation-duration:200ms;
		}
		#h{
			fill: none;
  stroke: white;
  stroke-width: 105;
  stroke-linecap: round;
  clip-path: url(#1h);
		stroke-dasharray: 1250;
  stroke-dashoffset: 1250;
		animation-delay:4s;
		animation-duration:.6s;
		}
		#dash{
			fill: none;
  stroke: white;
  stroke-width: 105;
  stroke-linecap: round;
  clip-path: url(#1dash);
		stroke-dasharray: 830;
  stroke-dashoffset: 830;
		animation-delay:4.6s;
		animation-duration:.3s;
		}
		#dot{
			fill: none;
  stroke: white;
  stroke-width: 105;
  stroke-linecap: round;
  clip-path: url(#1dot);
		stroke-dasharray: 70;
  stroke-dashoffset: 70;
		animation-delay:4.9s;
		animation-duration:.2s;
		}


@keyframes draw {
  to {
    stroke-dashoffset: 0;
  }
}
	</style>
	<g id="original">
		<clipPath id="1k-1">
			<path d="M3576,889.5c-0.2,0.9-0.3,2-0.3,3.4l-0.9,68c0,64.5,2.7,119.3,8,163.5c0,3.5-2.7,8-8.8,13.3
		c-6.2,6.2-12.4,8.8-18.6,8.8c-6.2,0-9.7-5.3-9.7-15.9c0-4.4-0.9-16.8-1.8-37.1c-1.8-61.9-3.5-115.8-3.5-163.5V825.8l0.9-79.5
		c0-48.6,4.4-106.9,13.3-174.1c0-2.7,1.8-7.1,5.3-12.4c7.1-7.1,15.9-10.6,26.5-12.4c4.4-0.9,7.1,1.8,7.1,5.3
		c-10.6,54.8-15.9,134.3-15.9,239.5c0,10.6,0,15.9,0.9,15.9L3576,889.5z"/>
		</clipPath>
		<clipPath id="1a">
		<path d="M4128.3,1045.1l0,11.6c0,9.5,4.7,16.8,12.6,27.2c7.8,9.5,17.3,14.7,27.7,14.7c7.8,0,14.7-1.8,19.9-5.2
		c11.3-7.8,18.2-13,20.8-15.6c2.6-2.6,7-4.3,13.8-4.3c6.1,0,9.5,2.6,9.5,7c0,5.2-12.2,20.8-35.5,47.6c-7.8,8.6-19,17.3-33.8,27.7
		c-14.7,9.5-27.7,14.7-39,14.7s-19.9-1.8-26-6.1c-6.1-3.4-10.4-9.5-12.2-18.2c-2.6-11.3-4.3-25.1-4.3-40.7c0-1.8-0.9-2.6-3.4-2.6
		c-2.6,0-8.6,5.2-17.3,15.6c-28.6,29.4-51.1,44.2-68.4,44.2s-31.2-4.3-39.8-13.8c-9.5-9.5-13.8-20.8-13.8-34.6
		c0-25.1,7-48.5,19.9-71.1c13-22.5,28.6-40.7,46.8-54.6c40.7-29.4,71.8-45.1,94.4-45.1c33.8,0.9,50.3,13,50.3,35.5
		c0,7.8-3.4,16.5-10.4,24.2s-13.8,12.2-19.9,12.2s-14.7-5.2-25.1-15.6c-10.4-10.4-22.5-15.6-34.6-15.6c-13,0-23.4,5.2-31.2,15.6
		c-7.8,10.4-12.2,23.4-12.2,39.8c0,26,13.8,39.8,41.6,39.8c11.3,0,19.9-2.6,27.7-8.6c7-5.2,11.7-9.9,15.2-16.8
		c8.6-17.3,12.8-16.7,19.7-16.7C4125.1,1037.5,4128.3,1039,4128.3,1045.1z"/>
		</clipPath>
		<clipPath id="1l">
	<path d="M4377.2,1072.4c8,0,20.3-3.5,35.3-9.7c15.9-6.2,25.6-9.7,31.8-9.7c5.3,0,8.8,2.7,8.8,8
		c0,11.5-15.9,29.2-48.6,52.1c-31.8,23-58.3,34.5-77.8,34.5c-19.4,0-35.3-3.5-47.7-9.7c-12.4-6.2-22.1-15-30-27.4
		c-7.1-12.4-13.3-23.9-18.6-36.2c-4.4-11.5-8-26.5-9.7-43.3c-3.5-26.5-4.4-56.6-4.4-91.9s4.4-76.9,14.1-126.4
		c9.7-48.6,22.1-90.1,38.9-124.6s34.5-51.3,53-53c5.3,0.9,9.7,1.8,12.4,2.7c3.5,0.9,7.1,5.3,9.7,13.3c3.5,7.1,5.3,18.6,5.3,31.8
		c0,127.2-24.7,224.5-75.1,292.5C4295.9,1040.5,4329.5,1072.4,4377.2,1072.4z M4268.5,746.3c-7.1,33.6-11.5,67.2-11.5,102.5
		c0,34.5,3.5,68.9,10.6,102.5c35.3-53,53-124.6,53-213.8c0-13.3-1.8-23-6.2-30c-3.5-7.1-8.8-10.6-14.1-10.6
		C4287.1,695.9,4276.5,712.7,4268.5,746.3z"/>
		</clipPath>
		<clipPath id="1p-1">
	<path d="M4469.1,1065.3l5.3-97.2c0-3.5-0.9-4.4-2.7-4.4c-1.8,0-4.4,2.7-8,7.1s-8,7.1-13.3,7.1
		c-5.3,0-8.8-1.8-8.8-5.3s2.7-8,7.1-13.3c4.4-5.3,9.7-15,15.9-29.2c6.2-14.1,11.5-25.6,15.9-35.3c4.4-9.7,8.8-14.1,13.3-14.1
		c5.3,0,9.7,2.7,13.3,7.1c3.5,5.3,4.4,9.7,4.4,13.3c0,4.4-2.7,17.7-7.1,41.5c-4.4,23.9-7.1,41.5-7.1,52.1c0,11.5,0.9,16.8,3.5,16.8
		l-9.7,165.2c-0.9,25.6-1.8,46.8-1.8,62.7s0.9,30,2.7,43.3c1.8,12.4,2.7,22.1,2.7,28.3c0,6.2-2.7,10.6-7.1,15
		c-4.4,4.4-9.7,6.2-15,6.2c-7.1,0-10.6-4.4-10.6-13.3c-0.9-8.8-0.9-30-0.9-64.5s0-58.3,0.9-72.5L4469.1,1065.3z"/>
		</clipPath>
		<clipPath id="1e">
	<path d="M4795.2,1086.5c14.1,0,26.5-3.5,36.2-9.7c9.7-6.2,18.6-15,27.4-24.7c8.8-10.6,15-15.9,20.3-15.9
		c5.3,0,7.1,2.7,7.1,7.1c0,3.5-0.9,7.1-3.5,10.6c-16.8,27.4-38,51.3-63.6,72.5s-52.1,30.9-80.4,30.9s-44.4-10.3-57.6-23.5
		s-22.8-28.6-22.8-51.6c0-38.9,15-79.5,44.2-120.2c29.2-40.6,60.1-61.9,91-61.9c16.8,0,24.7,7.1,24.7,20.3
		c0,17.7-5.3,37.1-16.8,55.7c-11.5,19.4-36.8,50.6-67.7,83.3C4747.8,1080.5,4771.3,1086.5,4795.2,1086.5z M4755.4,1006.1
		c8.8-16.8,13.3-30.9,13.3-41.5s-4.4-16.8-12.4-16.8c-12.4,0-21.2,5.3-26.5,16.8c-5.3,11.5-8,23-8,36.2s1.8,24.7,6.2,35.3
		C4737.7,1032.6,4746.6,1022.9,4755.4,1006.1z"/>
		</clipPath>
		<clipPath id="1s-1">
	<path d="M5022.5,1135.9c-26.8,12.2-50.9,18.7-72.9,18.7c-53.7,0-81.4-21.7-81.4-64.1c0-5.2,7-14.7,19.9-26.9
		c13-12.2,22.5-19.9,28.6-22.5c4.3-3.4,7-4.3,9.5-4.3c2.6,0,4.3,0.9,6.1,3.4c1.8,1.8,3.4,4.3,5.2,7.8c1.8,3.4,3.4,5.2,5.2,7.8
		c1.8,1.8,3.4,5.2,6.1,8.6c2.6,3.4,5.2,6.1,7.8,8.6s6.1,4.3,9.5,6.1c7,5.2,13.8,7.8,20.8,7.8c7,0,11.3-4.3,11.3-13
		c0-21.7-7.8-39.8-23.4-54.6c-15.6-15.6-28.6-23.4-39.8-23.4c-2.6,0-5.2,1.8-7.8,4.3l-27.7,27.7c-4.3,4.3-7.8,7-9.5,7
		c-7.8,0-11.3-3.4-11.3-9.5c53.7-65.9,86.6-99.6,96.2-99.6c13.8,0,30.3,9.5,48.5,28.6c18.2,19.1,27.7,38.1,27.7,58
		c0,18.2-1.8,32.1-4.3,41.6s-4.3,15.6-4.3,16.5C5042.3,1070.6,5039.6,1090.7,5022.5,1135.9z"/>
		</clipPath>
		<clipPath id="1s-2">
	<path d="M5042.4,1070.6c-0.9,2.6,0.9,2.6,5.2,2.6c4.3,0,10.4-2.6,19.9-9.5c9.5-6.1,16.5-12.2,21.7-18.2
		l8.6-8.6c3.4-3.4,7-5.2,10.4-5.2c6.1,0,9.5,3.4,9.5,10.4c0,2.6,0,4.3-0.9,6.1c-13,32.1-37.2,57.1-72.7,77
		c-7.4,3.9-14.5,7.5-21.6,10.7L5042.4,1070.6z"/>
		</clipPath>
		<clipPath id="1h">
	<path d="M5125.7,1087.4c5.3,0,20.3-16.8,45.1-51.3c24.7-34.5,40.6-51.3,46.8-51.3
		c7.1,0,13.3,5.3,20.3,16.8s13.3,23.9,19.4,37.1c6.2,13.3,16.8,26.5,30.9,38c14.1,11.5,29.2,17.7,43.3,17.7s23-0.9,26.5-2.7
		c2.7-1.8,5.3-3.5,7.1-3.5c1.8,0,2.7,1.8,2.7,6.2c-0.9,10.6-8.8,23-24.7,37.1c-15.9,15-37.1,22.1-63.6,22.1
		c-44.2,0-75.1-25.6-92.8-76.9c-1.8-3.5-2.7-4.4-4.4-4.4c-0.9,0-3.5,0.9-6.2,2.7c-2.7,1.8-8,8-15.9,17.7s-16.8,19.4-24.7,30
		c-8.8,10.6-14.1,16.8-15.9,18.6c-1.8,1.8-6.2,2.7-11.5,2.7c-5.3,0-8.8-2.7-9.7-9.7c-4.4-46.8-7.1-95.4-7.1-145.8
		s0.9-90.1,1.8-118.4c0.9-28.3,4.4-63.6,8-107.8c4.4-44.2,11.5-79.5,22.1-107.8s23.9-41.5,39.8-41.5c33.6,0,50.4,23.9,50.4,70.7
		c0,40.6-10.6,91-32.7,152c-22.1,61-42.4,109.6-62.7,144.9C5121.2,1052,5123.9,1087.4,5125.7,1087.4z M5149.5,686.2
		c-21.2,0-31.8,69.8-31.8,209.4v46.8c13.3-34.5,25.6-71.6,37.1-113.1s17.7-75.1,17.7-102.5S5165.4,686.2,5149.5,686.2z"/>
		</clipPath>
		<clipPath id="1dash">
	<path d="M5335.1,1203.1c0,0-476.3-20.3-764.4,131.7c0,0-15.9,8-7.1,21.2c8.8,13.3,25.6,0,25.6,0
		s280.1-140.5,744.9-140.5c0,0,10.6,0,10.6-5.3C5346.6,1202.2,5335.1,1203.1,5335.1,1203.1z"/>
		</clipPath>
		<clipPath id="1dot">
	<circle cx="5415.5" cy="1207.6" r="23.9"/>
		</clipPath>
	<clipPath id="1k-2">
		<path d="M3578.4,808.1c0.9,0,7-5.8,10.6-10.6c0,0,111.3-175.8,331.4-300.4c0,0,65.4-44.2,89.3-24.7
		c20.3,23-29.2,36.2-29.2,36.2s-205,69.8-356.1,311.1c-11.5,17.7-5.3,37.1-5.3,39.8s0.9,7.1,3.5,13.3
		c37.1,65.4,76.9,114.9,119.3,149.3c42.4,34.5,83.9,52.1,126.4,52.1c15,0,25.6-2.7,31.8-7.1c6.2-5.3,11.5-8.8,15-12.4
		c7.1-7.1,11.5-9.7,15.9-9.7c3.5,0,7.1,2.7,9.7,7.1c2.7,4.4,4.4,8.8,4.4,12.4c0,17.7-15.9,38-48.6,61c-31.8,23-69.8,34.5-112.2,34.5
		c-46,0-81.3-12.4-106.9-38c-13.3-13.3-23.9-25.6-32.7-38.9c-8.8-13.3-16.8-29.2-24.7-49.5c-7.1-19.4-12.4-36.2-15.9-49.5
		s-8-30-12.4-51.3c-7.1-30-11.5-46-13.3-46c-1.2,0-2,0.8-2.4,2.8L3578.4,808.1z"/>
		</clipPath>
		<clipPath id="1p-2">
	<path d="M4692.9,1027.2l-10.6,9.7c-21.2,19.4-45.1,38.9-70.7,56.6c16.8-25.6,25.6-53.9,25.6-83.9
		c0-43.3-19.4-65.4-57.4-65.4c-10.6,0-21.2,5.3-33.6,16.8c-12.4,11.5-22.1,22.1-30.9,33.6c-8,11.5-13.3,16.8-14.1,16.8l-31.8,53.9
		c-15,0.9-27.4,8-38,23.9c-9.7,14.1-15,26.5-15,38s4.4,23.9,12.4,36.2c8.8,12.4,19.4,18.6,33.6,18.6l29.2-5.3
		c28.3-6.2,60.1-19.4,94.6-39.8c33.6-20.3,61.9-40.6,83.9-61c22.1-20.3,32.7-34.5,32.7-43.3
		C4702.6,1029,4699.1,1027.2,4692.9,1027.2z M4574.5,1115.6c-10.6,5.3-20.3,8-28.3,8c-17.7,0-33.6-8-46.8-23.9
		c7.1-53,17.7-79.5,31.8-79.5c11.5,0,22.1,6.2,33.6,17.7c10.6,12.4,15.9,25.6,15.9,38.9S4578.9,1103.2,4574.5,1115.6z"/>
		</clipPath>
</g>
<path id="k-1" fill="none" stroke="#FFFFFF" stroke-width="40" stroke-miterlimit="10" d="M3576.8,544.5c0,0-35.7,222.1-11.4,603.5"
	/>
<path id="k-2" fill="none" stroke="#FFFFFF" stroke-width="130" stroke-miterlimit="10" d="M4023,472c0,0-264.9,65.9-445.8,374.9
	c0,0,106.2,401.6,370.5,202.4"/>
<path id="a" fill="none" stroke="#FFFFFF" stroke-width="100" stroke-linejoin="round" stroke-miterlimit="10" d="M4149.3,1009.3
	c0,0,8-75.7-106-48.5c-52.3,43.1-95.2,116.5-47.4,148.5c58.5,0,127.3-48,127.3-48s-17.9,94.4,19.2,67.2
	C4184,1098,4252,1074,4252,1074"/>
<path id="l" fill="none" stroke="#FFFFFF" stroke-width="100" stroke-linejoin="round" stroke-miterlimit="10" d="M4270.3,961.5
	c0,0,157.3-67.5,64.5-305.5c-102.8-60-181.5,408.7-18.8,442c108,9.4,142-48.6,142-48.6"/>
<path id="p-1" fill="none" stroke="#FFFFFF" stroke-width="40" stroke-linejoin="round" stroke-miterlimit="10" d="M4438,976
	c0,0,48-27.3,60-101.1c0,0-31,353.4-20,457.3"/>
<path id="p-2" fill="none" stroke="#FFFFFF" stroke-width="90" stroke-linejoin="round" stroke-miterlimit="10" d="M4597.7,1103
	c0,0-4.1-6.4-8.3-18.9c-6.3-19.2,12.1-50.6,1.7-92.6c13.8-46-127.2,70.7-130.5,141.9c-3.3,71.2,197.5-37.6,242-104.8"/>
<path id="e" fill="none" stroke="#FFFFFF" stroke-width="90" stroke-linejoin="round" stroke-miterlimit="10" d="M4729,1049
	c0,0,102.3-60.3,57.5-124.2c-24.7-35.2-138.9,85-86,163.5c52.9,78.5,173.1-21.3,189.5-52.3"/>
<path id="s-1" fill="none" stroke="#FFFFFF" stroke-width="90" stroke-linejoin="round" stroke-miterlimit="10" d="M4855.8,1006.8l101-51.3c0,0,84.6,45.1,49.8,158.4c0,0-100.3,21.9-125.5-68.5"/>
<path id="s-2" fill="none" stroke="#FFFFFF" stroke-width="55" stroke-linejoin="round" stroke-miterlimit="10" d="M5035,1106.7
	c0,0,73.6-37.1,93.7-74.1"/>
<path id="h" fill="none" stroke="#FFFFFF" stroke-width="90" stroke-linejoin="round" stroke-miterlimit="10" d="M5120.8,957.3
	c45.3-16.6,145.3-199.3,44.6-306.5c0,0-159.4-66.7-52.7,465.1l96.3-88.8c0,0,19.3,141.5,158.8,58.8"/>
<path id="dash" fill="none" stroke="#FFFFFF" stroke-width="50" stroke-linejoin="round" stroke-miterlimit="10" d="M4553,1361.9
	c0,0,276-158.8,801-154.3"/>
<line id="dot" fill="none" stroke="#FFFFFF" stroke-width="50" stroke-linejoin="round" stroke-miterlimit="10" x1="5383" y1="1207.5" x2="5445" y2="1207.5"/>
</svg>
