<?xml version="1.0" encoding="utf-8"?>
<!-- Generator: Adobe Illustrator 18.0.0, SVG Export Plug-In . SVG Version: 6.00 Build 0)  -->
<!DOCTYPE svg PUBLIC "-//W3C//DTD SVG 1.1//EN" "http://www.w3.org/Graphics/SVG/1.1/DTD/svg11.dtd">
<svg version="1.1" id="Layer_1" xmlns="http://www.w3.org/2000/svg" xmlns:xlink="http://www.w3.org/1999/xlink" x="0px" y="0px"
	 viewBox="375.8 1.7 1147.4 992.6" enable-background="new 375.8 1.7 1147.4 992.6" xml:space="preserve">
<style>
	.st0{fill:none;stroke:#9D713C;stroke-width:25px;stroke-miterlimit:30;
	stroke-dasharray: 2000;
  stroke-dashoffset: 2000;
  }
	.st0-animation{
		animation: dash 2s linear forwards;
	}
	.st00{fill:none;stroke:#9D713C;stroke-width:25px;stroke-miterlimit:30;
	stroke-dasharray: 2000;
  stroke-dashoffset: 2000;
	animation-delay: 1.4s;}
	.st1{fill:#FFFFFF;}

@keyframes dash {
  to {
    stroke-dashoffset: 0;
  }
}
</style>
<polyline class="st0" points="583.7,498 398.5,498 675.4,27.4 894.5,402.1 "/>
<polyline class="st00" points="996.7,580.4 1223.6,968.6 1500.5,498 1315.3,498 "/>
<g>
	<path fill="#FFFFFF" d="M639.5,458h0.6l0.9,0.6c0.6-0.4,1.1-0.6,1.9-0.6c0,0.7,1.9,1.7,5.6,2.8c5,3.7,7.4,6.7,7.4,8.9h0.6v-0.9h0.9
		v1.9l-0.9-0.6h-0.9l1.5,2.8h-0.6l0.6,0.9l-0.6,2.4l0.6,0.9c-0.4,0.6-0.6,1.1-0.6,1.5h0.6l-0.6,0.9v2.8h-0.9l0.9,3.3h-2.8
		c0-0.6-1.3-1.7-4.1-3.7v-3.3c0-0.4,0.2-0.6,0.6-0.6c0-0.4-0.2-0.6-0.6-0.6l0.6-2.4v-1.9c0-5-2-7.6-6.1-7.6c0,0.2-1.5,1.5-4.6,3.7
		v-0.6l0.6-0.9h-0.7c-4.1,3.1-6.1,5.9-6.1,8h0.9l-0.6,0.9v0.9c3-3.9,5.9-7.2,8.9-9.8v1.5c-3.7,3.7-6.5,7-8.3,10.2l0.6,0.9l-1.9,4.3
		h0.6c0.2,0,1.5-2.4,3.7-7h0.6v0.9c-1.5,2.8-2.2,4.3-2.2,4.6v0.6h0.6v-0.4h0.9c0,2.2-0.9,3.3-2.8,3.3v1.9h0.6v-0.9h0.9v0.6
		c-0.6,1.3-1.5,4.1-2.8,8.3c0.4,0.6,0.6,1.1,0.6,1.5l-0.9,0.6l0.6,0.9v0.6c0,0.4-0.2,0.6-0.6,0.6l0.6,0.9v5.2
		c0,6.3,1.1,10.9,3.3,14.1c5,0,9.6-0.9,14.1-2.8v0.9l-2.4,0.9v0.6h0.6c0.6-0.4,1.1-0.6,1.9-0.6c0.9,1.5,1.7,2.4,2.4,2.4
		c0.7-0.6,2.6-1.1,5.6-1.5l-0.6,0.9v0.6l1.9-0.9l0.9,0.6l0.9-0.6c0.6,0.4,1.1,0.6,1.5,0.6c0.6-0.4,1.1-0.6,1.5-0.6
		c-3.9,4.3-6.1,6.5-6.7,6.5v0.6c1.3,0,1.9,0.4,1.9,0.9c-2.6,0.2-3.7,0.6-3.7,0.9v1.5c-2.2,0.4-3.9,0.6-5,0.6v1.5
		c-0.4,0-0.6-0.2-0.6-0.6l-0.9,0.6l-0.9-0.6c-0.6,0.4-1.1,0.6-1.9,0.6v-0.6l-0.9,0.6c-0.4,0-0.6-0.2-0.6-0.6l-0.9,0.6h-1.5
		c-0.6,0-0.9-0.6-0.9-1.5c-0.4,0-0.6,0.2-0.6,0.6c-1.7-0.4-3.5-0.6-5.6-0.6v-0.6h1.3v-0.9h-0.6c-0.2,0-0.4,0.2-0.4,0.6l-0.9-0.6
		l-1.5,0.9c0-1.1-2-2.4-6.1-4.3l-0.9-1.5l-0.9,0.6H625c-0.6,0-0.9-0.4-0.9-0.9h0.9c-1.1-1.9-2.8-2.8-4.6-2.8c0-1.7-1.3-3.5-4.1-5.6
		c-3.7-5.6-5.6-11.1-5.6-16.9V498h0.9v-0.9h-0.9v-0.6h0.9v-0.9h-0.9v-5c0.2-0.6,0.4-0.9,0.9-0.9l0.9,0.6c0-1.5,0.2-2.4,0.6-2.8
		l-0.6-2.8l8-15.4h0.9v0.6c-1.5,3.3-2.6,5-3.1,5v0.6l0.6,2.4l-0.9,0.6l-0.9-0.6v1.5h0.9v0.6c-2.6,5.2-3.7,9.6-3.7,13.5
		c0.6,0.2,0.9,0.4,0.9,0.9l0.9-0.6h0.6v1.9l1.9-0.9v4.3h0.6c0.4-3.1,0.9-4.6,1.9-4.6l-0.6-2.4v-0.4h0.9c-0.4-0.6-0.6-1.1-0.6-1.9
		c-0.6,0-0.9,0.6-0.9,1.5h-0.4c-0.6,0-1.3-0.7-2.4-2.4c0.7-2.2,1.3-3.3,1.9-3.3v1.9l-0.9,1.5v0.6h0.6l1.3-0.9v0.9h0.6
		c0.6,0,0.9-0.6,0.9-1.5h0.6l0.9,0.6c0-0.4,0.2-0.6,0.6-0.6v0.6l-1.9,7c0.6,0,0.9-0.6,0.9-1.9h0.9v1.9h0.6c0-0.9,0.4-2.2,0.9-3.7
		c-0.6-0.4-1.1-0.6-1.5-0.6v-0.6h1.5l-0.9-1.5c0.4-0.6,0.6-1.1,0.6-1.9h1.5c-0.4,1.7-0.6,2.6-0.6,2.8v0.6h0.6c0-0.4,0.6-1.3,1.9-2.8
		c-0.6,0-0.9-0.4-0.9-0.9c1.3,0,2.2-1.5,2.8-4.3c1.5-3.5,2.6-5.2,3.3-5.2v-0.6h-0.9c0,0.6-0.6,0.9-1.5,1.5H630v-0.6
		c1.5-3.1,4.4-6.1,8.9-9.3l0.9-1.5h-0.6c-1.7,0-3.9,1.5-6.5,4.6c-0.6,0.4-1.1,0.6-1.5,0.6v-0.6c-0.6,0.4-1.1,0.6-1.9,0.6v0.9h0.6
		c0.4,0,0.6-0.2,0.6-0.6c0.6,0.4,1.1,0.6,1.5,0.6v0.6c0,0.6-0.4,0.9-0.9,0.9c-0.4,0-0.6-0.2-0.6-0.6c-0.6,0.4-1.5,0.6-2.8,0.6v0.4
		h2.4c-2.8,1.9-4.3,3.1-4.3,4.3c0.6-0.4,1.1-0.6,1.5-0.6l-0.6-0.9v-0.6l1.5,0.9c-1.3,3.5-2.6,5.4-3.7,5.6v-2.2h-0.6
		c-0.6,0-0.9,0.6-0.9,1.5c-0.6,0-0.9-0.4-0.9-0.9v-0.9c0-0.6,0.6-0.9,1.5-0.9v-2.4c0-0.4,2-3.1,6.1-8c0-0.6,1.1-2.2,3.3-4.6
		c0-0.9,0.6-1.5,1.5-1.5c-0.4-0.6-0.6-1.1-0.6-1.5l-4.3,1.9l0.6,0.9c-0.6,0-1.3,0.6-2.4,1.5h-0.6V466c3.5-4.4,7-6.7,10.2-6.7v0.9
		c-2.2,0-3.1,0.6-3.1,1.5v0.6l2.4,0.6l-0.6-0.9v-0.6c1.3,0,2.8-0.6,4.6-1.9h1.5v-0.6H641V458H639.5z M610.6,490
		c0.2,0.6,0.4,0.9,0.9,0.9V490H610.6z M611.5,505.4v0.9h0.6v-0.9H611.5z M614.3,495c0.6,0.7,0.9,1.7,0.9,2.4l0.9-0.6v0.9h0.6v-0.9
		h-0.6l0.6-0.9c0-0.6-0.4-0.9-0.9-0.9H614.3z M615.2,490.8h0.9v0.9h-0.9V490.8z M615.2,502.6v0.9h0.6v-0.9H615.2z M616.7,488.9v1.5
		h-0.9v-0.6C615.8,489.3,616.1,488.9,616.7,488.9z M615.8,499.3l0.6,2.8c0.4,0,0.9-0.6,1.5-1.5c-0.6-0.9-0.9-1.9-0.9-2.4
		C616,498.4,615.8,498.7,615.8,499.3z M616.7,502.6v0.9c0.6,0,0.9-0.4,0.9-0.9H616.7z M616.7,504.5v0.9c0.6,0,0.9-0.4,0.9-0.9H616.7
		z M616.7,507.3c0,0.6,0.4,0.9,0.9,0.9v-0.9H616.7z M618,490.4h0.6v0.9c0,0.6-0.4,0.9-0.9,0.9l-0.6-0.9
		C617.3,490.8,617.4,490.4,618,490.4z M618,498.4v0.9h0.6v-0.9H618z M620.4,472.1l0.6,0.9c-0.2,0-0.9,0.7-2.2,2.2v-0.9
		C619.3,472.8,620,472.1,620.4,472.1z M619.5,483.4c0.6,0,0.9,0.4,0.9,0.9h-0.9V483.4z M621.3,475.4v1.5h-0.9v-0.6
		C620.4,475.6,620.8,475.4,621.3,475.4z M620.4,484.9h0.9v0.6h-0.9V484.9z M620.4,494.5v1.9h0.6v-1.9H620.4z M620.8,503.9v0.9h0.6
		v-0.9H620.8z M621.7,494.5v2.8h0.6c0-1.1,0.2-1.9,0.6-2.4L621.7,494.5z M622.6,472.1h1.5l-0.6,0.9c0.4,0,0.6,0.2,0.6,0.6
		c-0.6,0-1.1,0.4-1.9,0.9v-0.6C622.4,473.4,622.6,472.8,622.6,472.1z M622.6,482.8c0.6,0.2,0.9,0.4,0.9,0.9v0.6h-0.9V482.8z
		 M623.2,477.3v0.6h0.9v-0.6H623.2z M623.5,469.3h0.9v0.6h-0.9V469.3z M623.5,479.1v0.9h0.6v-0.9H623.5z M623.5,495v0.9h0.6V495
		H623.5z M625,466h0.6v0.6c0,0.6-0.4,0.9-0.9,0.9h-0.6v-0.6C624.3,466.3,624.5,466,625,466z M624.7,470.2h0.6v0.9h-0.6V470.2z
		 M624.7,490v0.6h0.9V490H624.7z M625.6,473.9l-0.6,0.9h1.5C626.5,474.3,626.1,473.9,625.6,473.9z M627.4,478.6
		c0.6,0.2,0.9,0.4,0.9,0.9v0.9c-0.9,1.9-2,2.8-3.3,2.8v-0.6c0.9-1.9,1.9-2.8,2.8-2.8l-0.6-0.9v-0.4H627.4z M626.5,498.7v0.6h0.9
		v-1.5C626.7,498,626.5,498.4,626.5,498.7z M627.4,493.2v0.9h0.6v-0.9H627.4z M627.8,466.9h0.9v0.6h-0.9V466.9z M628.4,485.8v0.9
		h0.6v-0.9H628.4z M628.7,500.6v0.6h0.9v-1.5C629.1,499.9,628.7,500.2,628.7,500.6z M629.7,496v0.9h0.6V496H629.7z M630.2,494.5v0.6
		h0.6l0.6-1.9C630.6,493.2,630.2,493.6,630.2,494.5z M630.8,491.7v0.9h0.6v-0.9H630.8z M631.1,490v1.3h0.6V490H631.1z M631.7,487.6
		v1.5h0.6v-1.5H631.7z M632.1,485.8v1.5h0.6v-1.5H632.1z M633.9,464.1v0.9h0.6v-0.9H633.9z M634.5,484.9v0.9h0.6v-0.9H634.5z
		 M636.7,471.1h1.5c0,0.6-0.4,0.9-0.9,0.9h-0.6V471.1z M640,464.7v0.9c0.6,0,0.9-0.4,0.9-0.9H640z M640,473.6h0.6v0.9H640V473.6z
		 M648.9,520.8v0.9h0.6v-0.9H648.9z M653.2,473.9v1.5c0.6,0,0.9-0.4,0.9-0.9L653.2,473.9z M655.4,519.9h0.9v0.6h-0.9V519.9z
		 M656.9,481.5h0.9v0.6h-0.9V481.5z"/>
	<path fill="#FFFFFF" d="M657.3,519.3l0.7-0.2l-0.2,1.9l-0.7,0.2L657.3,519.3z M688.4,484.7h0.4l1.3,0.6c0.2,0,0.4-0.2,0.4-0.4v-0.2
		h0.2c0.4,0,1.5,0.4,3.5,1.3l-0.2-0.4h-0.2c-0.2,0-0.4-0.2-0.4-0.4l0.7-0.2c0.2,0.6,1.7,1.3,4.6,2.4c0.6,0.7,0.9,1.3,1.3,1.3h0.2
		c0.4-0.4,0.7-0.6,1.1-0.6c3.1,3.1,4.8,5.7,5,8c-0.2,0-0.4,0.2-0.4,0.4v0.2c0.6,0,0.7,0.2,0.9,0.7l0.2,1.1v0.2
		c0,0.2-0.2,0.4-0.4,0.4l0.6,0.7v0.7c0,0.4-0.2,0.6-0.6,0.6c0.4,0.4,0.6,0.7,0.6,1.1c0,4.8-0.4,7.2-1.1,7.4c0-0.2-0.2-0.4-0.4-0.4
		h-0.2v0.2c0,0.4-0.2,1.1-0.6,1.9l0.2,0.4l0.4-0.2l0.2-1.5l0.4-0.2l0.4,1.5v0.2c0,0.4-0.4,0.9-1.3,1.7c0-0.2-0.2-0.4-0.4-0.4h-0.2
		c-1.3,3.3-1.9,5-1.9,5.2h-0.4l-1.3-0.6l-0.4,0.2l0.2,2.6l-0.7,0.2l-0.9-0.4v0.2c0,0.4-0.4,0.7-0.9,1.3H698l0.4-0.7H698
		c-0.9,2-1.7,3-1.9,3h-0.4l-0.2-0.7l-0.4,0.2l0.2,0.7c0.2,0.2,0.6,0.2,0.9,0.2c0.2,0,0.4,0,0.7-0.2v0.4c0,0.4-0.2,0.6-0.6,0.7
		c0-0.2-0.2-0.4-0.6-0.4v0.2c0,0.4-0.4,0.7-0.9,1.3l-0.7-0.4v0.2c0,0.4-0.4,0.9-1.3,1.7l-0.4-1.9h-0.4v-0.2c0-0.4,0.6-0.7,1.5-0.9
		l-0.4-1.5c-0.4,0.7-2,2.6-4.8,5.4v0.2c0,0.2,0,0.6-0.2,0.9c0.2,0,0.4,0.2,0.6,0.4c-0.4,0-1.1,0.9-2.2,2.6h-0.4l-0.2-0.7l-1.1,0.2
		l0.6,0.7l-2.6,0.7l-0.4,0.2l-0.2-0.7l-1.1,0.2l0.2,0.7h-0.4c-0.6,0-0.9-0.4-0.9-0.9l-0.4,0.2l0.2,0.7l-0.7,0.2
		c0-0.4-0.6-0.7-1.3-1.3c-1.3,0.4-2,0.9-2,1.5v0.2c-1.3-0.7-2.2-1.3-2.2-2l-0.7,0.2l0.2,0.7l-0.4,0.2c-3.5-0.7-6.9-2.2-9.8-4.4
		c-1.1-0.9-1.9-2.2-2.2-3.9l0.4-0.2c-0.6-1.7-1.1-2.8-1.7-3.1l-0.2-0.7l0.7-0.2l-0.6-2.4l-0.7,0.2l-0.2-0.4c0.6-0.6,0.9-1.3,0.9-2
		V516c1.1-2.4,2.2-5.9,3-10.4l1.7-1.5l-0.6-0.7c0.9-0.2,1.7-1.9,2-4.8l0.4-0.2l0.2,0.7c3-4.1,5.2-6.5,6.9-7.2c0,0.6,0.7,0.9,2,1.3
		l0.2,0.4c0.2,0,0.6-0.2,1.1-0.6h0.4c0.4,0,1.1,0.2,2,0.4c0.4-0.4,0.9-0.6,1.5-0.6l0.4-0.2l0.9,0.4c0-0.6,0.2-0.7,0.6-0.9l0.7-0.2
		l0.2,0.4l-3.1,2.4l0.4-0.2c0.4-0.4,0.9-0.6,1.5-0.7c0.6,0.6,0.9,1.1,1.1,1.9l0.7-0.6l1.1-0.2v0.4l-0.6,1.3c0.6,0.4,1.1,0.6,1.5,0.6
		h0.2l0.2,0.4v0.2c0,0.2-0.2,0.4-0.4,0.4l0.6,0.7v0.4c-3.9,4.8-6.5,10.9-7.8,18.7l0.2,0.7l3.7-0.6l0.2,0.7l0.4-0.2v-0.4
		c0-0.9,0.7-1.5,2-1.9v-0.2c0-0.6,0.4-1.3,1.1-2.2c0.4-1.5,1.1-3,2-4.4l-0.6-0.7l0.9-0.9l-0.6-0.7c0-0.6,0.2-0.7,0.7-0.9
		c0,0.2,0.2,0.4,0.4,0.4c1.1-5.2,1.9-9.3,1.9-12.2c0-0.7,0-1.5-0.2-2.2l-0.9-0.2l0.4-0.9l-0.4-1.5l-1.3-1.3c0.2,0,0.4-0.2,0.4-0.4
		v-0.2l-0.7,0.2l-0.2-0.4l0.4-0.9h-0.9c-0.2,0-0.4-0.2-0.4-0.4l-0.7,0.6l-0.4,0.2l-0.2-0.7c0.4,0,0.7-0.4,1.3-0.9l0.2,0.4l0.7-0.6
		c0.4,0.2,0.7,0.2,0.9,0.2h0.4l-0.6-0.7v0.2H688.4z M663.6,506l0.2,0.7l0.7-0.2c0-0.4-0.4-0.7-0.7-0.7h-0.2V506z M665.6,497.6h0.4
		l0.2,0.7h-0.4L665.6,497.6z M665.8,500.8l0.2,0.4l0.7-0.2l-0.2-0.4L665.8,500.8z M678.2,509.1v0.4c0,0.4,0,0.9-0.2,1.3l0.2,0.4
		l0.4-0.2v-0.2c0-0.4,0.2-0.9,0.6-1.5v-0.4L678.2,509.1z M679.1,507.8v0.4l0.4-0.2c0.6-1.3,0.7-2.2,0.7-2.8V505
		C679.7,505.4,679.3,506.3,679.1,507.8z M681.3,490.4l0.4-0.2l0.2,0.7l-1.1,0.2C680.6,490.6,680.8,490.4,681.3,490.4z M680.6,503.4
		l0.2,0.7c0.4,0,0.7-0.4,0.7-0.7v-0.2L680.6,503.4z M682.6,493.9l0.7-0.2v0.2c0,0.4-0.2,0.6-0.6,0.7L682.6,493.9z M683.2,531.9
		l0.2,0.4l0.7-0.2l-0.2-0.4L683.2,531.9z M687.3,492.1l0.7-0.2v0.4l-0.7,0.2V492.1z M689.9,523.6l0.2,0.7l0.4-0.2l-0.2-0.7
		L689.9,523.6z M693.7,521.1v0.4l0.7-0.2V521L693.7,521.1z M697.3,522.4h0.4v0.4c0,0.4-0.2,0.6-0.6,0.6h-0.4
		C696.7,522.8,696.9,522.4,697.3,522.4z M701.5,515.2l0.2,0.7c0.2,0.4,0.4,0.7,0.7,0.7h0.2l-0.2-0.7c0-0.4-0.4-0.7-0.7-0.7H701.5z
		 M701.9,514.5v0.4l0.7-0.2v-0.4L701.9,514.5z M703.2,513.2l0.2,0.7h0.4l-0.2-0.7H703.2z M704.9,514.5l0.2,0.7v0.4
		c0,0.4-0.2,0.6-0.6,0.6l-0.2-0.7C704.3,514.9,704.5,514.5,704.9,514.5z"/>
	<path fill="#FFFFFF" d="M763.2,445h0.4v0.4l-0.4,1.9c0.7,0.2,1.5,0.4,2.2,0.4v-0.4h0.7c0,0.9,0.2,1.5,0.7,1.5l-0.4,0.7
		c0.4,0,0.7,0.6,1.1,1.9c-0.6,0.2-0.9,0.4-1.1,0.4v0.7l0.4,2.6h-0.7c0-0.7-0.2-1.1-0.7-1.1v0.4l0.7,1.9c-0.6,0-1.1,0.6-1.9,1.9
		l0.4,1.9h-1.1l0.4,0.7c-0.2,0-0.4,0.2-0.4,0.4c0.2,0,0.4,0.2,0.4,0.4h-1.5v0.4l0.7,1.1c-0.4,0.2-0.9,0.4-1.5,0.4v0.7l0.7-0.4
		l1.5,0.4c0.6-0.2,0.9-0.4,1.1-0.4v0.4c-1.5,4.8-2.2,7.4-2.2,7.6v0.4h0.4c0-0.7,0.2-1.1,0.7-1.1v0.4c0,1.3-0.6,1.9-1.5,1.9v0.4h0.7
		v0.7c-0.7,0-1.1,0.9-1.1,2.6l0.7,0.4l-1.1,3.7h0.7v-1.1h0.4l1.1,0.7c-0.2,2.4-0.7,4.4-1.5,6.5c0,0.2,0.2,0.4,0.4,0.4
		c-0.9,5-1.5,7.6-1.9,7.6l0.4,0.7v0.7c0,1.3-0.2,1.9-0.7,1.9l0.4,0.7c-0.2,1.3-0.4,2.4-0.4,3v0.7h0.4v-0.7c0.7,0.2,1.3,0.7,1.5,1.5
		c-0.2,1.3-0.4,2.6-0.4,3.3v1.1h-0.7v-2.2H761v1.5h-0.4v-0.7h-0.7v0.4c0,0.2-0.2,1.7-0.4,4.8c0.6,0,0.7-0.2,0.7-0.7l-0.4-1.5
		c0.2-0.4,0.4-0.9,0.4-1.5h0.7v0.4l-0.4,0.7h0.7v1.1H761v-0.7h-0.4c0,1.7-0.2,3-0.4,3.7h-0.4v-1.1h-0.7l0.4,0.7
		c-0.2,1.7-0.4,2.6-0.7,2.6l0.4,0.7c0,1.7-0.2,4.1-0.4,7.6c0.2,3.9,0.4,6.9,0.4,8.7l-0.7,0.4c-0.2,0-0.4-0.2-0.4-0.4
		c-0.4,0.2-0.9,0.4-1.5,0.4v0.4c0,0.2,0.2,0.4,0.4,0.4l-0.4,0.7v3.3h-0.7c0-0.7-0.2-1.5-0.4-1.9h0.4c-0.4-1.5-0.7-2.2-1.1-2.2v1.9
		c0,0.2,0.2,0.4,0.4,0.4c-0.2,0.4-0.4,0.9-0.4,1.5h-0.7c0-0.7-0.2-1.1-0.4-1.1l0.4-0.7v-0.4c-0.6,0-0.7-0.4-0.7-1.1h-0.4
		c-0.2,1.3-0.4,2-0.4,2.2h-1.1c0-0.6-0.2-0.7-0.7-0.7c0-0.2,0.2-0.6,0.4-1.1c0-0.6-0.2-2.2-0.7-4.4h-1.9l0.4,1.9
		c0,0.6-0.2,0.7-0.4,0.7l0.4,1.9v2.2c-0.6,0-0.9-0.9-1.1-3l-0.7,0.4l-0.7-0.4c0,0.6-0.2,0.7-0.7,0.7c0-1.3-0.6-3.1-1.9-5.2l-0.7,0.4
		h-0.4l0.7-1.1v-0.4l-1.9,0.4v0.7h0.7v0.7h-0.7v0.4l0.4,0.7c-3.3,0.4-4.8,0.7-4.8,1.5c-0.7,0-1.5-0.2-2.2-0.7v0.4
		c-6.1-0.9-9.6-1.9-10.2-2.6c-2.6-1.1-5-3.3-7.2-6.5c-2.2-1.5-3.3-5.7-3.3-12.4v-0.7c0-1.9,1.1-5.4,3.3-10.6l0.7,0.4
		c0-0.7,0.2-1.1,0.7-1.1v0.7c-1.5,2.8-2.2,6.1-2.2,10.2v1.9h0.4c0.9-6.9,2-10.2,3-10.2c-0.6,0-0.7-0.2-0.7-0.4s0.4-1.3,1.1-3.7
		l-1.5,1.5v-0.7c2.6-4.4,5.7-8,9.8-10.6l0.7,0.4c0-0.6,0.6-0.9,1.9-1.1c0,0.2,0.2,0.4,0.4,0.4c0-0.2,1.1-0.9,3.3-2.2
		c-0.6,0-0.7-0.2-0.7-0.7l1.1-0.7h0.4v1.1c0.6,0,0.7-0.4,0.7-1.1h0.4v1.1l2.6-0.4c3.5,0.9,5.7,1.7,6.5,2.2c0.6,0,1.3-3.3,2.2-9.8
		h0.7v-0.7l-0.4-0.7c0.4,0,0.7-0.6,1.1-1.9c0-0.2-0.2-0.4-0.4-0.4c0.7-3.3,2.4-8.5,4.8-15.7c0.9-3.3,1.7-4.8,2.2-4.8l-0.4-0.7
		c1.5-3.5,2.4-5.2,3-5.2v0.4c-0.2,0.6-0.4,0.9-0.4,1.1c0.4,0,0.9-0.6,1.5-1.5l0.7,0.4L763.2,445z M716.5,512.4v0.7h0.4v-0.7H716.5z
		 M718.4,495.4h0.7v0.4c0,0.6-0.2,0.7-0.7,0.7V495.4z M721,496.3c0.2,0,0.4,0.2,0.4,0.4h-0.7v0.7h0.4l1.9-0.4v-0.4
		c-0.7,0-1.1-0.2-1.1-0.7v-0.7l1.1-1.5v-0.4C722.3,493.2,721.5,494.3,721,496.3z M721,497.8v0.7h0.4v-0.7H721z M722.8,492.8h0.7
		v-0.7C723.2,492.3,722.8,492.4,722.8,492.8z M723.6,493.9c0,0.2-0.2,0.6-0.4,1.1h0.7v-1.1H723.6z M723.9,506.3v0.7h0.4v-0.7H723.9z
		 M724.3,512.1c0,0.2-0.2,0.6-0.4,1.1h0.7v-1.1H724.3z M724.3,505.6c0,0.6,0.4,0.7,0.7,0.7v-0.7H724.3z M724.3,510.2v0.7h0.4v-0.7
		H724.3z M724.3,514.3v0.7h0.4v-0.7H724.3z M724.7,492.4v0.7h0.4v-0.7H724.7z M724.7,502.6v0.7h0.4v-0.7H724.7z M725.4,492.1v0.4
		c0.4,0,0.7-0.4,1.1-1.1h-0.4C725.8,491.3,725.4,491.7,725.4,492.1z M725.4,500.4v0.4h0.4c0-0.6,1.5-3.1,4.4-7.6h-0.4
		C728.4,495,726.9,497.4,725.4,500.4z M725.4,503v1.5h0.4V503H725.4z M728.2,488.7h0.7V488C728.4,488,728.2,488.4,728.2,488.7z
		 M736.3,489.5h1.1c0,0.4-0.6,0.9-1.9,1.9l-0.7-0.4l-0.4,2.6l-0.7-0.4v1.1l-0.7-0.4h-0.4c0,0.4-0.6,1.3-1.9,2.6
		c0,0.6,0.2,1.1,0.4,1.5c-0.2,0.6-0.4,0.9-0.4,1.1h0.7c0-1.1,0.6-2,1.9-2.6v0.7c-0.6,1.7-0.9,2.6-1.5,2.6v0.7h1.1v0.4
		c-0.9,1.5-2,4.3-3.3,8.3h1.1v0.4c-0.7,0-1.1,0.2-1.1,0.7v0.4c0,0.2,0.2,0.4,0.4,0.4l-0.4,0.7v0.4h0.7v1.1h-0.7v-0.7h-0.4v2.6h0.7
		v1.1c0,0.2-0.2,0.4-0.4,0.4c0.2,0.4,0.4,0.9,0.4,1.5c0.6,0,0.7-0.2,0.7-0.7c-0.2,0-0.4-0.2-0.4-0.4h0.7v2.2h0.7l2.2-1.1
		c0.6,0.2,0.9,0.4,1.1,0.4c0-0.4,0.9-0.9,2.6-1.9h0.4l-0.4,0.7h1.1c0-0.7,0.7-1.5,2.2-2.6l0.7,0.4h0.7l0.4-1.5h-0.2
		c0.6-4.1,1.1-6.7,1.5-8l-0.4-2.2c0.7-6.1,1.1-10.2,1.1-12c-0.4,0-1.1-0.7-2.2-2.2c-2,0.2-3.5,0.7-4.1,1.9h-1.1v-0.4
		c0.7,0,1.5-0.6,2.2-1.9h-0.4l-1.9,0.4v-0.7h-0.4C736.7,488.7,736.3,489.1,736.3,489.5z M729.3,498.2v0.7h0.4v-0.7H729.3z
		 M729.3,501.1v0.7h0.4v-0.7H729.3z M730.4,508h0.7v0.7h-0.7V508z M730.8,488.4v0.7h0.4v-0.7H730.8z M730.8,492.4v0.7h0.4v-0.7
		H730.8z M731.2,510.6h0.7v0.4c-0.2,0.6-0.4,0.9-0.4,1.1h-0.7v-0.4C731,511.1,731.2,510.8,731.2,510.6z M730.8,512.8h0.7v1.1h-0.7
		V512.8z M732.3,495h0.7v0.4h-0.7V495z M734.5,494.7h0.4v0.4c0,0.6-0.2,0.7-0.7,0.7h-0.4v-0.4C733.9,495,734.1,494.7,734.5,494.7z
		 M734.1,491v0.7h0.4V491H734.1z M737.1,491.7h0.4c-0.6,1.3-1.1,1.9-1.5,1.9h-0.7C735.2,493.4,736,492.6,737.1,491.7z M742.4,516.1
		c0,0.2-0.4,1.1-1.1,2.6h0.4c0.9-0.9,1.5-1.7,1.5-2.2L742.4,516.1z M741.7,530.2h0.7v0.4h-0.7V530.2z M746.2,531.3v1.1h0.4v-1.1
		H746.2z M746.9,531.3c0.2,0.4,0.4,1.1,0.4,1.9h0.7c-0.2-0.4-0.4-1.1-0.4-1.9H746.9z M748.4,524.9v0.4c0.2,0.6,0.4,0.9,0.4,1.1h0.4
		V526c-0.2-0.6-0.4-0.9-0.4-1.1H748.4z M748.4,528.2v0.7h0.7v-0.7H748.4z M748.9,508.4v0.7h0.4v-0.7H748.9z M749.3,502.6v0.7h0.7
		C750,502.8,749.7,502.6,749.3,502.6z M750,497.1c0,0.7-0.2,1.7-0.4,2.6h1.1c-0.2-0.9-0.4-1.9-0.4-2.6H750z M749.7,501.1v1.1h0.4
		v-1.1H749.7z M749.7,506.7v0.7h0.4v-0.7H749.7z M750,496v0.7h0.4V496H750z M752.3,521.9c0,0.6-0.2,0.7-0.4,0.7
		c0.2,0.9,0.4,1.9,0.4,2.6h0.4c0-1.3,0.2-1.9,0.4-1.9c-0.2-0.4-0.4-0.9-0.4-1.5H752.3z M751.9,528.2v1.5c0,0.6,0.2,1.1,0.4,1.5
		c-0.2,0.6-0.4,0.9-0.4,1.1l0.7,0.4l0.4-1.9V530c0-0.2-0.2-0.4-0.4-0.4l0.4-0.7v-0.7H751.9z M752.3,482.3v1.1h0.4v-1.1H752.3z
		 M752.3,510.6v0.4h0.7v-0.4H752.3z M752.3,520v1.1h0.4V520H752.3z M752.3,525.6v0.4l0.4,1.9h0.4v-1.5
		C753,526,752.8,525.6,752.3,525.6z M752.6,507.6v0.7h0.4v-0.7H752.6z M753,479.3v1.5h0.4v-1.5H753z M753.4,477.4v1.5h0.4v-1.5
		H753.4z M754.5,472.4v1.5h0.4v-1.5H754.5z M754.9,471.3v0.7h0.4v-0.7H754.9z M755.2,469.5v1.1h0.4v-1.1H755.2z M755.2,486.9v0.4
		h0.7v-0.4H755.2z M756,487.6c0,0.2-0.2,0.6-0.4,1.1h0.7v-1.1H756z M756,467.3v0.7h0.4v-0.7H756z M756.7,464.7l-0.4,1.9
		c0.6,0,0.7-0.4,0.7-1.1v-0.7H756.7z M756.3,483.7v0.7h0.4v-0.7H756.3z M756.7,478.9v0.7h0.4v-0.7H756.7z M756.7,481.5v0.4h0.7v-0.4
		H756.7z M757.1,463.2v1.1h0.4v-1.1H757.1z M757.1,526.7v0.7h0.4v-0.7H757.1z M757.1,530.6v0.7h0.4v-0.7H757.1z M757.4,485.4v0.4
		h0.7v-0.4H757.4z M757.8,477.1v1.5h0.4c0-0.2,0.2-0.6,0.4-1.1L757.8,477.1z M757.8,506v1.9h0.4V506H757.8z M758.2,464.7v0.7h0.4
		v-0.7H758.2z M758.2,481.1h0.4c0.6,0,0.7-0.2,0.7-0.7V480C758.9,480,758.6,480.4,758.2,481.1z M758.6,474.5v0.7h0.4v-0.7H758.6z
		 M758.6,501.5v0.7h0.4v-0.7H758.6z M758.9,477.4c0.2,0.6,0.4,0.9,0.4,1.1h-0.4c0.2,0.6,0.4,0.9,0.4,1.1h0.4c0-1.1,0.2-2,0.7-2.6
		c-0.2,0-0.4-0.2-0.4-0.4C759.3,476.9,758.9,477.3,758.9,477.4z M759.3,493.2c0,0.7-0.2,1.7-0.4,2.6c0.4,0,0.7-0.9,1.1-2.6H759.3z
		 M759.7,515h0.4v1.1c0,0.6-0.2,2.6-0.4,5.6h-0.4v-4.4c0-0.2,0.2-0.4,0.4-0.4l-0.4-0.7C759.7,515.8,759.7,515.4,759.7,515z
		 M759.7,466.9v0.4h0.7v-0.4H759.7z M761.3,469.8l-0.7-0.4h-0.4c0,0.2-0.2,0.6-0.4,1.1h0.4l0.7-0.4v0.7c0,0.4-0.4,1.5-1.1,3.7
		c0.2,0.6,0.4,0.9,0.4,1.1c-0.2,0-0.4,0.2-0.4,0.4h1.1c0-2,0.6-5,1.9-8.7h-0.4C761.9,467.6,761.5,468.4,761.3,469.8z M759.7,487.6
		c0,0.6,0.4,0.7,0.7,0.7l0.4-0.7H759.7z M759.7,491v1.5h0.4V491H759.7z M760.2,503l-0.4,2.6v0.4l1.9-1.9v-0.4
		c-0.7,0-1.1-0.2-1.1-0.7H760.2z M760.2,446.9v0.4h0.7v-0.4H760.2z M760.6,463.9v0.4c0.2,0.6,0.4,0.9,0.4,1.1h0.4v-1.5H760.6z
		 M760.6,486.5v0.7h0.4v-0.7H760.6z M760.6,515.8h0.7v0.4h-0.7V515.8z M761,511.7h0.7v1.5H761V511.7z M761.3,465.8v0.7h0.4v-0.7
		H761.3z M761.7,481.5v1.1h0.4v-1.1H761.7z M762.4,466.1v1.1h0.4v-1.1H762.4z M762.8,465v0.7h0.4V465H762.8z M762.8,478.2h0.7v0.7
		h-0.7V478.2z M763.2,457.4h0.7v-0.7C763.4,456.7,763.2,457.1,763.2,457.4z M763.6,476.7h0.7c0,0.6-0.2,0.7-0.7,0.7V476.7z
		 M765,467.3l0.4,0.7l-0.7,0.4h-0.4V468C764.3,467.4,764.7,467.3,765,467.3z M764.7,472.1h0.7v0.4h-0.7V472.1z M765,453v0.7h0.4V453
		H765z M765,466.5h0.4v0.7H765V466.5z M767.6,452.6v0.7c0,0.6-0.2,0.7-0.7,0.7v-0.7C766.9,452.8,767.3,452.6,767.6,452.6z"/>
	<path fill="#FFFFFF" d="M769.9,507.1h0.7v0.7h-0.7V507.1z M770.2,505.8h0.7v0.4h-0.7V505.8z M805.2,473.6v0.4l0.7-0.4h1.1
		c0.2,0,1.3,1.1,3,3.3c0.2,0,0.4,0.2,0.4,0.7h0.7l0.7-0.4c0.7,1.1,2.4,2.2,4.4,3c0,0.6,0.9,1.5,2.6,3v0.7h-0.2
		c0.2,0.4,0.4,1.1,0.4,2.2h0.4v-0.7h0.7v1.1c-0.7,0-1.1,0.2-1.1,0.4c0.2,0.6,0.4,0.9,0.4,1.1c-0.6,0-0.7,0.4-0.7,1.1l-0.7-0.4h-0.4
		c0,0.6-0.2,0.7-0.7,0.7v0.7l0.7-0.4l0.7,1.1v0.4c-0.6,0.4-0.7,1.7-0.7,3.7l-0.7-0.4h-0.4v0.7h0.7v0.4c-0.7,0.7-1.1,1.5-1.1,1.9
		c0.6,0.7,0.7,1.5,0.7,1.9l-0.7,0.4c-0.2,0-0.4-0.2-0.4-0.4c-1.1,0.2-1.9,0.9-2.2,1.9l0.4,0.7l-0.7,0.4l-0.7-0.4h-0.4v0.4h0.7
		c0,0.4-1.7,1.7-4.8,4.1l0.4,0.7c-0.6,0-2,1.1-4.4,3.3h-1.5v0.4c0,0.2,0.2,0.4,0.4,0.4c0,0.6-1.1,1.5-3.3,2.6l-0.4,0.7l-0.7-0.4H798
		c0,0.7-0.2,1.1-0.7,1.1h-0.7c-0.2,0-0.4-0.2-0.4-0.4l-0.7,0.4c-0.2,0-0.4-0.2-0.4-0.4c-1.9,0.7-3.3,1.1-4.1,1.1
		c-1.5-0.6-2.6-0.9-3.3-1.5c0,0.6-0.4,0.7-1.1,0.7c0,0.2,0.2,0.6,0.4,1.1l-0.4,1.9c0.7,2.4,1.1,3.7,1.1,4.1h1.9
		c1.3,0,4.8-0.9,10.2-3l-1.5,1.5h0.4c0.2,0,0.6-0.2,1.5-0.4c0.6,0.2,0.9,0.4,1.1,0.4c0-0.6,0.4-0.7,0.7-0.7h0.7v0.7
		c3.5-1.5,5.6-2.2,6.1-2.2c-0.7,1.3-1.7,1.9-2.6,1.9c0.2,0.6,0.4,0.9,0.4,1.1h0.4c0-0.9,0.7-1.5,2.2-1.5l1.9,1.1
		c1.7,0,5.4-1.7,11.3-5.2h0.7v1.1l-3,1.5v0.7h0.7l1.5-1.1c0,0.6,0.4,0.7,1.1,0.7v1.1H823c-0.2,0-0.4-0.2-0.4-0.4
		c-0.6,0.2-0.9,0.4-1.1,0.4v2.6h-0.9v-0.7h-0.4l-0.7,0.4l-0.4-0.7c0-0.7,0.4-1.1,1.1-1.1v-0.4h-0.4l-1.5,0.7v-0.7H818l-1.1,0.7
		l0.4,0.7c0,0.4-0.9,1.1-3,1.9v0.4h1.1l1.1-0.7h0.4v0.4c-0.2,0.6-0.4,0.9-0.4,1.1l-0.7-0.4c-1.3,0.6-1.9,1.1-1.9,1.5v0.4h0.4
		c0.6-0.2,0.9-0.4,1.1-0.4v0.7h-1.1v0.4h1.9c0,0.4-1.3,1.3-4.1,3c0,0.6-0.2,0.7-0.7,0.7H811l-0.7-0.4c0,1.7-1.1,2.6-3.3,2.6
		c0-0.2-0.2-0.4-0.4-0.4v0.4l-0.7-0.4l-1.1,0.7c0-0.2-0.2-0.4-0.4-0.4c0,0.7-0.9,1.1-3,1.5v-0.7h-0.7c-1.1,0-2,0.2-3,0.7
		c0-0.6-0.2-0.7-0.7-0.7v0.7h-0.7v-0.7h-0.4v0.7c0.2,0,0.4,0.2,0.4,0.4l-0.7,0.4c-1.3-0.4-1.9-0.9-1.9-1.5l-1.9,0.4H791
		c0-0.2-0.2-0.6-0.4-1.1l-0.7,0.4c-3.5-2.4-5.2-3.9-5.2-4.4l-0.7,0.4c-1.3-1.9-3.3-3.1-6.1-4.1v-0.4c0.9,0,1.5-0.4,1.5-1.1
		c-1.7-0.9-3-1.5-3.7-1.5v-1.5l0.4-0.7h-0.4c-0.6,0.2-0.9,0.4-1.1,0.4c-0.2-0.9-0.9-1.7-1.9-2.2l0.4-1.9v-2.6h0.7l0.7,2.2h0.4v-0.4
		c-0.2-1.7-0.4-3.1-0.4-4.1h0.4c-0.7-2.2-1.1-3.5-1.1-3.7L773,508h-0.7v-1.9c0-0.2,0.2-0.4,0.4-0.4c0-0.7-0.6-1.1-1.5-1.1l0.7-1.1
		c-0.6,0-0.9-0.6-1.1-1.9h0.4c0.6,0,0.7,0.4,0.7,1.1c0.6,0,0.7-0.2,0.7-0.7h-0.7l0.4-0.7l1.9,1.1h1.1l1.1-0.7L776,501
		c0.2-0.6,0.4-0.9,0.4-1.1h0.7v3h0.4c1.5-4.6,3-7.4,4.1-8.3h0.7c-1.7,2.4-3.1,5-4.1,8.3c0.2,0,0.4,0.2,0.4,0.4
		c0.7,0,1.5-1.1,1.9-3.3h0.4v1.1c-0.2,0.7-0.4,1.5-0.4,2.2c0.7-0.4,1.5-0.7,2.2-1.5c-0.2-0.6-0.4-0.9-0.4-1.1c0.2,0,1.3-1.1,3-3.3
		h-0.7v-0.7l0.7,0.4c3-5.6,5.2-8.5,6.5-9.1l-0.4-0.7v0c0.4,0,1.1-0.9,2.6-3l3.7-2.2c0.2-0.9,0.4-1.5,0.7-1.5l-0.4-0.7v-0.4l1.9-0.4
		v-0.7h-0.7c-0.2,0-1.1,0.7-2.6,2.2c-0.9-0.2-1.5-0.9-1.5-1.9h0.7v0.7c0.6-0.7,1.5-1.5,3-2.2c0-0.7,0.7-1.7,2.2-3
		c0.6,0.2,0.9,0.4,1.1,0.4c0.6-0.2,0.9-0.4,1.1-0.4v0.4C804.1,473.7,804.9,473.6,805.2,473.6z M772.1,510h0.7v1.5h-0.7V510z
		 M773.6,517.1v0.7h0.4c0.6-0.2,0.9-0.4,1.1-0.4v-0.4L773.6,517.1L773.6,517.1z M775,511.5v1.9h0.4v-1.9H775z M775.4,513.7v1.9h0.4
		v-1.9H775.4z M776.2,523.2c0.6,0,0.7,0.4,0.7,0.7v0.4h-0.7V523.2z M778.2,496.9h0.7v0.7h-0.7V496.9z M779.3,495.2h0.4v0.7h-0.4
		V495.2z M779.7,493.7h0.7v0.4c0,0.6-0.2,0.7-0.7,0.7V493.7z M779.7,525.8v0.4h0.7v-0.4H779.7z M784.1,487.8v0.4
		c0,0.4-0.4,0.7-1.1,1.1v-0.4C783,488.6,783.4,488.2,784.1,487.8z M785.2,489.7c0.6,0,0.7,0.4,0.7,0.7l-2.2,1.9v-0.4
		C784.3,490.4,784.9,489.7,785.2,489.7z M783.7,494.1h0.7v0.7h-0.7V494.1z M785.2,493h0.7v0.4h-0.7V493z M785.6,487.8h1.5v0.7
		c0,0.6-0.2,0.7-0.7,0.7h-0.7L785.6,487.8L785.6,487.8z M786,491.5c0.6,0,0.7,0.4,0.7,0.7c0,0.6-0.2,0.7-0.7,0.7
		c0-0.2-0.2-0.4-0.4-0.4C786,492.3,786,491.9,786,491.5z M788.4,490h0.4c0,0.6-0.7,0.9-2.2,1.5v-1.1h0.4l0.7,0.4
		C787.6,490.2,787.8,490,788.4,490z M787.8,488.2l1.5,0.4c0.6-0.2,0.9-0.4,1.1-0.4c0,0.4-0.4,0.7-1.1,1.1c-0.4-0.2-0.9-0.4-1.5-0.4
		V488.2z M789.1,484.9v0.7h-0.7C788.4,485,788.6,484.9,789.1,484.9z M794.3,479.5h0.4c1.3,0.6,1.9,1.1,1.9,1.5
		c-0.9,0-2.2,0.6-3.7,1.9l-0.7-0.4c-0.2,0.4-0.4,0.9-0.4,1.5l-1.1-0.7c0-0.4,1.3-1.5,3.7-3.3V479.5z M806.7,483.9h-1.1
		c0,0.7-1.3,1.1-3.7,1.5v0.7l0.7-0.4h0.4c0,0.2-0.6,0.7-1.9,1.9h0.7v0.4c-1.3,0-1.9,0.4-1.9,1.1h-1.1l-0.7-0.4l-0.4,0.7l0.7,0.4
		c0-0.2,0.2-0.4,0.4-0.4v0.4c-0.4,0-1.9,1.7-4.4,4.8c-0.6,0.7-1.3,1.1-1.9,1.1c0-0.2-0.2-0.4-0.4-0.4v0.4l0.7,1.1l-1.5,1.1l0.4,0.7
		v0.4c-0.7,0-1.1,0.4-1.1,1.1l0.7,0.4c0-0.4,1.1-0.7,3.3-1.1c2.6-3.3,4.6-4.8,6.1-4.8v0.4c0,0.6-0.4,0.7-1.1,0.7v0.7
		c3.5-3,5.4-4.4,5.6-4.4v1.1h0.4v-0.6c-0.2-0.6-0.4-0.9-0.4-1.1c0.6-0.6,1.1-0.7,1.5-0.7l-0.4-0.7c0.6-0.7,0.9-1.7,1.1-2.6v-0.4
		h-0.4v0.7h-0.4v-1.1c0-0.9,0.9-1.7,3-2.2v-0.4h-1.5v-0.7H808L806.7,483.9z M790.6,492.6c0.4,0,0.9-0.6,1.5-1.9v-0.4
		C791,490.6,790.6,491.3,790.6,492.6z M791,483.9h0.4v0.7H791V483.9z M791.7,493.4h0.7v-0.7C791.9,492.8,791.7,493,791.7,493.4z
		 M792.1,489.3v0.7h0.4c0.6,0,0.7-0.2,0.7-0.7v-0.4C792.6,489.1,792.3,489.3,792.1,489.3z M793.2,488.2v0.4h0.7v-0.4H793.2z
		 M793.6,488.9v0.7h0.4v-0.7H793.6z M801.9,480.6l-0.7-0.4h-0.7c0,0.7-0.6,1.5-1.9,1.9v1.1l-0.7-0.4c0,0.7-0.6,1.3-1.5,1.9
		c-0.9,1.5-1.7,2.2-2.2,2.2v0.7h2.2c0-1.3,0.9-2.2,2.6-3c0,0.9,0.4,1.5,1.1,1.5v0.4l-0.4,0.7h0.4c0-2,2.6-3.7,8-4.8v-1.1l-1.9,0.4
		c0-0.7-0.2-1.1-0.4-1.1h-1.1v-0.7C802.6,479.9,801.9,480.2,801.9,480.6z M797.6,498.4c0,0.6-0.6,0.9-1.9,1.1v0.4h0.4
		c1.1-0.6,1.7-0.9,1.9-1.5L797.6,498.4L797.6,498.4z M795.8,528.4v1.1h0.7v-1.1H795.8z M796.2,489.3v0.4h0.7v-0.4H796.2z M796.5,513
		c0,0.6,0.4,0.7,0.7,0.7l0.4-0.7H796.5z M796.9,486.7v0.4h0.7v-0.4H796.9z M796.9,490v0.4h0.7V490H796.9z M798,486.7v0.7
		c0.6,0,0.7-0.2,0.7-0.7H798z M801.2,535.2c0,0.4-0.6,0.9-1.5,1.5h-0.7v-1.1C798.9,535.6,799.9,535.4,801.2,535.2z M799.7,519.9h0.7
		v0.4h-0.7V519.9z M800,533v0.7h0.4V533H800z M800.4,477.6v0.7h0.4v-0.7H800.4z M800.4,521h0.7v0.4h-0.7V521z M801.2,527.3v0.4h0.7
		v-0.4H801.2z M803.7,495.2c0,0.4-0.2,0.9-0.7,1.5h0.4c0.4,0,0.7-0.4,1.1-1.1v-0.4L803.7,495.2L803.7,495.2z M803.7,520.2h0.4
		c-0.2,0.6-0.4,0.9-0.4,1.1H803V521C803,520.4,803.2,520.2,803.7,520.2z M804.9,490v0.4c0,0.6-0.2,0.7-0.7,0.7h-0.4
		C803.7,490.8,804.1,490.4,804.9,490z M806.7,487.8v0.4c0,0.6-0.2,0.7-0.7,0.7v-0.4C806,488,806.3,487.8,806.7,487.8z M806.3,473.9
		v0.4h0.7v-0.4L806.3,473.9L806.3,473.9z M806.3,479.9v0.4h0.7v-0.4H806.3z M806.7,492.6v0.7h0.4v-0.7H806.7z M807.5,488.2v1.1h0.4
		v-1.1H807.5z M807.5,490.8c0,0.6,0.4,0.7,0.7,0.7v-0.7H807.5z M808.6,488.6c0,0.7-0.2,1.1-0.4,1.1c0.2,0.6,0.4,0.9,0.4,1.1h0.4
		c0-0.7,0.4-1.5,1.1-2.2H808.6z M810.4,518.4c0,0.4-0.4,0.7-1.1,1.1h-0.7C808.6,518.9,809.3,518.6,810.4,518.4z M809.7,486.7
		l-0.4,1.5c0.6,0,0.7-0.4,0.7-1.1v-0.4L809.7,486.7L809.7,486.7z M816.9,514.9v0.4l-1.1,1.9c0.2,0,0.4,0.2,0.4,0.4
		c-1.3,0-3.1,0.9-5.2,3c-0.6-0.2-0.9-0.4-1.1-0.4v-0.7c0.9,0,2.6-0.9,4.8-2.6h0.4v-0.4l-0.4-0.7c0.2,0,0.4-0.2,0.4-0.4l0.7,0.4
		L816.9,514.9z M810.4,482.8v0.4h0.7v-0.4H810.4z M811.3,505.4h0.4v0.7h-0.4V505.4z M811.7,486.7c0.2,0,0.6,0.2,1.1,0.4V486h-0.4
		C811.9,486,811.7,486.1,811.7,486.7z M812.8,496.9c0,0.7-0.4,1.1-1.1,1.1v0.7h0.4c0.4,0,0.9-0.6,1.5-1.9H812.8z M813.6,503.9h0.4
		v0.7c-0.4,0-0.9,0.2-1.5,0.7h-0.4v-0.7C812.5,504.7,812.8,504.5,813.6,503.9z M813.6,482.1v0.4l0.4,2.2l0.7-0.4h0.4v1.1h0.7
		c0-0.6-0.6-1.7-1.9-3.3L813.6,482.1L813.6,482.1z M813.9,487.1l0.4,0.7c-0.6,1.7-0.7,2.8-0.7,3c1.5-2,2.2-3.3,2.2-4.1v-0.4H815
		L813.9,487.1z M813.6,523.6v0.7c0.6,0,0.7-0.2,0.7-0.7H813.6z M813.9,485.6v0.7h0.4v-0.7H813.9z M816.2,491.9
		c0,0.6-0.7,1.9-2.2,3.7v1.1h0.4c0-0.4,0.9-1.5,2.6-3.7c-0.2-0.6-0.4-0.9-0.4-1.1H816.2z M813.9,497.6v0.7h0.4v-0.7H813.9z
		 M816.5,485.6c0.6,1.3,0.7,2.2,0.7,3c0.6,0,0.7-0.2,0.7-0.7v-0.4l-0.7-1.1V486l0.4-0.7h-0.4L816.5,485.6z M816.5,488.6v0.7h0.4
		v-0.7H816.5z M816.5,498h0.7v0.4h-0.7V498z M816.9,516h0.7v0.7h-0.7V516z M819.9,493h0.4c-0.9,1.7-1.5,2.6-1.9,2.6v-0.7
		C818.9,493.7,819.5,493.2,819.9,493z M819.9,488.2h0.7v1.1h-0.7V488.2z M824.5,518.7v0.4c0,0.6-0.2,0.7-0.7,0.7v-0.4
		C823.7,518.9,823.9,518.7,824.5,518.7z"/>
	<path fill="#FFFFFF" d="M878.4,474.9c0.4,1.5,1.1,2.6,2,3c0-1.1,0.4-1.7,1.1-1.7h0.4l-0.7,1.9c0.6,0,0.7,0.4,0.7,1.1l1.1-0.9h1.1
		v0.4l-1.1,1.9v0.4h0.7c0-1.3,0.4-1.9,1.1-2h0.4l0.2,0.4l-0.4,0.7h0.4c0.4-0.2,0.9-0.4,1.5-0.6c0,0.4-0.6,2.2-1.7,5.7
		c0.6,1.1,0.7,2.2,0.9,3.3h-0.4l0.6,0.7l-2,5.4l0.7,0.4v0.6c0,1.1-0.4,1.7-0.9,1.9l0.4,0.7v0.9c0,0.2-0.2,0.4-0.4,0.4l0.4,0.7v0.4
		c0,1.1-0.4,1.7-1.1,1.7l0.4,0.7l0.2,0.7c0,0.6-0.2,0.7-0.7,0.7c0-0.2-0.2-0.4-0.4-0.4h-0.2c0,0.4-0.2,1.1-0.7,1.9h0.4l0.7-0.6v0.7
		c-0.6,3.9-0.9,5.7-1.3,5.7l0.4,0.7l-0.7,1.1h0.7l-0.4,0.7c0,0.2,0.2,0.4,0.4,0.4c-0.4,0.9-0.6,1.7-0.6,2.4v0.4h0.4l-0.4,0.7
		l0.2,4.4h0c-0.6,0-0.7-0.9-0.9-2.6h-0.4l0.2,3.7l0.7-0.4l0.4-0.2v0.4l0.6,3.7l-0.9-0.4l0.2,0.4c0,0.6,0.9,1.5,2.4,2.6
		c0.6,1.3,0.9,2.2,0.9,2.6c-0.4,0-0.7,0.2-0.7,0.6v0.2c-1.9,0-2.8-0.2-2.8-0.6l-0.7,0.4c-1.7-1.1-3.1-1.7-4.1-1.7h-0.2
		c0,0.6-0.2,0.7-0.7,0.7h-0.4c-0.9,0-1.5-0.2-1.5-0.7c-0.9,0.2-1.5,0.6-1.5,0.9c-0.4,0-1.5-0.9-3.5-2.8l-0.7,0.4h-0.4
		c0-0.6-0.9-1.9-2.6-4.3l0.4-2h-0.2c-0.7,0-1.1-0.9-1.3-2.6l-0.2-1.5l0.4-2.2l-0.4-0.7l0.4-2.2l-0.2-1.9h0.7v-0.7h-0.7l-0.2-1.1h0.7
		v0.7l0.4-0.2v-1.5l-0.7,0.2c0.4-0.7,0.9-3.1,1.5-7.6c3.3-17.8,6.7-26.7,9.6-26.9l0.7,0.4L878.4,474.9z M865.6,525.2v0.4h0.7v-0.4
		H865.6z M868.6,528.4v0.7h0.4v-0.7H868.6z M876.3,503.6l0.7-0.2v-0.7C876.5,502.8,876.3,503.2,876.3,503.6z M878.6,495.2l0.2,0.7
		l0.4-0.2l-0.2-0.7L878.6,495.2z M878.9,494.3h0.4l0.4-1.9c-0.4,0-0.7,0.4-0.7,0.9L878.9,494.3L878.9,494.3z M879.5,491.3l0.2,0.7
		h0.4l-0.2-0.7H879.5z M880.8,487.1v0.2c0,0.6-0.4,1.7-0.9,3v0.4h0.4l1.1-3.1l-0.2-0.4H880.8z M887.1,435.2l2.2,2.2l0.2-0.6h0.6
		c3.7,2.8,5.6,5.2,5.6,7.4c0,0.2,0,0.4-0.2,0.6c0.2,0,0.2,0.4,0.2,0.7v0.6l-0.2,0.4c-1.5,4.1-2.2,6.5-2.2,7c0.2,0,0.2,0,0.2,0.2v0.2
		c-0.4,0-0.6,0.2-0.6,0.6c0,0.2,0.2,0.6,0.2,0.7v0.2c-0.4,0-1.3,2-2.4,6.1c-0.6,0.7-1.5,1.5-2.8,2V463c0-0.2-0.2-0.4-0.6-0.4
		c-0.2,0.7-0.4,1.3-0.6,1.3h-0.4c-0.4,0-0.7-0.6-0.7-1.3v-0.4l-0.6,0.2V460l-0.6-0.2l0.2,0.6l-0.4,1.7c0,0.4-0.2,0.6-0.4,0.6h-0.2
		l-0.4-0.2c-0.4,0-0.7-1.1-0.9-3.1l-0.6-0.4l-0.2,1.1h-0.4c-0.6-0.2-0.9-0.7-0.9-1.9c0-0.4,0-0.7,0.2-1.3l-0.6,0.2l-0.4-0.9
		c0-0.2,0-0.2,0.2-0.2h0.2l-0.2-0.7l0.4-3l0.2-2.8l0.6,0.2l0.2-1.5l0.4,0.2l-0.2-1.5c0.9-3.5,1.5-5.2,2-5.2l-0.2-0.6v-0.4h0.6
		l0.2-1.7c0-0.2,0.2-0.4,0.4-0.4c0-0.2-0.2-0.2-0.4-0.4c0.7-2.2,1.3-3.3,1.7-3.3l0.6,0.4C886.5,435.4,886.7,435.2,887.1,435.2
		L887.1,435.2z M880.8,515.8v1.1h0.4v-1.1H880.8z M882.1,483.4l0.2,0.4l0.7-0.2l-0.2-1.1C882.5,482.6,882.1,483,882.1,483.4z
		 M882.1,506.3v1.1h0.4v-1.1H882.1z M882.6,457.8l-0.2,0.6l0.6,0.2l0.2-0.6h-0.6V457.8z M882.8,456.1c0.2,0.4,0.2,0.7,0.2,0.9
		l0.4,0.2l0.2-0.9L882.8,456.1z M882.8,481.3v0.7h0.4v-0.7H882.8z M883,455.4v0.4l0.6,0.2v-0.4L883,455.4z M883,478.7l0.2,0.7h0.4
		l-0.2-0.7H883z M884.3,488.2l0.7-0.2l-0.2-0.7C884.5,487.4,884.3,487.6,884.3,488.2z M885.6,485h0.4l0.2,0.7h-0.4L885.6,485z
		 M886.3,483.2l0.4-0.2l0.2,0.7l-0.4,0.2L886.3,483.2z"/>
	<path fill="#FFFFFF" d="M922.3,476.1l4.4,3.3l-0.4,0.9v0.4c0.7,0,1.5,1.3,2,3.7c0.9,0,1.5,0.9,1.7,3c-0.6,0-0.7,0.4-0.7,0.9
		l1.7,0.7l-0.4,0.9l0.9,1.3v1.7c-1.7,1.1-3.7,1.7-5.9,1.7h-2.8c-0.4,0-0.6-0.2-0.6-0.4c-1.1,0.6-5.2,1.5-12.4,2.8
		c9.1,4.8,16.1,8.7,20.6,11.7c5,5,7.8,8.7,8.1,11.1c0.4,0,1.5,2.2,3,6.7H941c0.4,0.6,0.6,0.9,0.6,1.3c-0.4,0.7-0.6,1.3-0.9,1.3
		l0.4,2v0.7c0,1.3-0.7,2.6-2,3.7h-1.3v0.4h-1.3V535h-0.7l0.4,0.9v0.4c0,0.6-0.4,0.9-0.9,0.9h-0.9l-0.7-0.4c0,1.3-1.9,2.4-5.4,3.3
		c3-2.6,4.4-4.3,4.4-5.4l-1.7,1.3h-0.9v-1.3c0.6,0,1.9-0.7,3.7-2v-0.4h-0.4l-3,1.7h-0.4v-0.9h-0.6c0,0.9-0.4,1.3-1.3,1.3
		c0-0.4-0.2-0.6-0.4-0.6l-0.4,0.9c0.2,0,0.7,0.2,1.3,0.4c0-0.2,0.2-0.4,0.4-0.4v0.4c0,1.1-1.3,1.7-3.7,1.7v0.4h1.3v0.9
		c-2.6,1.3-4.4,2-5.4,2v-1.3h-0.9v0.9h-0.4v-1.3c0.6,0,0.9-0.4,0.9-0.9h-0.6c0,0.4-0.6,0.9-1.7,1.7v-0.9H918v0.4
		c0.6,0.9,0.9,1.7,0.9,2H918l-0.7-0.4v0.9h-0.6V540c0.6,0,0.9-0.2,0.9-0.7v-0.4h-0.4c-1.3,0.9-2,1.7-2,2l-0.9-0.4
		c-0.2,0.6-0.4,0.9-0.4,1.3h-0.6V541h-0.7c0,0.7-0.6,1.5-1.7,2l-2.4-0.4c-0.2,1.1-0.6,1.7-0.9,1.7l0,0c0,0.2-0.2,0.4-0.4,0.4l-3-0.4
		c-1.1,0.4-1.7,0.9-1.7,1.3h0.9v0.6l-1.3,1.7l-0.7-0.4l-1.3,0.7h-0.9v-0.4l0.9-1.3v-0.9h-0.6l-1.7,1.3l-0.9-0.4
		c0,0.6-0.4,0.9-0.9,0.9l-1.7-0.6c-0.9,0.6-1.5,0.9-2,0.9l0.9,1.3c0.7,0,1.3-0.4,1.3-1.3h0.4c0.4,0,0.6,0.2,0.6,0.4l0.7-0.4
		c0.4,0,0.6,0.2,0.6,0.4l0.7-0.4l0.9,0.4c0-0.2,0.2-0.4,0.4-0.4l0.6,0.9c-0.4,0-0.9,0.7-1.7,2h-0.4v-0.9h-1.7l-2,0.4
		c-0.7-0.9-1.3-1.7-1.3-2.4h-0.6c0,0.4-0.2,0.7-0.4,1.3h0.9v0.6c0,0.6-0.6,0.7-1.7,0.7v0.6c0,0.6,0.4,0.7,0.9,0.7
		c0-0.6,0.4-0.7,0.9-0.7c0.6,0.2,0.9,0.4,1.3,0.4v0.9c-0.4,0-0.7,0.2-1.3,0.4l-0.9-0.4c-1.3,0.4-2,0.7-2,1.3h0.4
		c0.6-0.4,0.9-0.6,1.3-0.6v0.6c1.9-0.7,4.1-1.3,6.7-1.3l-0.7,1.3l0.7,0.4c0.7-1.7,1.3-2.4,1.7-2.4l0.4,0.9c-0.6,0-0.9,0.4-0.9,0.7
		h0.9l0.9-0.4c0.6,0.2,0.9,0.4,1.3,0.4v0.9l-2,0.6v-0.6l-2.8,1.3l-0.6-0.7l-4.1,1.7v0.4h0.7v0.9l-2,0.6l-2.4-0.6
		c-0.2,0-0.4,0.2-0.4,0.6l-2-0.6h-2v-0.4l0.6-0.9c-1.3,0-2-0.4-2-0.9c0.2,0,0.4-0.2,0.4-0.4l0.9,0.4c0.6,0,0.9-0.2,0.9-0.7v-0.9
		l-1.7-0.6l-0.4,0.9c-1.1-0.2-1.7-0.7-1.7-1.7l-0.7,0.4h-0.6c0-0.6-0.6-0.9-1.7-0.9c0-0.6,0.4-0.7,0.7-0.7c0,0.2,0.2,0.4,0.6,0.4
		l0.4-0.9c0-0.4-1.3-1.3-3.7-2.8c-0.4-0.6-0.6-0.9-0.6-1.3l0.6-0.9V545h-0.6v0.9h-0.7V545l0.4-0.7c-0.4,0-0.7-0.4-1.3-1.3l0.4-0.9
		c2.4,0.2,3.9,0.7,4.4,1.3h3.7l2.4-0.4l0.9,0.4l16.9-4.8h1.3c0-0.4,4.4-2.4,13.1-6.3c6.1-3.3,10.7-7,13.9-11.1v-0.4
		c-2.2-1.3-4.6-2.6-7.4-3.7l-0.9,0.6c-12.6-5-20-9.1-22.6-12.4c0.2,0,0.4-0.2,0.4-0.6c-1.5,0-2.6-1.3-3.3-3.7
		c-0.7,0-1.3-1.5-1.7-4.4c-1.1-1.1-1.7-2.4-1.7-3.7v-0.6h0.9V491c-0.9-0.7-1.5-2.2-2-4.4c0.2-1.1,0.7-1.7,1.7-1.7
		c-0.2-0.6-0.4-0.9-0.4-1.3l0.4-0.9c-0.2-0.6-0.4-0.9-0.4-1.3l0.9,0.4c0-1.1,1.5-1.7,4.4-1.7v0.7h0.4c0.6,0,0.9-0.2,0.9-0.7
		c-0.7,0-1.3-0.4-1.3-0.9c1.5-0.2,3-0.4,4.1-0.4c0,0.6,0.4,0.7,0.7,0.7v-0.4l-0.4-0.9c0.7,0,1.3-0.4,2-0.9h0.4
		c0.2,0,0.4,0.2,0.4,0.6l6.3-1.3v0.4C913.9,476.9,917.1,476.3,922.3,476.1z M877.1,547.3v0.4h0.9v-0.4H877.1z M878.8,544.7h1.3v-0.7
		h-0.6C879.1,544.1,878.8,544.3,878.8,544.7z M879.3,547.3v0.4h0.9v-0.4H879.3z M880.4,544.3v0.9c1.3,0,2,0.4,2,0.9h0.7
		c0-0.9,0.4-1.3,1.3-1.3v-0.4c-1.9,0-3-0.2-3-0.4C881.2,544.3,880.8,544.3,880.4,544.3z M881.3,545.6l-0.6,1.7h1.3l-0.4-0.9
		c0.2,0,0.4-0.2,0.4-0.4L881.3,545.6z M880.8,549.7v0.9h0.6v-0.9H880.8z M881.3,548.6v0.4h0.7v-0.4H881.3z M882.5,549.7v0.9h0.7
		C883.2,550,883,549.7,882.5,549.7z M883.2,548.6v0.9c1.1,0,1.7,0.2,1.7,0.7h0.9l0.7-0.4c-0.2-0.6-0.4-0.9-0.4-1.3l-2,0.4
		L883.2,548.6z M889.5,550.6h-1.3l-5,0.4v0.4c1.7,0,2.6,0.4,2.6,1.3c3-0.9,4.4-1.7,4.4-2V550L889.5,550.6z M883.8,546v0.4h1.3V546
		H883.8z M884.7,543.6v0.6h0.7v-0.6H884.7z M885.1,544.3v0.9h0.4v-0.9H885.1z M885.4,553v0.9h0.6V553H885.4z M886.5,543.9
		c0,1.1-0.2,2.2-0.4,3.3h0.4c1.3,0,2-0.4,2-1.3h0.6v1.3c2.2-0.9,3.3-1.7,3.3-2c-0.6,0-0.9-0.2-0.9-0.6l-0.9,0.6h-2v-0.6h0.9v-0.4
		h-1.3c0,0.2-0.2,0.4-0.4,0.4l0.4,0.9c0,0.6-0.4,0.9-0.9,0.9c0-0.2-0.2-0.9-0.4-2.4h-0.4V543.9z M886.2,553.9v0.4
		c0.4,0,0.7,0.2,1.3,0.4h0.6v-0.4c-0.4,0-0.7-0.2-1.3-0.4H886.2z M886.5,557.4h0.6v0.9h-0.6V557.4z M887.8,543.6v0.6h0.7v-0.6H887.8
		z M888.2,548v0.6c0.2,0.6,0.4,0.9,0.4,1.3h0.6v-1.7h-0.9V548z M888.6,558h1.3v0.9h-0.4C888.9,558.7,888.6,558.6,888.6,558z
		 M889.1,543.2v0.9h0.4v-0.9H889.1z M889.5,548.9h0.9V548C889.7,548.2,889.5,548.4,889.5,548.9z M892.5,541.9c0,0.6-0.6,0.9-1.7,0.9
		v0.7c0.2,0,0.9,0.2,2.4,0.6c0-0.6-0.2-0.9-0.7-0.9l0.4-0.9v-0.4L892.5,541.9L892.5,541.9z M890.8,548.6v0.9h0.4v-0.9H890.8z
		 M892.8,546v0.7h0.4V546H892.8z M898.2,541.5v0.7h-0.6c-0.2,0-0.4-0.2-0.4-0.4c-2,0.4-3,0.7-3,1.3v0.4l2.6-0.7l0.4,0.7v0.6
		c-0.6,0-0.9,0.2-0.9,0.4c-0.2,0-0.4-0.2-0.4-0.4l-2.4,0.4l0.4,0.9l1.7-0.9l0.4,0.9c-0.4,0.2-1.3,0.4-2.4,0.4v0.9l6.1-1.3v-0.9
		l-2,0.4v-0.7h1.3v-0.6h-0.7c0-0.6,0.2-1.1,0.4-1.7v-0.4L898.2,541.5L898.2,541.5z M893.6,541.9v0.9h0.4v-0.9H893.6z M893.9,487.3
		v0.9h0.9v-0.9H893.9z M893.9,555.4h2v0.4l-2,0.6V555.4z M894.9,552.6v0.6h0.9v-0.6H894.9z M895.2,549.3h0.9v-0.9
		C895.4,548.6,895.2,548.9,895.2,549.3z M895.8,541.2v0.6h0.7v-0.6H895.8z M896.5,548.6v0.9c0.6-0.4,1.1-0.6,1.7-0.6v-0.4H896.5z
		 M898.2,540.2v0.6h0.7v-0.6H898.2z M924.1,533.2l-0.9-0.4c-1.1,0.9-3.3,2.2-6.7,3.7c0.4,0.6,0.6,0.9,0.6,1.3h-0.6l-2-0.9
		c-0.6,1.1-1.3,1.7-2.4,1.7l0.6,0.9l-0.9,0.4h-0.4v-0.9h-0.6c0,1.1-1.9,2.2-5.7,3.3c-1.3,0-2-0.2-2-0.7c-0.6,0.2-0.9,0.4-1.3,0.4
		h-0.4v-0.4c1.9-0.7,2.8-1.3,2.8-1.7l-4.4,1.3v0.6l0.9,1.3c-0.2,0-0.4,0.2-0.4,0.4l0.7,0.4V543h0.6c0.2,0,0.4,0.2,0.4,0.4l0.9-0.4
		c1.3,0,2,0.4,2,0.7c1.5,0,4.1-0.9,7.4-2.8c0,0.2,0.2,0.4,0.6,0.4c0-0.4,0.9-0.9,2.8-1.7c0.6,0.2,0.9,0.4,1.3,0.4l-0.4-0.9
		c1.5-0.6,2.6-1.1,3.7-2c0,0.4,0.2,0.6,0.6,0.6c0-0.4,2.4-1.9,7.4-4.4c0.7-1.3,1.3-2,1.7-2c0,0.2,0.2,0.4,0.4,0.4l0.4-0.7l-0.7-0.6
		h-0.6C925.6,530.6,924.1,531.7,924.1,533.2z M900.2,544.7h0.7c0.6,0,0.9-0.2,0.9-0.7v-0.6C900.8,543.9,900.2,544.3,900.2,544.7z
		 M901,545.6v0.6h0.9v-0.6H901z M901.9,548.6c0.6,0,0.9,0.4,0.9,0.9h-0.9V548.6z M901.9,552.3h1.3v0.4h-1.3V552.3z M902.3,538.9v0.6
		h0.9v-0.6H902.3z M902.3,543.6v0.9h0.6v-0.9H902.3z M904.7,539.5v0.4h1.3l0.4-0.9H906C905.4,539.3,905.1,539.5,904.7,539.5z
		 M906.3,537.4v0.4h2v-0.9L906.3,537.4z M911.7,543.9v0.4c0,0.6-0.9,1.1-3,1.3C909.3,544.5,910.2,543.9,911.7,543.9z M909.3,536.9
		v1.3h0.4c0.6,0,0.9-0.4,0.9-0.9C910.2,537.4,909.7,537.3,909.3,536.9z M912.1,536.5v0.9h0.6c0.6,0,0.7-0.4,0.7-0.9v-0.4
		C912.8,536.3,912.5,536.5,912.1,536.5z M912.6,543.6h1.3c0,0.6-0.4,0.9-0.9,0.9h-0.4V543.6z M913.8,543.2h0.7v0.4h-0.7V543.2z
		 M915.4,533.7c0.2,0.6,0.4,0.7,0.9,0.7l-0.4,0.9v0.4h0.7v-2H915.4z M916.2,541.9h0.9c0,0.6-0.4,0.9-0.9,0.9V541.9z M918.8,542.8
		h0.4c1.3,0.6,2,1.1,2,1.3l2.6-1.3c1.9,0,2.8,0.2,2.8,0.7c-0.2,0.6-0.4,0.9-0.4,1.3l-0.9-0.4c0,0.2-0.2,0.4-0.4,0.4l-0.6-1.7
		c-0.7,0.6-2,1.1-4.1,1.7v0.6h1.3c0.6-0.4,0.9-0.6,1.3-0.6v0.9l-1.7,0.6c0-0.4-0.2-0.6-0.4-0.6c0,1.7-0.4,2.4-1.3,2.4v-0.4
		c0.2-0.6,0.4-1.1,0.4-1.7l-1.3,0.7h-1.3v0.6h-0.4l-0.9-0.6c0.2-0.4,0.4-0.9,0.4-1.7l1.3,0.9c0.6-0.4,0.9-0.6,1.3-0.6v-0.4l-0.4-0.9
		c0.6,0,0.9-0.4,0.9-0.9h-0.7V542.8z M917.5,533.7l-0.4,0.7l0.7,0.6l0.6-0.9L917.5,533.7z M918.8,533.2v1.3h0.4v-1.3H918.8z
		 M920.8,541.5h0.4c0,0.6-0.2,0.7-0.7,0.7h-0.6C920.1,541.7,920.2,541.5,920.8,541.5z M922.3,536.9v0.6h1.3l0.4-0.9h-0.4
		C923,536.7,922.6,536.9,922.3,536.9z M922.3,538.2v0.4h0.9v-0.4H922.3z M924.1,537.4v0.9h0.4v-0.9H924.1z M924.9,541.9h0.7v0.4
		h-0.7V541.9z M925.2,536.5v0.9h0.4v-0.9H925.2z M925.6,541.5h0.9v0.4h-0.9V541.5z M926.9,534.5v0.6h1.3v-0.6H926.9z M927.6,542.8
		h0.6c0,0.6-0.4,0.7-0.9,0.7h-0.6C926.9,543,927.3,542.8,927.6,542.8z M928.9,536.9h0.6c0,0.6-0.4,0.9-0.9,0.9h-0.4
		C928.2,537.3,928.6,536.9,928.9,536.9z M928.6,541.9h0.9v0.4h-0.9V541.9z M930.2,529.1v0.6h0.9v-0.6H930.2z M930.6,527.8v0.6h0.9
		v-0.6H930.6z M931.9,528.4v0.7h0.4v-0.7H931.9z M933.4,533.7v0.4h0.6c0.6-0.2,1.1-0.7,1.7-2h-0.4
		C934.7,532.1,934.1,532.6,933.4,533.7z M934.3,537.4h0.9v0.9h-0.9V537.4z M936.4,532.1v0.9h0.4v-0.9H936.4z M937.6,536.2h0.4v0.7
		h-0.4V536.2z"/>
	<path fill="#FFFFFF" d="M1025.4,451.5h1.1l-0.4,0.9v0.7h2.4v-0.7h-1.7v-0.9h1.3c1.5,0,4.6,1.1,9.1,3.1h0.4l-0.7-1.1h0.7l1.7,1.5
		l-0.4,0.9v0.4h0.4v-0.7h0.6l1.1,0.7h0.4l-0.7-1.3v-0.4h0.4c1.9,1.9,3,2.8,3.1,2.8l-0.4,0.7c1.7,0,4.3,4.1,7.6,12.4
		c1.1,2.8,2.2,6.1,3.1,10l-0.4,0.7l0.4,2.4v0.4c0,0.2-0.2,0.4-0.4,0.4l0.4,0.7c0,1.1-0.9,3-2.8,5.2c0,0.4-0.2,0.9-0.7,1.7
		c0.2,0,0.4,0.2,0.4,0.4c-0.4,0-1.3,1.5-2.4,4.4h-0.9V496l0.9-1.1v-0.4h-0.4c-0.6,0.2-0.9,0.4-1.3,0.4c0-0.2-0.2-0.4-0.4-0.4
		c0,0.2-0.7,1.1-2.4,2.8v0.4l0.9-0.4h0.4c0,1.1,0.2,1.7,0.7,1.7v0.7l-1.7,0.6v-0.9l0.6-0.7h-0.6l-0.7,0.4c0-0.7-0.2-1.3-0.7-1.3
		c0,0.7-0.4,1.3-1.3,1.3v0.4l1.3,2l-0.9,0.6h-0.4l-0.4-2c-3.5,2.2-5.2,3.9-5.2,4.8h-2.4v0.9h-0.7c0-1.3-0.4-2-1.3-2
		c-0.6,1.1-1.3,1.7-2.4,1.7c0-0.6-0.2-0.7-0.7-0.7c0,0.6-0.4,0.7-1.3,0.7l0.4,0.9v0.4h-0.7v-0.7c-0.6,0.2-1.1,0.4-1.7,0.4v0.7h1.1
		c0,0.6-0.4,0.9-1.1,0.9v0.4c0.7,0,1.1,0.2,1.1,0.4c0,1.7-2,2.8-5.9,3.1v-0.4l0.4-0.9h-0.4c-0.6,0.2-0.9,0.4-1.3,0.4V510h0.9
		c0.6,0,1.9-0.2,3.5-0.7v-0.9l-1.3,0.9c-0.2,0-0.4-0.2-0.4-0.6c-1.1,0.6-1.9,0.9-2.4,0.9h-0.6v-0.4c3.1-1.3,5-2,5.6-2l-0.6-2h1.7
		v-0.7l-0.4-0.9c-2.6,0.9-3.9,1.7-3.9,2c0.2,0,0.4,0.2,0.4,0.4h-0.7V505l0.4-0.7c-0.7,0-1.3-0.4-1.3-1.3h-0.7v0.4l0.4,0.9
		c-0.2,0-0.4,0.2-0.4,0.4h0.7v0.4c-1.3,0.9-5.2,2-12,3.1v0.4h2.4v0.9l-0.9-0.4h-0.4c0,0.7-0.7,1.1-2.4,1.1v-0.4l0.4-1.7
		c-0.4,0.2-0.9,0.4-1.7,0.4v0.9c0,0.2,0.2,0.4,0.4,0.4l-0.4,0.7l0.4,0.9l0.9-0.4c0.6,0,0.7,0.4,0.7,0.7v1.3h-0.2v-0.4l0.4-0.9h-1.3
		c0,3.7-1.5,8.1-4.3,13.5c-1.5,4.1-3.1,7.2-5.2,9.4c0,1.1-0.7,2.8-2.4,5.2c0,1.9-0.6,3-1.7,3.5c-0.6-0.9-0.7-2.2-0.7-3.5h-0.4
		l-0.9,0.4c-0.7-0.7-1.1-1.3-1.1-2h-0.6v1.7h-0.7v-0.4c0-0.2,0.2-0.4,0.4-0.4c-0.2-0.4-0.4-1.3-0.4-2.4l-0.7,0.4l-0.9-1.1v-0.9
		c0-0.2,0.2-0.4,0.4-0.4c-0.2-0.6-0.6-2-0.7-4.3c1.1-5.7,2.8-12.8,5.2-21.5c-0.2,0-0.4-0.2-0.4-0.6h0.7l-0.4-0.7l0.4-0.9l-2.4-2.8
		l-0.6-0.9c0.2-0.7,0.7-1.3,1.7-1.5v1.5c0.6,0,0.9-0.2,0.9-0.7v-2h0.7c0,0.6,0.2,0.7,0.4,0.7c1.3,0,2.2-2.4,2.8-7.2h0.7
		c0.7,0,1.3,0.6,1.3,1.7l0.9-0.4v1.7h0.4l0.7-0.4c1.3,2,2,3.5,2,4.6h0.6c0-0.7,0.4-1.1,1.1-1.1c1.9,0.6,2.8,1.1,2.8,1.7h-1.7v-0.6
		h-1.7c0.6,1.7,1.1,2.4,1.7,2.4h0.4l2.8-0.6v-0.4h-0.9v-0.7h1.3c0-0.6-0.6-0.9-1.7-0.9l0.4-0.7l0.9,0.4h0.7l-0.4-0.7
		c0.6,0,0.7-0.4,0.7-0.9h0.9v0.4l-0.4,0.9c0.2,0,0.4,0.2,0.4,0.4c-0.7,0.2-1.3,0.7-1.7,2h2.8v0.9c-0.7,0-2.2,0.2-4.8,0.7
		c0-0.2-0.2-0.4-0.4-0.4v0.7h2.4l0.7,0.6c0-0.4,0.2-0.6,0.6-0.6c0,0.4,0.2,0.6,0.4,0.6c0-0.6,3.1-1.7,9.1-3.1v-0.4
		c0.2,0,0.4,0.2,0.4,0.4c0.9,0,2.6-0.7,4.8-2c0,0.2,0.2,0.4,0.4,0.4c6.9-5,10.4-8.1,10.4-9.4h-0.4c-1.3,0.7-2,1.1-2,1.5
		c0.2,0,0.4,0.2,0.4,0.6c-1.5,0.7-2.6,1.1-3.1,1.1l0.4,0.9h-0.2c-0.2,0-0.4-0.2-0.4-0.4l-2,0.7c0-0.2-0.2-0.4-0.6-0.4v0.4l0.6,0.7
		l0.7-0.4h0.4v0.9l-6.7,2.4v-0.7c3-1.1,4.6-2,4.6-2.8v-0.4h-0.4l-2,1.1h-0.4l-0.9-0.4c0,1.1-1.3,1.9-3.9,2.4v0.4l-0.7-0.4
		c-0.7,0.7-2,1.1-4.1,1.5v-2c2.2-0.6,4.3-1.1,6.5-2c0.2,0.6,0.4,0.9,0.4,1.3h0.9l-0.6-2c4.4-1.3,10.2-5.2,17.2-12
		c3-3.9,4.3-7,4.3-9.4c-0.2-0.7-0.7-1.3-1.7-1.7v0.4c-1.3-0.4-2-0.7-2-1.3c0.4,0,0.6-0.2,0.6-0.4c-1.5,0-3.1-0.7-5.2-2v0.4
		c-2-0.6-5.7-1.1-11.1-1.7c-3.1,0-9.6,1.7-19.4,4.8l-12.8,8.3c-1.1,0-2,0.7-3.1,2.4c0-0.2-0.2-0.4-0.6-0.4c0,0.6-0.7,1.3-2.4,2h-0.4
		v-0.4l0.4-0.9h-0.4c-1.3,0.4-2,0.9-2,2c-3.1-4.3-4.8-6.9-4.8-8c1.1-2.2,1.7-3.9,1.7-4.8h0.4l0.9,0.4c3.1-3,7.6-6.1,13.5-9.8v-0.4
		h-0.4c-0.6,0.2-0.9,0.4-1.3,0.4c3.1-3,6.1-4.4,8.7-4.4v0.9c0.6,0,0.9-0.4,0.9-0.9h-0.9c4.1-2.4,7.6-3.5,10.7-3.5v0.9h-1.1v0.4h1.5
		v0.9h-1.1l-2-0.6v0.9h-0.9v-0.9c-2.2,0.4-3.1,0.9-3.1,1.7h0.6c1.1-0.6,2-0.7,2.8-0.7c0,0.6-1.5,1.1-4.6,1.7l0.4,0.7v0.4h-0.9
		c-0.2,0-0.4-0.2-0.4-0.4l-0.7,0.4c-0.4,0-0.6-0.2-0.6-0.4c-3.7,2.4-6.3,3.9-8,4.4l0.4,0.7v0.4c-0.9,0.2-1.5,0.4-1.7,0.4
		c0-0.2-0.2-0.4-0.4-0.4c0,0.6-1.5,2-4.3,4.4v0.4h0.7c0-0.7,0.2-1.3,0.7-1.3l0.9,0.4c2.6-2.6,4.8-3.9,6.9-3.9v0.4h0.4v-0.7
		c-0.2,0-0.4-0.2-0.4-0.4c2.2-1.7,6.5-3.5,12.8-5.6c0-0.6,0.4-0.9,0.7-0.9l0.9,0.4c1.9-0.7,3-1.1,3.1-1.1c1.5,0.2,2.4,0.4,3.1,0.4
		c0.2,0,0.7-0.2,1.7-0.4l-0.4-0.9c0.2,0,0.4-0.2,0.4-0.4c-0.6,0-0.7-0.2-0.7-0.7h0.4l0.7,0.4c0-0.4,0.2-0.7,0.6-1.3h-2l0.4,0.9
		c-0.7,0-1.3,0.4-1.3,1.1l-2.4-0.4V456c0-0.2,0.2-0.4,0.4-0.4l-0.4-0.9v-0.4c0.7,0,1.7-0.2,2.8-0.4v0.4l0.9-0.4
		c2.4,0.2,3.7,0.4,4.3,0.4c0,0.7-0.6,1.3-1.7,1.3v0.4c0.4,0,0.7,0.2,1.3,0.4c0.2,0,0.4-0.2,0.4-0.4l2,0.4c0.6,0,1.1-0.2,1.7-0.4
		c0.6,0.2,0.9,0.4,1.3,0.4h0.7V456c-0.7,0-2.2-0.4-4.6-0.9v-0.7c3.5,0,5.2,0.4,5.2,1.3l0.7-0.6c1.7,0.6,2.6,0.9,2.8,0.9h0.4v-0.4
		l-3.1-1.3v0.4c-3-0.7-4.3-1.5-4.3-2v-1.1H1025.4z M979.3,477.3h0.4c0.7,0,1.7-0.9,2.8-2.8v-0.4h-0.4
		C981.2,474.5,980.2,475.6,979.3,477.3z M983,472.8v0.9h0.4c1.3-0.7,2-1.3,2-1.7h-0.4C984.1,472.6,983.4,472.8,983,472.8z
		 M984.9,464.3h0.4c0,0.6-0.2,0.7-0.7,0.7h-0.6C984.3,464.5,984.5,464.3,984.9,464.3z M985.2,471.3v0.4h0.4c0.6-0.2,1.1-0.4,1.7-0.4
		V470C986.4,471,985.6,471.3,985.2,471.3z M985.6,463.4h0.9v0.4h-0.9V463.4z M986.5,466.9h0.4c0,0.6-0.4,0.9-0.9,0.9h-0.4
		C985.8,467.3,986.2,466.9,986.5,466.9z M987.3,462.3h0.9v0.6h-0.9V462.3z M987.3,466.1h0.9v0.4h-0.9V466.1z M988.6,535.4v0.7h0.4
		v-0.7H988.6z M992.1,522.3c-0.7,3.5-1.5,5.2-2,5.2l0.4,0.9v0.4c0,0.2-0.2,0.4-0.4,0.4l0.4,0.7v0.6c0,0.6-0.4,0.7-0.9,0.7l0.6,0.9
		c-0.4,3.3-0.6,5.2-0.9,5.6h0.9v-0.9c0.7-6.3,1.7-11.1,2.8-14.3h-0.7V522.3z M992.8,459.1c0,0.4-0.4,0.7-1.1,1.1h-0.9
		C990.8,459.7,991.5,459.3,992.8,459.1z M992.5,519.9v1.3h0.4v-1.3H992.5z M992.8,502.1v0.7h0.4v-0.7H992.8z M994.1,457.8h0.4v0.7
		h-1.3C993.4,458.2,993.6,457.8,994.1,457.8z M995.2,462.6h0.7v-0.9C995.6,461.9,995.2,462.3,995.2,462.6z M995.6,457.1h0.7v0.4
		h-0.7V457.1z M996.4,458.6h1.3v0.6h-1.3V458.6z M998.4,460.6h0.6c0.9-0.4,1.5-0.9,1.5-1.3C999.1,459.8,998.4,460.2,998.4,460.6z
		 M1000.1,454.7h0.9c0,0.6-0.4,0.9-0.9,0.9h-0.7C999.3,454.8,999.5,454.7,1000.1,454.7z M1001.5,456.3h1.3c0,0.4-0.4,0.7-1.3,1.3
		c-0.6,0-0.7-0.4-0.7-0.9L1001.5,456.3z M1004.1,453.6h0.4v0.4l-2.4,0.7v-0.7L1004.1,453.6z M1008.8,451.9v0.7
		c-0.6,0-1.9,0.4-3.5,0.9v-0.9L1008.8,451.9z M1005.6,505.6v1.1c0.6-0.2,0.9-0.4,1.3-0.4c0.7,0.2,1.3,0.6,1.3,0.9
		c0.6-0.4,0.9-0.6,1.1-0.6V506c-0.2,0-0.4,0.2-0.4,0.4L1005.6,505.6z M1006,462.6v0.4h0.7v-0.4H1006z M1007.1,461.9v0.4h1.3
		c0.6,0,0.7-0.2,0.7-0.7h-0.7C1007.8,461.7,1007.5,461.9,1007.1,461.9z M1008.8,468.6v0.4h0.9v-0.4H1008.8z M1009.7,510.2
		c0,0.4,0.2,0.6,0.4,0.6c0-0.4,0.2-0.6,0.4-0.6l0.4,0.9c-0.6,0-1.1,0.2-1.7,0.4l-0.4-0.7L1009.7,510.2z M1015.6,450.8h2
		c0,0.7-1.1,1.3-3.5,1.3l-0.7-0.6c-0.6,0.4-1.7,0.6-3.5,0.9v-0.9C1012.1,451,1013.9,450.8,1015.6,450.8z M1009.7,461v0.7h0.7V461
		H1009.7z M1013.9,498v0.7h-0.7l0.4,0.7v0.6h-0.9v-0.9h-0.7v1.3h-2V500c0.6,0,1.1-0.2,1.7-0.6l-0.4-0.7v-0.4L1013.9,498z
		 M1010.1,501.7h0.4v0.7h-0.4V501.7z M1011.2,505.6c0-0.2-0.2-0.4-0.6-0.4l-0.7,1.1v0.4l3.9-0.4h0.4c0-0.6,0.7-0.9,2-1.1
		c0-0.4,0.4-0.6,0.9-0.6l-0.4-0.7C1014.7,504.9,1012.8,505.4,1011.2,505.6z M1010.4,511.5h1.3v0.4h-1.3V511.5z M1010.8,461v0.4h1.3
		V461H1010.8z M1011.5,502.1h1.1v0.7h-0.4C1011.9,502.8,1011.5,502.4,1011.5,502.1z M1016.4,509.1c0.6,0,0.9,0.4,0.9,0.7
		c0,0.7-0.6,1.3-1.7,1.3v0.4h2.4v0.4l-2.8,0.6v-1.3l-2.8,0.7v-0.4l0.4-0.7h-1.1v-0.9h0.7c0.6,0,0.9,0.4,0.9,1.3h0.4
		c0-1.1,0.2-1.7,0.7-1.7v1.3C1015.6,510.4,1016.4,509.9,1016.4,509.1z M1012.3,508.4h0.4v0.9h-0.4V508.4z M1013.9,455.4
		c0.4,0,0.7,0.4,1.3,1.1h-1.3V455.4z M1014.9,507.6h1.5v0.7l-2,0.6l-0.4-0.9L1014.9,507.6z M1014.3,511.9c0.6,0.2,0.9,0.4,0.9,0.9
		h-0.9V511.9z M1014.9,466.5v0.4h2.4v-0.4H1014.9z M1019.5,498.4h2c0,0.7-0.4,1.1-1.1,1.1c0,0.6,0.4,0.9,0.7,0.9v-0.9h1.3v0.6
		c0,0.6-0.4,0.7-0.9,0.7c-0.2,0-1.3-0.2-3.1-0.4l-2.4,1.3v-0.9c0-0.4,1.1-0.9,3.5-1.7V498.4z M1018.8,450.8h2.4l2.8,0.4v0.9
		c-0.9,0.7-2,1.1-2.8,1.1v-0.4l-2.8,0.4v-0.4l-0.9,0.4h-1.3v-0.7h1.3l2-0.4c0,0.2,0.2,0.4,0.4,0.4l0.6-0.9h-2.4
		C1018,451,1018.4,450.8,1018.8,450.8z M1016.7,497.6v0.6h0.7v-0.6H1016.7z M1017.1,460.6v0.4c0.9,0,1.5,0.2,2,0.4v-0.7H1017.1z
		 M1017.5,503.6v1.7h0.4v-1.7H1017.5z M1017.8,458.6v0.6h0.9v-0.6H1017.8z M1021.9,506.3c0,0.2,0.2,0.4,0.4,0.4
		c0-0.2,0.2-0.4,0.4-0.4v0.9c-0.6,0-2,0.2-4.3,0.7c0-0.2-0.2-0.7-0.6-1.3h1.7c0.2,0,0.4,0.2,0.4,0.6L1021.9,506.3z M1018.4,510.8
		h0.7c0.6,0,0.7,0.4,0.7,0.7h-0.7C1018.6,511.5,1018.4,511.3,1018.4,510.8z M1018.8,503.2v0.9h0.7v-0.9H1018.8z M1019.1,496.9v0.4
		h0.7v-0.4H1019.1z M1019.5,461c0.7,0,1.3,0.2,1.3,0.4c0.6-0.2,0.9-0.4,1.3-0.4V460h-1.7C1019.7,460.4,1019.5,460.6,1019.5,461z
		 M1020.4,456.3v0.4h0.7v-0.4H1020.4z M1020.8,451.1v0.9h0.4v-0.9H1020.8z M1022.3,458.2v0.4h0.7v-0.4H1022.3z M1022.3,460.2v0.9
		l2-0.4v-0.6H1022.3z M1022.7,462.3v0.9h0.4v-0.9H1022.7z M1023.4,502.4v0.7c0.6,0,0.9-0.2,0.9-0.7l0.7,0.4h0.6v-0.4
		c-0.6,0-0.9-0.2-0.9-0.4C1024.1,502.3,1023.8,502.4,1023.4,502.4z M1023.9,465.8v0.6h0.7v-0.6H1023.9z M1023.9,509.9h0.7v-0.7
		C1024.1,509.3,1023.9,509.5,1023.9,509.9z M1024.3,463v0.4c0.2,0,0.7,0.2,1.3,0.4V463H1024.3z M1024.7,461.9v0.9h0.4v-0.9H1024.7z
		 M1025.1,502.1h0.6c0.6,0,0.7-0.4,0.7-0.9h-0.4C1025.2,501.3,1025.1,501.5,1025.1,502.1z M1025.1,507.3v0.7h0.6v-0.7H1025.1z
		 M1025.4,461.3h1.5c0-0.6-0.2-0.7-0.7-0.7C1025.8,460.8,1025.4,461,1025.4,461.3z M1026.4,465.8v0.9h2.8l0.7,0.4v-0.4l-0.4-0.9
		l-0.9,0.6h-1.7L1026.4,465.8z M1027.5,462.3v0.9h0.7C1028.2,462.4,1028,462.3,1027.5,462.3z M1027.8,493.2l-0.4,0.7v0.6h0.4
		c0.6,0,0.7-0.4,0.7-0.9L1027.8,493.2z M1027.5,500.4v0.4l2.4-1.3v-0.7C1028.2,499.5,1027.5,500,1027.5,500.4z M1027.5,503.6v0.4
		h0.7v-0.4H1027.5z M1027.8,502.4v0.7h0.4v-0.7H1027.8z M1030.6,498.7v0.4l2-1.1h0.4l-0.4,2.4h-1.3v-0.9h-0.9l0.6,0.9l-2,1.3
		c0-0.4-0.2-0.6-0.6-0.6l-0.4,0.9l0.9,0.4h0.4c0-0.4,1.3-1.1,3.9-2c0-0.2,0.2-0.4,0.4-0.4h0.9c-1.1,1.3-2.2,2-2.8,2v0.4h1.3
		c0.6-0.2,0.9-0.4,1.1-0.4v0.4c0.6-0.2,0.9-0.4,1.3-0.4l-0.4-0.9v-0.4l0.4-0.7h-0.7l0.7-1.3l-0.7-0.4c0,0.6-0.4,0.7-0.9,0.7h-0.4
		c0-0.2,0.2-0.4,0.4-0.4l-0.4-0.7l0.7-1.3v-0.4h-0.4C1031.7,497.8,1030.6,498.6,1030.6,498.7z M1028.6,461v0.7h0.6V461H1028.6z
		 M1028.6,463.7l0.9,0.6V463C1029,463,1028.6,463.4,1028.6,463.7z M1028.6,492.1v0.9h0.6v-0.9H1028.6z M1030.6,506.3v0.9l-1.5,0.4
		l-0.6-0.9L1030.6,506.3z M1029.1,453v0.6l2,0.4h0.7V453H1029.1z M1029.9,496.9v0.7h0.4v-0.7H1029.9z M1030.2,503.2v0.9h0.4v-0.9
		H1030.2z M1030.6,466.5v0.4h0.9v-0.4H1030.6z M1031,491.3v0.4h0.7v-0.4H1031z M1031,502.4v1.3c0.6,0,0.7-0.4,0.7-0.9L1031,502.4z
		 M1031.5,462.3v0.6h0.7v-0.6H1031.5z M1032.3,466.5l-0.4,0.7c1.3,0,3.5,0.7,6.9,2h0.4v-0.4C1037.5,468.2,1035.2,467.4,1032.3,466.5
		z M1032.3,453.9v0.4h0.9v-0.4H1032.3z M1032.7,461v0.4c1.3,0.2,2.2,0.4,2.4,0.4h0.4v-0.4c-0.2,0-0.9-0.2-2.4-0.4H1032.7z
		 M1033.4,457.8v0.4h0.7v-0.4H1033.4z M1033.4,494.9v0.4h0.4c0-0.4,0.7-1.1,2-2v-0.4C1034.1,493.7,1033.4,494.5,1033.4,494.9z
		 M1033.8,455v0.6c0.4,0,0.7,0.2,1.3,0.4h0.4v-0.4c-0.2,0-0.7-0.2-1.3-0.6H1033.8z M1033.8,458.6v1.3h0.4v-1.3H1033.8z
		 M1033.8,503.6v0.4h0.9v-0.4H1033.8z M1034.7,454.3v0.4h0.7v-0.4H1034.7z M1037.5,495.6c-0.6,0-1.1-0.2-1.7-0.4
		c-0.6,0.2-0.9,0.4-1.1,0.4v0.9l1.1-0.9h0.6c0,0.7-0.6,1.3-1.7,1.3v1.3l0.7-0.6c0.6,0,0.9,0.6,0.9,1.7h0.4c0.2-1.3,0.9-2,2-2v-0.7
		l-1.3,0.7h-0.4v-0.7l2.8-2c0-0.6-0.4-0.9-0.9-0.9C1037.8,493.6,1037.5,494.3,1037.5,495.6z M1035.1,503.2v0.6h0.7
		c0-0.6,0.4-0.9,1.3-0.9v-0.7C1036.2,502.8,1035.4,503.2,1035.1,503.2z M1035.8,491v0.7h0.6V491H1035.8z M1036.2,454.7v0.9l0.7,0.4
		h0.4v-0.4c-0.6,0-0.7-0.4-0.7-0.9H1036.2z M1037.1,463v0.4h0.7V463H1037.1z M1037.5,459.5v1.3h0.4v-1.3H1037.5z M1037.5,499.1v0.9
		h0.9C1038.2,499.5,1038,499.1,1037.5,499.1z M1037.5,501.7v0.7h0.4v-0.7H1037.5z M1039.3,490v0.4h0.9V490H1039.3z M1039.9,456.7
		c0.2,1.1,0.9,1.9,2,2v-0.4c0-0.4-0.6-0.9-1.7-1.7L1039.9,456.7L1039.9,456.7z M1040.2,492.4v0.9h0.7v-0.9H1040.2z M1040.2,498.4
		v1.1h0.4v-1.1H1040.2z M1043,503.2v0.6c0,0.6-0.2,0.7-0.7,0.7c-0.2,0-0.4-0.2-0.4-0.4c-0.6,0.2-0.9,0.4-1.3,0.4h-0.4v-0.4
		C1040.8,503.9,1041.5,503.7,1043,503.2z M1040.6,500.8h0.7v0.4h-0.7V500.8z M1041.4,456.7c0,0.4,0.4,0.7,1.3,1.3h0.4
		c0-0.4-0.4-0.7-1.1-1.3H1041.4z M1046.9,495.2h0.4v0.7h-1.3C1046.2,495.4,1046.5,495.2,1046.9,495.2z M1046.9,492.4v0.9h0.4v-0.9
		H1046.9z M1046.9,497.6h1.1c0,0.6-0.2,0.9-0.7,0.9h-0.4V497.6z M1048.2,489.7v0.7h0.6v-0.7H1048.2z M1051.4,487.3v0.4h0.9v-0.4
		H1051.4z M1051.7,488.4v0.4h0.9v-0.4H1051.7z M1052.8,484.5v0.7h0.4v-0.7H1052.8z"/>
	<path fill="#FFFFFF" d="M1051.4,519.3l0.7-0.2l-0.2,1.9l-0.7,0.2L1051.4,519.3z M1082.5,484.7h0.4l1.3,0.6c0.2,0,0.4-0.2,0.4-0.4
		v-0.2h0.2c0.4,0,1.5,0.4,3.5,1.3l-0.2-0.4h-0.2c-0.2,0-0.4-0.2-0.4-0.4l0.7-0.2c0.2,0.6,1.7,1.3,4.6,2.4c0.6,0.7,0.9,1.3,1.3,1.3
		h0.2c0.4-0.4,0.7-0.6,1.1-0.6c3.1,3.1,4.8,5.7,5,8c-0.2,0-0.4,0.2-0.4,0.4v0.2c0.6,0,0.7,0.2,0.9,0.7l0.2,1.1v0.2
		c0,0.2-0.2,0.4-0.4,0.4l0.6,0.7v0.7c0,0.4-0.2,0.6-0.6,0.6c0.4,0.4,0.6,0.7,0.6,1.1c0,4.8-0.4,7.2-1.1,7.4c0-0.2-0.2-0.4-0.4-0.4
		h-0.2v0.2c0,0.4-0.2,1.1-0.6,1.9l0.2,0.4l0.4-0.2l0.2-1.5l0.4-0.2l0.4,1.5v0.2c0,0.4-0.4,0.9-1.3,1.7c0-0.2-0.2-0.4-0.4-0.4h-0.2
		c-1.3,3.3-1.9,5-1.9,5.2h-0.4l-1.3-0.6l-0.4,0.2l0.2,2.6l-0.7,0.2l-0.9-0.4v0.2c0,0.4-0.4,0.7-0.9,1.3h-0.4l0.4-0.7h-0.4
		c-0.9,2-1.7,3-1.9,3h-0.4l-0.2-0.7l-0.4,0.2l0.2,0.7c0.2,0.2,0.6,0.2,0.9,0.2c0.2,0,0.4,0,0.7-0.2v0.4c0,0.4-0.2,0.6-0.6,0.7
		c0-0.2-0.2-0.4-0.6-0.4v0.2c0,0.4-0.4,0.7-0.9,1.3l-0.7-0.4v0.2c0,0.4-0.4,0.9-1.3,1.7l-0.4-1.9h-0.4v-0.2c0-0.4,0.6-0.7,1.5-0.9
		l-0.4-1.5c-0.4,0.7-2,2.6-4.8,5.4v0.2c0,0.2,0,0.6-0.2,0.9c0.2,0,0.4,0.2,0.6,0.4c-0.4,0-1.1,0.9-2.2,2.6h-0.4l-0.6-1.1l-1.1,0.2
		l0.6,0.7l-2.6,0.7l-0.4,0.2l-0.2-0.7l-1.1,0.2l0.2,0.7h-0.4c-0.6,0-0.9-0.4-0.9-0.9l-0.4,0.2l0.2,0.7l-0.7,0.2
		c0-0.4-0.6-0.7-1.3-1.3c-1.3,0.4-2,0.9-2,1.5v0.2c-1.3-0.7-2.2-1.3-2.2-2l-0.7,0.2l0.2,0.7l-0.4,0.2c-3.5-0.7-6.9-2.2-9.8-4.4
		c-1.1-0.9-1.9-2.2-2.2-3.9l0.4-0.2c-0.6-1.7-1.1-2.8-1.7-3.1l-0.2-0.7l0.7-0.2l-0.2-1.5l-0.7,0.2l-0.2-0.4c0.6-0.6,0.9-1.3,0.9-2
		v-0.4c1.1-2.4,2.2-5.9,3-10.4l1.7-1.5l-0.6-0.7c0.9-0.2,1.7-1.9,2-4.8l0.4-0.2l0.2,0.7c3-4.1,5.2-6.5,6.9-7.2c0,0.6,0.7,0.9,2,1.3
		l0.2,0.4c0.2,0,0.6-0.2,1.1-0.6h0.4c0.4,0,1.1,0.2,2,0.4c0.4-0.4,0.9-0.6,1.5-0.6l0.4-0.2l0.9,0.4c0-0.6,0.2-0.7,0.6-0.9l0.7-0.2
		l0.2,0.4l-3.1,2.4l0.4-0.2c0.4-0.4,0.9-0.6,1.5-0.7c0.6,0.6,0.9,1.1,1.1,1.9l0.7-0.6l1.1-0.2v0.4l-0.6,1.3c0.6,0.4,1.1,0.6,1.5,0.6
		h0.2l0.2,0.4v0.2c0,0.2-0.2,0.4-0.4,0.4l0.6,0.7v0.4c-3.9,4.8-6.5,10.9-7.8,18.7l0.2,0.7l3.7-0.6l0.2,0.7l0.4-0.2v-0.4
		c0-0.9,0.7-1.5,2-1.9v-0.2c0-0.6,0.4-1.3,1.1-2.2c0.4-1.5,1.1-3,2-4.4l-0.6-0.7l0.9-0.9l-0.6-0.7c0-0.6,0.2-0.7,0.7-0.9
		c0,0.2,0.2,0.4,0.4,0.4c1.1-5.2,1.9-9.3,1.9-12.2c0-0.7,0-1.5-0.2-2.2l-0.9-0.2l0.4-0.9l-0.4-1.5l-1.3-1.3c0.2,0,0.4-0.2,0.4-0.4
		v-0.2l-0.7,0.2l-0.2-0.4l0.4-0.9h-0.2c-0.2,0-0.4-0.2-0.4-0.4l-0.7,0.6l-0.4,0.2l-0.2-0.7c0.4,0,0.7-0.4,1.3-0.9l0.2,0.4l0.7-0.6
		c0.4,0.2,0.7,0.2,0.9,0.2h0.4l-0.6-0.7v-0.4H1082.5z M1057.7,506l0.2,0.7l0.7-0.2c0-0.4-0.4-0.7-0.7-0.7h-0.2V506z M1059.7,497.6
		h0.4l0.2,0.7h-0.4L1059.7,497.6z M1059.9,500.8l0.2,0.4l0.7-0.2l-0.2-0.4L1059.9,500.8z M1072.3,509.1v0.4c0,0.4,0,0.9-0.2,1.3
		l0.2,0.4l0.4-0.2v-0.2c0-0.4,0.2-0.9,0.6-1.5v-0.4L1072.3,509.1z M1073.2,507.8v0.4l0.4-0.2c0.6-1.3,0.7-2.2,0.7-2.8V505
		C1073.8,505.4,1073.4,506.3,1073.2,507.8z M1075.3,490.4l0.4-0.2l0.2,0.7l-1.1,0.2C1074.7,490.6,1074.9,490.4,1075.3,490.4z
		 M1074.7,503.4l0.2,0.7c0.4,0,0.7-0.4,0.7-0.7v-0.2L1074.7,503.4z M1076.7,493.9l0.7-0.2v0.2c0,0.4-0.2,0.6-0.6,0.7L1076.7,493.9z
		 M1077.3,531.9l0.2,0.4l0.7-0.2l-0.2-0.4L1077.3,531.9z M1081.4,492.1l0.7-0.2v0.4l-0.7,0.2V492.1z M1084,523.6l0.2,0.7l0.4-0.2
		l-0.2-0.7L1084,523.6z M1087.8,521.1v0.4l0.7-0.2V521L1087.8,521.1z M1091.4,522.4h0.4v0.4c0,0.4-0.2,0.6-0.6,0.6h-0.4
		C1090.8,522.8,1091,522.4,1091.4,522.4z M1095.6,515.2l0.2,0.7c0.2,0.4,0.4,0.7,0.7,0.7h0.2l-0.2-0.7c0-0.4-0.4-0.7-0.7-0.7H1095.6
		z M1096,514.5v0.4l0.7-0.2v-0.4L1096,514.5z M1097.3,513.2l0.2,0.7h0.4l-0.2-0.7H1097.3z M1099,514.5l0.2,0.7v0.4
		c0,0.4-0.2,0.6-0.6,0.6l-0.2-0.7C1098.2,514.9,1098.6,514.5,1099,514.5z"/>
	<path fill="#FFFFFF" d="M1106.5,507.1h0.7v0.7h-0.7V507.1z M1106.9,505.8h0.7v0.4h-0.7V505.8z M1141.9,473.6v0.4l0.7-0.4h1.1
		c0.2,0,1.3,1.1,3,3.3c0.2,0,0.4,0.2,0.4,0.7h0.7l0.7-0.4c0.7,1.1,2.4,2.2,4.4,3c0,0.6,0.9,1.5,2.6,3v0.7h-0.4
		c0.2,0.4,0.4,1.1,0.4,2.2h0.4v-0.7h0.7v1.1c-0.7,0-1.1,0.2-1.1,0.4c0.2,0.6,0.4,0.9,0.4,1.1c-0.6,0-0.7,0.4-0.7,1.1l-0.7-0.4h-0.4
		c0,0.6-0.2,0.7-0.7,0.7v0.7l0.7-0.4l0.7,1.1v0.4c-0.6,0.4-0.7,1.7-0.7,3.7l-0.7-0.4h-0.4v0.7h0.7v0.4c-0.7,0.7-1.1,1.5-1.1,1.9
		c0.6,0.7,0.7,1.5,0.7,1.9l-0.7,0.4c-0.2,0-0.4-0.2-0.4-0.4c-1.1,0.2-1.9,0.9-2.2,1.9l0.4,0.7l-0.7,0.4l-0.7-0.4h-0.4v0.4h0.7
		c0,0.4-1.7,1.7-4.8,4.1l0.4,0.7c-0.6,0-2,1.1-4.4,3.3h-1.5v0.4c0,0.2,0.2,0.4,0.4,0.4c0,0.6-1.1,1.5-3.3,2.6l-0.4,0.7l-0.7-0.4
		h-0.4c0,0.7-0.2,1.1-0.7,1.1h-0.4c-0.2,0-0.4-0.2-0.4-0.4l-0.7,0.4c-0.2,0-0.4-0.2-0.4-0.4c-1.9,0.7-3.3,1.1-4.1,1.1
		c-1.5-0.6-2.6-0.9-3.3-1.5c0,0.6-0.4,0.7-1.1,0.7c0,0.2,0.2,0.6,0.4,1.1l-0.4,1.9c0.7,2.4,1.1,3.7,1.1,4.1h1.9
		c1.3,0,4.8-0.9,10.2-3l-1.5,1.5h0.4c0.2,0,0.6-0.2,1.5-0.4c0.6,0.2,0.9,0.4,1.1,0.4c0-0.6,0.4-0.7,0.7-0.7h0.7v0.7
		c3.5-1.5,5.6-2.2,6.1-2.2c-0.7,1.3-1.7,1.9-2.6,1.9c0.2,0.6,0.4,0.9,0.4,1.1h0.4c0-0.9,0.7-1.5,2.2-1.5l1.9,1.1
		c1.7,0,5.4-1.7,11.3-5.2h0.7v1.1l-3,1.5v0.7h0.7l1.5-1.1c0,0.6,0.4,0.7,1.1,0.7v1.1h-0.7c-0.2,0-0.4-0.2-0.4-0.4
		c-0.6,0.2-0.9,0.4-1.1,0.4v2.6h-0.7v-0.7h-0.4l-0.7,0.4l-0.4-0.7c0-0.7,0.4-1.1,1.1-1.1v-0.4h-0.4l-1.5,0.7v-0.7h-0.4l-1.1,0.7
		l0.4,0.7c0,0.4-0.9,1.1-3,1.9v0.4h1.1l1.1-0.7h0.4v0.4c-0.2,0.6-0.4,0.9-0.4,1.1l-0.7-0.4c-1.3,0.6-1.9,1.1-1.9,1.5v0.4h0.4
		c0.6-0.2,0.9-0.4,1.1-0.4v0.7h-1.1v0.4h1.9c0,0.4-1.3,1.3-4.1,3c0,0.6-0.2,0.7-0.7,0.7h-0.4l-0.7-0.4c0,1.7-1.1,2.6-3.3,2.6
		c0-0.2-0.2-0.4-0.4-0.4v0.4l-0.7-0.4l-1.1,0.7c0-0.2-0.2-0.4-0.4-0.4c0,0.7-0.9,1.1-3,1.5v-0.7h-0.7c-1.1,0-2,0.2-3,0.7
		c0-0.6-0.2-0.7-0.7-0.7v0.7h-0.7v-0.7h-0.4v0.7c0.2,0,0.4,0.2,0.4,0.4l-0.7,0.4c-1.3-0.4-1.9-0.9-1.9-1.5l-1.9,0.4h-0.4
		c0-0.2-0.2-0.6-0.4-1.1l-0.7,0.4c-3.5-2.4-5.2-3.9-5.2-4.4l-0.7,0.4c-1.3-1.9-3.3-3.1-6.1-4.1v-0.4c0.9,0,1.5-0.4,1.5-1.1
		c-1.7-0.9-3-1.5-3.7-1.5v-1.5l0.4-0.7h-0.4c-0.6,0.2-0.9,0.4-1.1,0.4c-0.2-0.9-0.9-1.7-1.9-2.2l0.4-1.9v-2.6h0.7l0.7,2.2h0.4v-0.4
		c-0.2-1.7-0.4-3.1-0.4-4.1h0.4c-0.7-2.2-1.1-3.5-1.1-3.7l-0.7,0.4h-0.7v-1.9c0-0.2,0.2-0.4,0.4-0.4c0-0.7-0.6-1.1-1.5-1.1l0.7-1.1
		c-0.6,0-0.9-0.6-1.1-1.9h0.4c0.6,0,0.7,0.4,0.7,1.1c0.6,0,0.7-0.2,0.7-0.7h-0.7l0.4-0.7l1.9,1.1h1.1l1.1-0.7l-0.4-0.7
		c0.2-0.6,0.4-0.9,0.4-1.1h0.7v3h0.4c1.5-4.6,3-7.4,4.1-8.3h0.7c-1.7,2.4-3.1,5-4.1,8.3c0.2,0,0.4,0.2,0.4,0.4
		c0.7,0,1.5-1.1,1.9-3.3h0.4v1.1c-0.2,0.7-0.4,1.5-0.4,2.2c0.7-0.4,1.5-0.7,2.2-1.5c-0.2-0.6-0.4-0.9-0.4-1.1c0.2,0,1.3-1.1,3-3.3
		h-0.7v-0.7l0.7,0.4c3-5.6,5.2-8.5,6.5-9.1l-0.4-0.7v0c0.4,0,1.1-0.9,2.6-3l3.7-2.2c0.2-0.9,0.4-1.5,0.7-1.5l-0.4-0.7v-0.4l1.9-0.4
		v-0.7h-0.7c-0.2,0-1.1,0.7-2.6,2.2c-0.9-0.2-1.5-0.9-1.5-1.9h0.7v0.7c0.6-0.7,1.5-1.5,3-2.2c0-0.7,0.7-1.7,2.2-3
		c0.6,0.2,0.9,0.4,1.1,0.4c0.6-0.2,0.9-0.4,1.1-0.4v0.4C1140.8,473.7,1141.4,473.6,1141.9,473.6z M1108.8,510h0.7v1.5h-0.7V510z
		 M1110.3,517.1v0.7h0.4c0.6-0.2,0.9-0.4,1.1-0.4v-0.4L1110.3,517.1L1110.3,517.1z M1111.7,511.5v1.9h0.4v-1.9H1111.7z
		 M1112.1,513.7v1.9h0.4v-1.9H1112.1z M1112.8,523.2c0.6,0,0.7,0.4,0.7,0.7v0.4h-0.7V523.2z M1114.7,496.9h0.7v0.7h-0.7V496.9z
		 M1115.8,495.2h0.4v0.7h-0.4V495.2z M1116.4,493.7h0.7v0.4c0,0.6-0.2,0.7-0.7,0.7V493.7z M1116.4,525.8v0.4h0.7v-0.4H1116.4z
		 M1120.8,487.8v0.4c0,0.4-0.4,0.7-1.1,1.1v-0.4C1119.7,488.6,1120.1,488.2,1120.8,487.8z M1121.9,489.7c0.6,0,0.7,0.4,0.7,0.7
		l-2.2,1.9v-0.4C1121,490.4,1121.4,489.7,1121.9,489.7z M1120.4,494.1h0.7v0.7h-0.7V494.1z M1121.9,493h0.7v0.4h-0.7V493z
		 M1122.3,487.8h1.5v0.7c0,0.6-0.2,0.7-0.7,0.7h-0.7V487.8z M1122.7,491.5c0.6,0,0.7,0.4,0.7,0.7c0,0.6-0.2,0.7-0.7,0.7
		c0-0.2-0.2-0.4-0.4-0.4C1122.5,492.3,1122.7,491.9,1122.7,491.5z M1124.9,490h0.4c0,0.6-0.7,0.9-2.2,1.5v-1.1h0.4l0.7,0.4
		C1124.3,490.2,1124.5,490,1124.9,490z M1124.5,488.2l1.5,0.4c0.6-0.2,0.9-0.4,1.1-0.4c0,0.4-0.4,0.7-1.1,1.1
		c-0.4-0.2-0.9-0.4-1.5-0.4V488.2z M1125.6,484.9v0.7h-0.7C1125.1,485,1125.3,484.9,1125.6,484.9z M1131,479.5h0.4
		c1.3,0.6,1.9,1.1,1.9,1.5c-0.9,0-2.2,0.6-3.7,1.9l-0.7-0.4c-0.2,0.4-0.4,0.9-0.4,1.5l-1.1-0.7c0-0.4,1.3-1.5,3.7-3.3V479.5z
		 M1143.4,483.9h-1.1c0,0.7-1.3,1.1-3.7,1.5v0.7l0.7-0.4h0.4c0,0.2-0.6,0.7-1.9,1.9h0.7v0.4c-1.3,0-1.9,0.4-1.9,1.1h-1.3l-0.7-0.4
		l-0.4,0.7l0.7,0.4c0-0.2,0.2-0.4,0.4-0.4v0.4c-0.4,0-1.9,1.7-4.4,4.8c-0.6,0.7-1.3,1.1-1.9,1.1c0-0.2-0.2-0.4-0.4-0.4v0.4l0.7,1.1
		l-1.5,1.1l0.4,0.7v0.4c-0.7,0-1.1,0.4-1.1,1.1l0.7,0.4c0-0.4,1.1-0.7,3.3-1.1c2.6-3.3,4.6-4.8,6.1-4.8v0.4c0,0.6-0.4,0.7-1.1,0.7
		v0.7c3.5-3,5.4-4.4,5.6-4.4v1.1h0.4v-0.6c-0.2-0.6-0.4-0.9-0.4-1.1c0.6-0.6,1.1-0.7,1.5-0.7l-0.4-0.7c0.6-0.7,0.9-1.7,1.1-2.6v-0.4
		h-0.4v0.7h-0.4v-1.1c0-0.9,0.9-1.7,3-2.2v-0.4h-1.5v-0.7h-0.4L1143.4,483.9z M1127.3,492.6c0.4,0,0.9-0.6,1.5-1.9v-0.4
		C1127.7,490.6,1127.3,491.3,1127.3,492.6z M1127.7,483.9h0.4v0.7h-0.4V483.9z M1128.4,493.4h0.7v-0.7
		C1128.6,492.8,1128.4,493,1128.4,493.4z M1128.8,489.3v0.7h0.4c0.6,0,0.7-0.2,0.7-0.7v-0.4C1129.3,489.1,1129,489.3,1128.8,489.3z
		 M1129.9,488.2v0.4h0.7v-0.4H1129.9z M1130.3,488.9v0.7h0.4v-0.7H1130.3z M1138.4,480.6l-0.7-0.4h-0.7c0,0.7-0.6,1.5-1.9,1.9v1.1
		l-0.7-0.4c0,0.7-0.6,1.3-1.5,1.9c-0.9,1.5-1.7,2.2-2.2,2.2v0.7h2.2c0-1.3,0.9-2.2,2.6-3c0,0.9,0.4,1.5,1.1,1.5v0.4l-0.4,0.7h0.4
		c0-2,2.6-3.7,8-4.8v-1.1l-1.9,0.4c0-0.7-0.2-1.1-0.4-1.1h-1.1v-0.7C1139.3,479.9,1138.4,480.2,1138.4,480.6z M1134.3,498.4
		c0,0.6-0.6,0.9-1.9,1.1v0.4h0.4c1.1-0.6,1.7-0.9,1.9-1.5L1134.3,498.4L1134.3,498.4z M1132.5,528.4v1.1h0.7v-1.1H1132.5z
		 M1132.8,489.3v0.4h0.7v-0.4H1132.8z M1133.2,513c0,0.6,0.4,0.7,0.7,0.7l0.4-0.7H1133.2z M1133.6,486.7v0.4h0.7v-0.4H1133.6z
		 M1133.6,490v0.4h0.7V490H1133.6z M1134.7,486.7v0.7c0.6,0,0.7-0.2,0.7-0.7H1134.7z M1137.7,535.2c0,0.4-0.6,0.9-1.5,1.5h-0.7v-1.1
		C1135.6,535.6,1136.4,535.4,1137.7,535.2z M1136.2,519.9h0.7v0.4h-0.7V519.9z M1136.6,533v0.7h0.4V533H1136.6z M1136.9,477.6v0.7
		h0.4v-0.7H1136.9z M1136.9,521h0.7v0.4h-0.7V521z M1137.7,527.3v0.4h0.7v-0.4H1137.7z M1140.4,495.2c0,0.4-0.2,0.9-0.7,1.5h0.4
		c0.4,0,0.7-0.4,1.1-1.1v-0.4L1140.4,495.2L1140.4,495.2z M1140.4,520.2h0.4c-0.2,0.6-0.4,0.9-0.4,1.1h-0.7V521
		C1139.7,520.4,1139.9,520.2,1140.4,520.2z M1141.6,490v0.4c0,0.6-0.2,0.7-0.7,0.7h-0.4C1140.4,490.8,1140.8,490.4,1141.6,490z
		 M1143.4,487.8v0.4c0,0.6-0.2,0.7-0.7,0.7v-0.4C1142.7,488,1143,487.8,1143.4,487.8z M1143,473.9v0.4h0.7v-0.4L1143,473.9
		L1143,473.9z M1143,479.9v0.4h0.7v-0.4H1143z M1143.4,492.6v0.7h0.4v-0.7H1143.4z M1144.1,488.2v1.1h0.4v-1.1H1144.1z
		 M1144.1,490.8c0,0.6,0.4,0.7,0.7,0.7v-0.7H1144.1z M1145.3,488.6c0,0.7-0.2,1.1-0.4,1.1c0.2,0.6,0.4,0.9,0.4,1.1h0.4
		c0-0.7,0.4-1.5,1.1-2.2H1145.3z M1147.1,518.4c0,0.4-0.4,0.7-1.1,1.1h-0.7C1145.3,518.9,1145.8,518.6,1147.1,518.4z M1146.4,486.7
		l-0.4,1.5c0.6,0,0.7-0.4,0.7-1.1v-0.4L1146.4,486.7L1146.4,486.7z M1153.6,514.9v0.4l-1.1,1.9c0.2,0,0.4,0.2,0.4,0.4
		c-1.3,0-3.1,0.9-5.2,3c-0.6-0.2-0.9-0.4-1.1-0.4v-0.7c0.9,0,2.6-0.9,4.8-2.6h0.4v-0.4l-0.4-0.7c0.2,0,0.4-0.2,0.4-0.4l0.7,0.4
		L1153.6,514.9z M1147.1,482.8v0.4h0.7v-0.4H1147.1z M1147.8,505.4h0.4v0.7h-0.4V505.4z M1148.2,486.7c0.2,0,0.6,0.2,1.1,0.4V486
		h-0.4C1148.6,486,1148.2,486.1,1148.2,486.7z M1149.3,496.9c0,0.7-0.4,1.1-1.1,1.1v0.7h0.4c0.4,0,0.9-0.6,1.5-1.9H1149.3z
		 M1150.3,503.9h0.4v0.7c-0.4,0-0.9,0.2-1.5,0.7h-0.4v-0.7C1149,504.7,1149.5,504.5,1150.3,503.9z M1150.3,482.1v0.4l0.4,2.2
		l0.7-0.4h0.4v1.1h0.7c0-0.6-0.6-1.7-1.9-3.3L1150.3,482.1L1150.3,482.1z M1150.6,487.1l0.4,0.7c-0.6,1.7-0.7,2.8-0.7,3
		c1.5-2,2.2-3.3,2.2-4.1v-0.4h-0.7L1150.6,487.1z M1150.3,523.6v0.7c0.6,0,0.7-0.2,0.7-0.7H1150.3z M1150.6,485.6v0.7h0.4v-0.7
		H1150.6z M1152.8,491.9c0,0.6-0.7,1.9-2.2,3.7v1.1h0.4c0-0.4,0.9-1.5,2.6-3.7c-0.2-0.6-0.4-0.9-0.4-1.1H1152.8z M1150.6,497.6v0.7
		h0.4v-0.7H1150.6z M1153.2,485.6c0.6,1.3,0.7,2.2,0.7,3c0.6,0,0.7-0.2,0.7-0.7v-0.4l-0.7-1.1V486l0.4-0.7h-0.4L1153.2,485.6z
		 M1153.2,488.6v0.7h0.4v-0.7H1153.2z M1153.2,498h0.7v0.4h-0.7V498z M1153.6,516h0.7v0.7h-0.7V516z M1156.6,493h0.4
		c-0.9,1.7-1.5,2.6-1.9,2.6v-0.7C1155.6,493.7,1156,493.2,1156.6,493z M1156.6,488.2h0.7v1.1h-0.7V488.2z M1161.2,518.7v0.4
		c0,0.6-0.2,0.7-0.7,0.7v-0.4C1160.4,518.9,1160.6,518.7,1161.2,518.7z"/>
	<path fill="#FFFFFF" d="M1187.1,446.1h0.4v0.4l-0.9,1.1l-0.2,0.4l1.1,0.2c0.4-1.1,0.7-1.9,1.3-1.9h0.2v0.4l-0.6,1.9l0.7,0.2
		c0-0.6,0.2-1.1,0.6-1.5c0.4,0.2,0.7,0.4,1.1,0.6c0,0.4-0.4,0.7-0.7,0.7h-0.2c0.4,1.1,0.7,1.7,1.1,1.7c0.2-0.9,0.6-1.5,0.9-1.5
		c0.6,0.4,0.9,0.6,1.1,0.6l-0.2,0.7l-0.9,1.1l-0.2,1.1l1.7-0.9l0.7,0.6l0.2-0.7l1.1,0.2l0.7,0.6c0-0.2,0.2-0.4,0.4-0.4l-0.2,2.2h0.4
		c0-0.7,0.4-1.1,0.7-1.1h0.2l0.4,0.7c-0.6,0-0.9,0.6-1.3,1.9h0.2c0.4,0,0.7-0.6,0.9-1.5h0.4l0.7,0.6c-0.9,1.3-1.3,2.2-1.5,3
		c0.4,0.2,0.7,0.4,0.7,0.7v0.2c-0.9,0.2-1.5,0.6-1.7,0.9l0.4,0.7c-1.7,4.4-2.6,6.7-3,6.7v0.4c1.3,0.4,2.4,0.9,3,1.5
		c0.2-0.4,0.4-0.7,0.7-0.7h0.2l1.1,0.9c0-0.6,1.3-0.9,3.9-1.1c0-0.2,0.2-0.4,0.4-0.4c0,0.2,0.2,0.4,0.4,0.4c0-0.2,0.2-0.4,0.4-0.4
		h0.2c0,0.2,0.2,0.4,0.4,0.4c0.2-0.4,0.4-0.7,0.7-0.7h0.2l1.5,0.2l-0.2,0.7h0.4l1.3-0.7v0.2c0,0.2,0.2,0.4,0.4,0.4
		c0.2-1.3,1.1-2,3-2c0.4,0,0.7,0,1.1,0.2c0-0.2,0.4-0.4,0.9-0.4h0.4c0.7,0,2.6,0.9,5.4,2.8c0.9,0,2.8,1.5,5.2,4.3l0.7,0.2l-0.2,0.4
		l-0.6,1.9c0.9,0,1.5,0.4,1.5,0.9c-0.4,0.2-0.7,0.2-1.3,0.2h-0.4l-0.2,1.5l0.7,0.2c0,0.4-0.6,0.7-1.7,1.1l0.2-0.7l-0.4-0.2l-2.4,1.7
		l-0.4-0.2l0.6-0.7l0.2-0.4c-1.3,0.7-2,1.3-2.4,1.3h-0.2l0.2-0.7l0.6-0.7l-0.4-0.2c-0.2,0-1.1,0.6-2.8,1.7c-0.4,0-0.7-0.4-0.7-1.1
		V478l-1.9,0.2v-0.4l-0.7,0.4h-0.4l-1.9-1.3c-0.4,0.2-0.7,0.2-1.1,0.2h-0.4c0-0.9-0.4-1.5-1.1-1.7l0.6-0.7v-0.2
		c0-0.4-0.4-0.7-1.1-1.3v0.4l0.4,0.9h-0.2c-0.4,0-0.9,0.4-1.5,0.9c-0.2,0-0.4-0.2-0.4-0.4v-0.2c-3.7,0.6-5.7,1.3-6.3,2v-0.2
		c0-0.4-0.2-0.6-0.7-0.6c0,0.4-0.2,0.7-0.4,0.7h-0.2c-0.4-0.4-0.7-0.6-1.1-0.6c-0.4,0.9-1.1,1.3-1.9,1.3h-0.2l0.4,0.7
		c-2,0.4-3.1,1.1-3.1,2.4c-0.2,0-0.4,0.4-0.6,1.1l-0.4-0.2V481h-0.4c-0.6,0-0.7,0.2-0.7,0.7h0.4c-0.7,1.5-1.3,2.2-1.7,2.2h-0.2v-0.2
		c0-0.2-0.2-0.4-0.4-0.4l-1.3,4.8l1.5,0.6c-0.6,0.9-0.9,1.7-0.9,2.2l0.2,1.9c-0.4,1.5-0.6,2.2-0.9,2.2v0.2c0,0.2,0.2,0.4,0.4,0.4
		c-0.2,1.7-0.6,2.6-1.3,2.6h-0.2l-0.2,0.4c0.7,0.2,1.1,0.4,1.1,0.9v0.2h-0.2c-0.2,0-0.4,0.2-0.4,0.4l1.1,0.2l-0.2,1.5h-0.7l0.2-1.1
		l-0.4-0.2c-0.2,0.7-0.4,1.7-0.7,2.6h0.4l-0.6,0.7l-0.2,0.7l1.1,0.2v0.4l-1.9,0.2l-0.2,0.7c0.2,0,0.4-0.2,0.4-0.4
		c0.9,0.6,1.5,0.9,1.5,1.3v0.2l-0.4-0.2l-0.7-0.6l-0.2,1.5l0.4,0.2l0.7-0.4v0.4l-1.3,1.3l-0.2,2.2l0.4,0.2c0.2-1.1,0.4-1.9,0.9-1.9
		h0.2l-0.2,0.7l-0.6,0.7c0.2,0,0.4,0.2,0.4,0.4c-0.2,0-0.4,0.2-0.6,0.4c0.2,0,0.4,0.2,0.4,0.4c-0.6,0-0.7,0.4-0.9,0.7v0.4h0.4
		l0.2-0.7c0.4,0.2,0.7,0.4,0.7,0.7v0.2h-0.2c-0.4,0-0.7,0.6-1.3,1.7l0.2,6.1c-0.6,0-0.7,0.2-0.9,0.7c0.2,0,0.4,0.2,0.4,0.4h-0.2
		c-0.7,0-1.1,0.7-1.3,2.2l0.7,0.2l-0.2,1.1l-0.7-0.6v0.4c0,0.6,0.2,0.7,0.7,0.9l-0.6,0.7v0.7c0.6,0,1.1,0.6,1.7,1.7l-0.6,0.7
		c0,0.4,0.4,1.3,1.3,2.8v0.4l-1.5,0.4c0-0.2-0.2-0.4-0.4-0.6l-0.9,1.1l-0.7-0.4c-0.4,0.2-0.7,0.2-0.9,0.2h-0.2l-0.4-0.7l0.6-0.7
		l-0.7-0.6v0.4c0.2,0,0.4,0.2,0.4,0.4v0.2l-1.7,1.1c-0.6-0.6-1.1-0.9-1.5-0.9l0.2-1.1l0.7,0.2v-1.3c0-0.6-0.9-2-2.6-4.3h0.2
		c0.4,0,0.6-0.2,0.6-0.7l0.2-0.4h0.2c-0.4,0-0.7,0.4-0.7,1.1c-0.4,0-0.7-0.9-1.3-2.4l0.2-1.1l0.7,0.4c-0.7-4.1-1.1-7.4-1.1-10.2
		c0-0.9,0-1.7,0.2-2.4l-0.7-0.2v4.1l-0.7-0.2l-0.2,0.4c1.1,1.9,1.7,3.7,1.7,5.6c0,0.4,0,0.7-0.2,1.1v0.4h-0.4v-0.2
		c0-0.6-0.9-1.5-2.8-2.8l0.6-0.7l-1.1-0.2v-0.4c0.2,0,0.6,0,1.5-0.2l0.2-0.4v-0.2c0-0.4-0.2-0.6-0.7-0.7c0-0.2,0.2-0.4,0.4-0.4
		c0-0.4-0.2-0.9-0.2-1.5c0-0.6,0-1.3,0.2-2.2h0.2c0.2,0,0.4-0.4,0.7-1.1l-1.1-0.2l0.4-2.2c0-0.6-0.2-0.7-0.7-0.9
		c0.4-1.1,1.3-2,3-3.1h0.4l-0.2,0.7l0.4,0.2l0.2-2.2l-2.4,1.3l-0.7-1.3l0.7-0.4c0,0.2,0.2,0.4,0.4,0.4c0-0.4,0.4-0.9,0.9-1.5
		l-0.4-0.2l-0.9,0.4c-0.4-0.9-0.6-1.5-0.6-2l0.6-1.9h-0.4c0.7-2.2,1.3-3.3,1.5-3.3l-0.2-2.2c0.2-1.1,0.6-2.2,1.1-3.3
		c-0.2,0-0.4-0.2-0.4-0.4v-0.2h0.7c0.4,0.4,0.7,0.6,1.1,0.6l-0.4-0.9l0.9-0.4l-0.4-0.7l0.2-0.4l0.6-0.7l-0.7-0.6l-0.6,0.7l0.2,1.9
		l-1.5-0.2l0.2-0.4c0-0.7,0.4-1.7,1.1-3c-0.2,0-0.4-0.2-0.4-0.6l2-0.6v1.1c-0.7,0-1.1-0.4-1.1-1.1v-0.2c-1.5,0.2-2.2,0.4-2.4,0.9
		v0.4l0.4,0.7l-0.7,0.4h-0.4l0.2-1.1l-1.3,0.7c0.2,0.4,0.4,0.7,0.4,0.9v0.2l0.4,0.2l0.2-0.7c0.4,0.2,0.9,0.4,1.9,0.6v0.7h-0.4
		l-0.7-0.6l-0.2,1.1l0.7,0.2l-0.2,0.4c0,1.3-0.6,2-1.7,2v-0.2c0-0.2-0.2-0.4-0.4-0.4l0.4-0.7l0.2-1.1h-0.7l-0.2,1.5l-1.1-0.2
		c0-0.2,0.2-0.4,0.4-0.4h0.2l-0.4-0.9l0.2-1.5l0.9-1.1h-0.7l0.9-1.1l0.2-1.1l-0.4-0.7c-0.4,0.2-2,0.4-4.4,0.4l-0.4-0.7l-1.9,0.2
		l-0.7-0.2l-5-1.7c0,0.2-0.2,0.4-0.4,0.4h-0.2l0.2-0.4l0.9-1.1c-0.9,0-1.5-0.2-1.5-0.6l-0.7,0.4h-0.4c0.4-1.1,0.6-1.9,0.7-2.6
		l-1.3-2.4c0.4-0.2,0.7-0.4,0.9-0.4h0.2l-0.4-0.9c1.9-0.7,3.3-1.1,4.3-1.1h0.4v0.4l2.4-0.9c0.6,0,1.1,0.2,1.5,0.6
		c1.3-0.2,1.9-0.6,2-1.3l0.7,0.6l1.5,0.2c0.9-0.6,1.9-0.9,2.6-0.9h0.2c0.4,0.4,0.9,0.6,1.5,0.6c1.9-0.7,2.8-1.3,2.8-1.7
		c0-0.9,0.2-1.5,0.6-1.9c-0.2,0-0.4-0.2-0.4-0.4h0.2c0.4,0,0.6-0.2,0.7-0.7l-1.1-0.2c0.2-0.4,0.4-0.7,0.9-0.7l0.7,0.6l0.2-1.1
		l-0.9,0.4h-0.4l0.2-1.5h0.4c0.7,0,1.1-0.4,1.3-0.9c-0.2,0-0.4-0.2-0.4-0.6c0.6,0,2.2-4.3,5-12.8c0.6-0.9,0.9-1.5,1.3-1.5l0.4,0.2
		v0.7l0.4,0.2v-0.7c-0.2,0-0.4-0.2-0.4-0.4v-0.2h0.7l-0.4-0.7C1185.1,447.6,1185.8,447.1,1187.1,446.1z M1157.8,478.9v0.4l0.7,0.2
		v-0.4L1157.8,478.9z M1159.9,480.6c0,0.6,0.4,0.9,0.7,0.9l0.2-0.7L1159.9,480.6z M1167.1,472.6l-0.2,0.7h0.4l0.2-0.7H1167.1z
		 M1168,513.6h0.7l0.4,1.7l-0.9,0.4l-0.4-0.7L1168,513.6z M1169,508l1.5,1.7l-0.2,1.9l-1.1-0.2l0.6-1.9l-0.9,0.4l-0.6-1.3
		C1168.2,508.2,1168.6,508,1169,508z M1168.4,517.3c0.6,0,1.1,1.3,1.3,3.5l-0.7-0.2C1168.4,518.9,1168.4,517.6,1168.4,517.3z
		 M1171.9,492.8v0.4c0,0.7,0.2,1.5,0.6,2l-1.3,0.7v0.2c0,0.6,0.4,0.9,1.1,1.1l-0.2,0.4l-0.7-0.2l-0.2,1.5c0,0.2,0.2,0.4,0.4,0.6
		c-0.9,3.3-1.5,5-2,5l-0.4-0.9c0.4-0.4,0.6-0.9,0.6-1.5l-0.9-0.2v-0.4l0.7,0.2l0.2-0.7l-1.1-0.2c1.7-0.9,2.4-1.9,2.4-2.4l-1.9-0.2
		c0-0.4,0.4-0.7,1.1-0.7h0.2l0.2-0.4c-0.7,0-1.1-0.4-1.1-1.1v-0.2c0.4-0.4,0.6-0.7,0.6-1.1h0.4l-0.2,1.9l0.7,0.2v-0.4l-0.4-1.9
		l0.9-0.4l-0.4-0.7C1171.2,493,1171.6,492.8,1171.9,492.8L1171.9,492.8z M1168.6,516.1l0.7,0.2l-0.2,0.7c-0.4,0-0.7-0.4-0.7-0.7
		v-0.2H1168.6z M1170.8,516.1l-0.2,0.7c-0.4,0.4-0.6,0.7-0.6,1.1c-0.4,0-0.7-0.4-0.7-0.7v-0.2l0.2-0.7h0.2
		C1170.1,516.3,1170.4,516.3,1170.8,516.1z M1170.1,500.8l-0.2,0.7h0.4l0.2-0.7H1170.1z M1170.1,493h0.7v0.4h-0.7V493z
		 M1170.1,506.9l0.7,0.2v0.4l-0.7-0.2V506.9z M1170.6,521.3l1.1,0.2c0.6,2.2,0.7,3.7,0.7,4.4v0.2l-0.2,0.7
		C1171.7,526.7,1171.2,525,1170.6,521.3z M1171.6,518.9v0.4h0.7v-0.4H1171.6z M1171.9,492.1h0.7c0,0.4,0.2,0.7,0.4,1.3l-0.4-0.2
		c-0.4,0-0.7-0.2-0.7-0.6V492.1z M1172.3,488.9l-0.2,1.1h0.4l0.2-1.1H1172.3z M1172.8,518.9l-0.2,1.1h0.4l0.2-1.1H1172.8z
		 M1172.8,523c0.4,0,1.1,1.7,2,5c-0.2,0-0.4,0.2-0.4,0.4c0.2,0,0.4,0.2,0.4,0.4h-0.7l0.2-1.1l-0.7-0.2l-0.2,0.7l-0.7-0.6
		c0.4-0.7,0.6-1.1,0.9-1.1C1173,524.9,1172.9,523.7,1172.8,523L1172.8,523L1172.8,523z M1173.4,508.4l-0.2,1.9h0.4l0.6-1.9H1173.4z
		 M1173.6,500c0,0.6,0.2,0.7,0.7,0.7l0.2-0.7H1173.6z M1173.8,497.8v0.4h0.7v-0.4H1173.8z M1174.1,493.4l0.7,1.3
		c-0.6,0-0.9,0.2-0.9,0.7l-0.2,0.4h0.6c0.4,0,0.7-0.4,0.7-1.1c-0.2-0.4-0.2-0.7-0.2-0.9v-0.2L1174.1,493.4z M1174.3,502.4
		c0,0.2-0.2,0.6-0.6,1.1v0.4l0.4,0.2c0-0.4,0.2-0.7,0.6-1.1v-0.4h-0.4V502.4z M1174,506.9l-0.2,0.7l0.4,0.2l0.2-0.7L1174,506.9z
		 M1174.3,483.2v0.7h0.4v-0.7H1174.3z M1174.5,508.9l-0.2,0.7h0.4l0.2-0.7H1174.5z M1175.1,498.7l-0.6,0.7l-0.2,1.1h0.4
		c0-0.7,0.4-1.1,1.1-1.1h0.2l0.2-0.4C1176,499.1,1175.6,498.9,1175.1,498.7z M1174.9,498v0.4l0.7,0.2v-0.4L1174.9,498z
		 M1174.9,516.1l-0.2,0.7h0.4l0.2-0.7H1174.9z M1174.9,517.6c0.2,0.6,0.6,2.4,0.9,5.7l0.7,0.2v-0.4c-0.6-0.7-0.7-1.7-0.7-3
		c0-0.6,0-1.1,0.2-1.7v-0.4c0-0.4,0.4-0.7,1.1-0.7h0.2l0.2-0.7c-0.9,0.6-1.7,0.9-2.2,0.9H1174.9z M1174.9,524.5v0.7l0.4,0.2v-0.7
		L1174.9,524.5z M1175.1,491.5l-0.2,1.1h0.4l0.2-1.1H1175.1z M1174.9,515.8l0.7,0.2c0.2-1.3,0.4-1.9,0.6-1.9l-0.4-0.7
		c0.4-0.4,0.6-0.7,0.6-1.1C1175.8,512.1,1175.4,513.4,1174.9,515.8z M1176,494.3l-0.7,2.6l-0.2,0.7l0.4,0.2c0-0.7,0.6-1.5,1.5-2.2
		c-0.4,0-0.7-0.4-0.7-1.1v-0.2L1176,494.3L1176,494.3z M1175.4,507.4l-0.2,1.5l1.1,0.2c-0.2-0.4-0.2-0.7-0.2-1.1v-0.4L1175.4,507.4z
		 M1175.6,506l-0.2,0.7l0.7,0.2l0.2-0.7L1175.6,506z M1175.6,509.7l-0.2,0.7l0.7,0.2v-0.2C1176.2,510,1176,509.9,1175.6,509.7z
		 M1176,486.3v0.4l0.7,0.2v-0.4L1176,486.3z M1176.2,491.3l-0.2,2.2h0.4c0-1.1,0.2-1.9,0.6-2.2H1176.2z M1176.2,504.1l-0.2,0.7
		l0.4,0.2l0.2-0.7h-0.4V504.1z M1176.2,503v0.7h0.4l0.2-0.7H1176.2z M1176.2,518.9v0.4l0.7,0.2v-0.4L1176.2,518.9z M1176.4,501.5
		l-0.2,1.1h0.4l0.2-1.1H1176.4z M1177.1,482.3l-0.6,1.5l0.7,0.2c0-0.6,0.2-1.1,0.6-1.5L1177.1,482.3z M1177.9,493.7l0.4,0.7
		c-0.6,0-0.7,0.4-0.9,0.7v0.4l0.7-0.4l0.7,0.2c0,0.4-0.6,0.7-1.3,1.1c0-0.2-0.2-0.4-0.4-0.6c-0.2,2-0.4,3-0.7,3
		c0.2,0.6,0.4,0.9,0.4,1.1l0.4,0.2c0-0.4,0.4-0.9,0.9-1.5l0.2-0.4l-0.4-0.7l0.7-0.4c0,0.2,0.2,0.4,0.4,0.4c0-0.2,0.2-0.4,0.4-0.4
		h0.2c0,0.2,0.2,0.4,0.4,0.4v-0.7l-1.5-0.6c0.6-0.6,0.9-1.1,0.9-1.5c-0.2-0.6-0.4-0.9-0.4-1.1L1177.9,493.7z M1176.9,523.4l-0.2,1.1
		l0.4,0.2l0.2-1.1L1176.9,523.4z M1176.9,488.4l-0.2,1.1l0.7,0.2c-0.2-0.6-0.4-0.9-0.4-1.1h-0.2V488.4z M1176.7,512.6v0.4
		c0,0.6,0.2,0.7,0.7,0.7v-0.6C1177.5,512.8,1177.3,512.6,1176.7,512.6z M1176.9,525.8h0.7l0.2-0.7
		C1177.3,525,1177.1,525.4,1176.9,525.8z M1177.1,486.5v0.4h0.7v-0.4H1177.1z M1177.3,492.4l-0.2,0.7h0.4l0.2-0.7H1177.3z
		 M1177.5,489.9v0.7l0.4,0.2V490L1177.5,489.9z M1177.7,527.3l-0.2,0.7l0.4,0.2l0.2-0.7L1177.7,527.3z M1179.3,466.9
		c0,0.7-0.4,1.1-1.1,1.1h-0.2v0.7l1.9,0.6v-0.4c-0.2-0.4-0.2-0.7-0.2-1.3v-0.7L1179.3,466.9L1179.3,466.9z M1178.2,528.9l-0.2,0.7
		c0,0.6,0.4,0.7,0.7,0.9h0.4l0.2-0.4C1179.3,529.9,1179,529.3,1178.2,528.9z M1178.4,470.6l-0.2,0.7l1.1,0.2v-0.4
		C1179.1,471.1,1178.8,471,1178.4,470.6z M1178.4,511.5l-0.2,0.7l0.4,0.2l0.2-0.7L1178.4,511.5z M1178.4,527.1l-0.2,0.4l0.7,0.2
		l0.2-0.4L1178.4,527.1z M1179,491.1c0,0.2-0.2,0.6-0.6,1.1c0.7,0,1.1,0.4,1.1,1.1v0.2l0.4,0.2c0-0.2,0.2-0.9,0.6-2.2
		c-0.2,0-0.4,0.2-0.4,0.4l-0.7-0.6h-0.4V491.1z M1178.6,498v0.4l0.7,0.2v-0.4L1178.6,498z M1179,533.6l0.7,0.2
		c0.4,0.2,0.7,0.4,1.1,0.6l-0.2,1.1c-0.7-0.7-1.3-1.3-1.9-1.3v-0.6H1179z M1179.3,502.6v0.7h0.4l0.6-1.9h-0.2
		C1179.7,501.5,1179.3,501.9,1179.3,502.6z M1179.3,486.3v0.4l0.7-0.4c0,0.2,0.2,0.4,0.4,0.4l0.2-1.1h-0.4
		C1179.7,485.6,1179.3,485.8,1179.3,486.3z M1179.5,488.6l-0.2,1.5l0.4,0.2l0.2-1.5L1179.5,488.6z M1181.9,457.1l0.4,0.7
		c-0.2,1.9-0.7,2.8-1.5,3l0.4,0.9v0.4l-1.1-0.2v0.2c0,0.4,0.4,0.9,1.3,1.7c0.4-2.6,0.9-3.9,1.9-3.9h0.2l0.2-0.4
		c-0.6,0-0.7-0.2-0.7-0.6c0.4-0.4,0.6-0.7,0.6-1.1l-0.7-0.4L1181.9,457.1z M1180.1,464.1l-0.2,0.4c0,0.6,0.4,0.7,0.7,0.7l0.4,0.2
		l0.2-0.4c0-0.6-0.2-0.7-0.7-0.9H1180.1z M1180.1,498.7v0.4l0.7,0.2v-0.4L1180.1,498.7z M1180.1,497.6v0.7l0.4,0.2v-0.7
		L1180.1,497.6z M1180.6,512.1l-0.2,0.7c0.6,0,0.7-0.2,0.7-0.7H1180.6z M1180.8,514.9l-0.2,0.4l0.7,0.2l0.2-0.4L1180.8,514.9z
		 M1181,509.1l-0.2,0.7h0.4l0.2-0.7H1181z M1181,492.4l-0.2,1.1c0.6-0.2,0.9-0.4,1.1-0.4l0.2-0.4
		C1181.9,493,1181.6,492.8,1181,492.4z M1181,497.1v0.4l0.7,0.2v-0.4L1181,497.1z M1181.2,468.4v0.4l0.7,0.2l0.2-1.1
		C1181.6,467.6,1181.2,467.8,1181.2,468.4z M1181.7,450.6h0.7l-0.2,1.1h-0.7L1181.7,450.6z M1181.7,505.4l-0.2,0.7l0.4,0.2l0.2-0.7
		L1181.7,505.4z M1181.7,481.1l-0.2,0.7l0.4,0.2l0.2-0.7L1181.7,481.1z M1182.1,489.1l0.7,0.2l0.2-0.7
		C1182.5,488.6,1182.1,488.7,1182.1,489.1z M1182.1,519.5l-0.2,0.7h0.4l0.2-0.7H1182.1z M1183.4,448.4l-0.2,0.4
		c-0.2,0.6-0.4,0.9-0.6,1.1l-0.7-0.2l0.2-0.4C1182.3,449.1,1182.7,448.7,1183.4,448.4z M1182.7,479.9l-0.2,0.7h0.4l0.2-0.7H1182.7z
		 M1182.9,485.2c0,0.6,0.2,0.7,0.7,0.7l0.2-0.7H1182.9z M1183.2,507.4v0.7l0.4,0.2v-0.7L1183.2,507.4z M1183.6,462.4v0.4l0.7,0.2
		v-0.4L1183.6,462.4z M1183.6,531.7v0.7h0.4l0.2-0.7H1183.6z M1184,483.4l-0.2,0.7l0.4,0.2l0.2-0.7h-0.4V483.4z M1184.5,495.4h0.6
		c0.4,0,0.6-0.2,0.7-0.7h-0.4C1184.9,494.9,1184.5,495,1184.5,495.4z M1185.3,492.8l0.7,0.2v-0.7
		C1185.4,492.3,1185.3,492.4,1185.3,492.8z M1186.4,488.7l-0.2,0.7l0.4,0.2l0.2-0.7L1186.4,488.7z M1186.6,497.3l0.7,0.2v0.4
		c-0.4,0.4-0.6,0.7-0.6,1.1h-0.4L1186.6,497.3z M1186.7,465.8l-0.2,0.7h0.4l0.2-0.7H1186.7z M1187.9,484.5l0.7,0.2l-0.7,3.7
		l-0.7-0.2l0.2-1.9L1187.9,484.5z M1187.5,492.8c0.4,0.2,0.7,0.4,0.7,0.7v0.2h-0.9L1187.5,492.8z M1187.7,462.6l-0.2,1.5l0.4,0.2
		c0-0.4,0.4-1.1,0.9-2.2l-0.4-0.2C1188,461.9,1187.9,462.1,1187.7,462.6z M1187.9,492.1l0.4,0.2l-0.2,0.7l-0.4-0.2L1187.9,492.1z
		 M1189,464.8c-0.6,1.5-0.9,2.4-1.1,2.6v0.7h0.4c0-1.1,0.4-2,1.1-3v-0.4H1189z M1188.2,461.3l0.7,0.2l0.2-1.1l0.6-1.9h-0.2
		C1189,458.6,1188.6,459.5,1188.2,461.3z M1188.8,478.9l-0.2,0.7l0.4,0.2v-0.7L1188.8,478.9z M1189.7,463.4l-0.2,0.4l0.4,0.2
		l0.6-1.5C1189.9,462.4,1189.7,462.6,1189.7,463.4z M1190.4,477.8l1.9,0.6l0.6-0.7l-0.7-0.4c0,0.4-0.2,0.7-0.6,0.7h-0.2v-0.7
		C1190.6,477.3,1190.4,477.4,1190.4,477.8z M1191.9,454.5c-0.6,1.1-0.9,1.7-0.9,1.9v0.4h0.4c0-0.4,0.4-1.1,0.9-1.9v-0.4H1191.9z
		 M1191.7,449.3v0.7h0.4v-0.7H1191.7z M1192.9,452.4c0,0.4-0.4,1.1-0.9,1.9h0.7l0.6-1.5v-0.4H1192.9z M1192.1,456.9l0.7,0.2v-0.7
		C1192.5,456.3,1192.1,456.5,1192.1,456.9z M1193.4,467.3l-0.2,0.4h0.7l0.2-0.4H1193.4z M1193.4,469.5h0.4c2.4-0.2,3.5-0.4,3.9-0.4
		v-0.4c-1.1-0.2-1.9-0.4-1.9-0.6C1194.3,468.6,1193.6,468.9,1193.4,469.5z M1194,453c0,0.2-0.2,0.6-0.6,1.1l0.7,0.2l0.2-1.1h-0.4
		V453z M1194.1,474.1l-0.2,0.7h0.4l0.2-0.7H1194.1z M1194.9,451.5v0.7l0.4,0.2v-0.7L1194.9,451.5z M1194.9,470.8v0.4l0.7,0.2V471
		L1194.9,470.8z M1198.2,468.6l-0.2,0.4h0.7l0.2-0.4H1198.2z M1198.2,475.2l-0.2,0.4l0.7,0.2l0.2-0.4L1198.2,475.2z M1199.1,470.4
		l-0.2,0.4h0.7l0.2-0.4H1199.1z M1200.4,468l-0.2,0.7h0.4V468H1200.4z M1201.2,469.5v0.4h0.4c0.6-0.2,0.9-0.4,1.3-0.4v-0.4h-0.4
		C1201.7,469.5,1201.4,469.5,1201.2,469.5z M1202.3,468.2c0,0.6,0.4,0.7,0.7,0.9h0.4c0-0.6-0.2-0.7-0.7-0.9H1202.3z M1202.3,472.3
		v0.4l0.7,0.2v-0.6H1202.3z M1202.5,474.1v0.4l0.7,0.2v-0.4L1202.5,474.1z M1203.8,469.7l-0.2,0.4c0.6,0,1.3,0.4,1.9,0.9l0.2-0.4
		c-0.2-0.4-0.4-0.9-0.4-1.5c-0.6,0.4-0.9,0.6-1.3,0.6H1203.8z M1204.3,468l-0.2,0.7h0.4l0.2-0.7H1204.3z M1206.9,465l0.4,0.2
		l-0.2,1.1l-0.4-0.2L1206.9,465z"/>
	<path fill="#FFFFFF" d="M1232.7,478.4c-0.6,0.9-1.1,1.5-1.9,1.5l-0.2,0.7c1.3-0.9,2.4-1.5,3-1.5h0.2c0,0.7-0.4,1.1-1.1,1.1h-0.2
		v0.4l1.5,0.2c0-0.7,0.7-1.3,2-1.5l1.9,0.4l1.5,0.2l-0.2,0.7l-0.4,0.7c0.2,0,0.4,0.2,0.4,0.4l0.7-0.4h0.4c0.6,0.2,0.7,0.4,0.7,0.9
		h-0.2c-0.2,0-0.4,0.2-0.4,0.4c1.1,0,1.9,0.7,1.9,1.9v0.2l0.7-0.4v0.7h-0.7l-0.2,0.7l1.1,0.2v0.7l-0.7-0.2v0.7l0.7,0.2v0.4
		c-5,4.6-8.5,8-10.2,10.2s-3,3.1-3.7,3.1h-0.2v-0.7c0.9-0.4,2.4-2.2,4.3-5V495h0.2c-1.9,2.6-2.8,3.9-2.8,4.1h-0.7l2-3
		c-0.4,0-1.1,0.9-2.4,2.6c-1.5,1.7-2.4,3-2.4,3.7l-0.4-0.2l-1.5-1.1l-1.3,2.2v0.4l0.4,0.2c0-0.7,0.2-1.1,0.7-1.1l0.7,0.4l-0.9,1.5
		c0.2,0.6,0.4,0.9,0.4,1.1h-0.4l-0.7-0.6c0,0.6-0.2,0.7-0.4,0.7l0.4,0.7l-0.2,0.4c-2.6,0.9-3.9,3.3-3.9,7.4
		c-1.1,5.9-1.7,8.9-1.9,8.9l0.4,0.9c0,1.3-0.7,4.1-2.2,8.1h-0.4l-0.7-0.6c0,1.3-0.6,1.9-1.7,1.9v-0.4c-1.1-0.9-1.7-2-1.7-3v-0.2
		h-0.4l-0.2,0.4c0.2,0.6,0.4,0.9,0.4,1.1h-1.1c-0.4,0-0.7-1.1-1.5-3.1l0.4-0.7l0.2-0.4c-0.7,0-1.1-0.2-1.1-0.7h0.4l0.7,0.4V526
		c-1.1,0-1.7,1.3-2,4.1l-0.7-0.2c0-0.4-0.2-1.7-0.7-4.1h-0.4v0.7h-0.4c-1.3,0-2.2-5.2-2.4-15.2c0.2-0.6,0.4-0.9,0.4-1.1
		c-0.6,0-0.7-0.2-0.7-0.7c0.6,0,0.7-0.2,0.9-0.7v-0.4c0-0.2-0.2-0.4-0.4-0.4l0.4-0.7v-0.9c0-0.2-0.2-0.4-0.4-0.4
		c0.6-1.3,0.7-2.2,0.9-3h-0.4c0.6-1.1,0.7-2.2,0.9-3.3l-0.4-0.7c0.7-1.7,2-4.8,3.3-9.3c1.1-2,2-3.1,2.8-3.7c0.6,0.6,0.7,1.1,0.7,1.7
		h0.4c0.2-0.9,0.6-1.5,1.1-1.5l1.1,0.2l-0.2,2.6h0.4c0.2-1.3,0.6-1.9,1.3-1.9c0,0.2,0.6,0.9,1.9,2c0.6-0.2,0.9-0.4,1.1-0.4
		c0,0.6,0.4,0.7,0.7,0.7l1.9-0.4v0.7c0,0.2-0.2,0.4-0.4,0.4c0.2,0.4,0.4,0.9,0.4,1.5h0.4c0-0.7,0.4-1.1,0.7-1.1h0.4v0.4
		c-0.2,0.4-0.4,0.7-0.4,1.1c0.6,0.2,0.9,0.4,1.1,0.4l-0.2,1.1l-0.4,0.7h0.4c0.6,0,0.7-0.6,0.9-1.9c0.2,0,0.4,0.2,0.4,0.4
		c0.6-0.2,0.9-0.4,1.1-0.4v-0.4h-0.7c0,0.2-0.2,0.4-0.4,0.4h-0.2c0-0.2-0.2-0.4-0.4-0.4c0,0.2-0.2,0.4-0.4,0.4v-0.4
		c0.2-1.1,2.4-4.1,6.7-8.3v-0.4h-0.2c-1.1,0-2.2,1.1-3.3,3.1l-2,1.5l-0.4-0.2l0.2-0.4c2.4-2.4,3.5-3.7,3.5-3.9h0.2
		c-0.6,0-0.7,0.4-0.7,0.7c-0.6-0.2-0.9-0.4-1.1-0.4v-0.4c0.2-0.6,0.4-0.7,0.7-0.7l-0.4-0.7v-0.4h0.4l0.7,0.4
		c0.7-1.1,1.1-1.9,1.5-1.9c0.6,0,0.7,0.4,0.7,1.1h0.4v-0.7c-0.4,0-0.7-0.2-0.7-0.6v-0.2C1230.8,478.9,1231.7,478.4,1232.7,478.4z
		 M1205.8,523.2v0.7h0.4v-0.7H1205.8z M1210.6,487.1l-0.2,0.7h0.4l0.2-0.7H1210.6z M1210.8,522.8v0.7l0.4,0.2V523L1210.8,522.8z
		 M1210.8,524.9c0.2,0.6,0.4,0.9,0.4,1.3h0.4l0.6-1.9C1211.2,524.3,1210.8,524.5,1210.8,524.9z M1211,526.7v0.7
		c0.6,0,0.7-0.2,0.7-0.7H1211z M1212.1,529.3v0.4h1.1v-0.4H1212.1z M1222.7,486.5h1.1c-0.7,1.5-1.3,2.4-2,2.6h-0.4v-0.4
		C1222.3,487.8,1222.7,487.1,1222.7,486.5z M1221.9,507.1v0.4l0.4,0.2l0.6-1.5C1222.3,506,1221.9,506.3,1221.9,507.1z M1225.8,484.7
		l-0.2,0.7c-0.4,0-0.9,0.4-1.9,1.1v-0.4C1224,485.6,1224.5,485,1225.8,484.7z M1224.2,488.4h0.7v0.4c0,0.6-0.2,0.7-0.7,0.7V488.4z
		 M1224.9,506.9h0.7c0,1.3-0.4,2-1.1,2.2h-0.4v-0.4C1224.7,508,1224.9,507.3,1224.9,506.9z M1224.5,496.3v0.7l0.4,0.2v-0.9H1224.5z
		 M1226.9,493.4c-0.4,0.9-0.7,1.5-1.1,1.5l-0.7-0.4v0.7h0.7c0.9-0.9,1.5-1.5,1.9-1.5h0.2v-0.4L1226.9,493.4z M1225.1,491.5h1.5
		c0-0.7,0.6-1.7,1.7-2.6v-0.4C1226.2,490,1225.1,491.1,1225.1,491.5z M1225.4,482.8h0.7v0.4h-0.7V482.8z M1228.8,503.2
		c-1.1,2-2,3-2.8,3.3h-0.4v-0.7c0.4,0,1.1-0.9,2.4-2.6H1228.8z M1226,500v0.4h0.7V500H1226z M1227.5,498.4v0.4
		c0.4,0,0.7-0.2,0.7-0.7v-0.4C1227.9,497.6,1227.5,497.8,1227.5,498.4z M1228.8,481.7h0.7V481
		C1229.2,481.1,1228.8,481.3,1228.8,481.7z M1228.8,501.7h0.7v0.7h-0.7V501.7z M1229,499.9h0.7v0.4h-0.7V499.9z M1229.5,495.2
		l-0.2,0.7h0.4l0.2-0.7H1229.5z M1230.8,482.6h0.4c0.4-0.2,0.9-0.4,1.5-0.4l-0.4-0.7C1231.2,481.9,1230.8,482.3,1230.8,482.6z
		 M1232.5,477.3l1.5,0.2l-0.2,0.4c0,0.4-0.2,0.7-0.6,0.7h-0.2c-0.6,0-0.7-0.2-0.7-0.7L1232.5,477.3z M1234.3,494.3v0.4
		c0.6,0,0.7-0.2,0.7-0.7v-0.4C1234.7,493.7,1234.3,493.9,1234.3,494.3z M1236.2,478.2h1.9v0.7h-1.9V478.2z M1236.7,491.5
		c0,0.2-0.2,0.6-0.4,1.1h0.4l0.4-0.7v-0.4H1236.7z M1241.2,487.4v0.4h1.1l0.4-0.7h-0.4C1241.7,487.4,1241.4,487.4,1241.2,487.4z
		 M1241.9,486v0.7h0.4V486H1241.9z"/>
	<path fill="#FFFFFF" d="M1247.9,482.3h0.6c0.4,0,0.7,0.6,0.9,1.9l0.7-0.6c0.6,0,0.7,0.6,0.9,1.5l0.4-0.2c0-0.2-0.2-0.6-0.2-0.7
		c0-0.4,0.2-0.7,0.4-1.1h-0.2c-0.4,0-0.6-0.2-0.7-0.7v-0.4l1.9-0.2c0.6,0.7,1.3,1.3,2,1.3h0.4c0.4,0,1.7,0.7,3.5,2h0.4
		c0.7,0,1.1,0.4,1.3,0.9l0.7-0.4c0.6,0,0.7,0.2,0.9,0.7c-0.2,0-0.4,0.2-0.4,0.4c1.3,0.4,2,0.9,2,1.7c0.4,3.5,0.9,7,1.9,10.7l0.7-0.2
		c3.9-8.9,6.5-13.5,7.8-13.5c1.1-1.7,1.7-2.8,1.7-3.1l0.7-0.2l0.2,0.7l2.4-2.2h0.4l0.2,0.7l-0.7,1.3l0.7-0.2v-0.2
		c0-0.9,0.7-1.5,2.4-1.7c0.2,1.1,1.1,1.7,3.1,1.7c0.4,0,0.7,0,1.3-0.2c0.7,0.4,1.1,1.1,1.3,2.2l0.7-0.6c1.9,0.4,3.1,1.1,3.9,2.2
		l0.2,0.4l-0.4,0.9l0.7-0.2l0.2,0.4l-0.4,0.7l1.1-0.2v0.2c0,1.3-1.7,4.1-5.2,8.3c-0.4,0-0.6,0.6-0.7,1.5l-1.5-0.6v0.4
		c0,0.7-0.2,1.3-0.7,1.3l-0.2-0.7l0.4-0.9l-0.4,0.2c-0.7,0.7-1.3,1.7-1.7,3.1l-0.4,0.2l0.2,1.1l0.7-0.2l1.5-1.3l0.4-0.2l0.2,1.1
		c-0.7,0-1.1,0.2-1.1,0.6c0.4,0.6,0.6,0.9,0.6,1.1c-0.7,0-1.3,0.6-1.3,1.7v0.7l-0.7,0.2l-0.2-0.4l0.4-0.7l-1.1,0.2v0.2
		c0,0.6-0.4,1.1-1.3,1.9c0.4,0,0.7,0.4,1.3,1.1c0,0.6-0.2,0.7-0.7,0.9l-0.7-0.4v0.4l0.6,0.7h-0.4l0.6,0.7v0.4
		c-0.4,1.5-0.7,2.4-0.9,2.4l0.4,0.7l0.2,0.7c-1.5,0.2-2.6,1.9-3.3,5.2c-2,5-3.3,7.6-3.7,7.6l-0.4,0.2l0.6,0.7v0.6
		c0,0.4-0.2,0.6-0.7,0.7l-0.2-1.1h-0.4l0.2,1.1c0.2,0,0.4,0.2,0.4,0.4c-0.7,0-1.5,0.9-2,2.4v0.7l0.6,0.7c-0.6,0-1.1,0.9-1.7,2.8h0.2
		c0.2,0,0.4,0.2,0.4,0.4c-0.4,0.2-0.7,0.4-0.7,0.7v0.2l0.2,0.7l0.7-0.6h0.4v0.2c0,0.4-0.4,0.9-1.3,1.5c0-0.2-0.2-0.4-0.4-0.4h-0.2
		c0,0.2-0.2,0.6-0.4,1.1l0.7-0.2v0.4c-0.9,0.9-1.7,2.4-2.2,4.4l0.2,0.4l0.4-0.2c0.4-0.9,0.6-1.9,0.6-2.4v-0.4l0.7-0.2v1.1
		c0,1.5-0.7,2.4-2,2.6l0.2,0.7l0.7-0.2v0.2c0,0.7-0.6,1.1-1.5,1.3l0.2,0.4l0.6,1.9c-0.7,0-1.1,1.3-1.3,3.5c0.4,0.6,0.6,0.9,0.6,1.1
		l-0.7,0.2l0.2,0.7l0.7-0.2l0.2,1.1l-0.7,0.2l-0.2-0.7h-0.4v0.9c0,2.2-0.2,3.5-0.7,4.1l0.4,3.7l-0.7,0.2l-0.2-1.9l-1.5,0.9
		c0,0.7,0.4,1.1,1.1,1.1h0.2v0.4c0,0.7-0.4,1.5-0.9,2.4l0.2,1.9l-0.7,0.2l-0.6-5.6h-0.4l0.4,2.6l-0.4,0.2c-0.4-0.2-0.7-0.4-0.9-0.4
		h-0.2v0.7c0,0.2,0.2,0.4,0.4,0.4h0.2l-0.4,0.9l0.4,3.3h0.7l-0.2,1.9l0.2,1.9h-1.5c-0.4,0-1.1-0.9-2.2-2.8l-0.7,0.6l0.6,0.7l0.2,0.7
		h-0.7l-0.2-1.9c-0.6,0.6-1.1,0.9-1.5,0.9l0.6,2.6l-0.7,0.2l-0.7-3.7h-0.4v0.7h-0.6c-0.4,0-0.6-0.2-0.6-0.7l-0.2-1.1
		c0.4,0,0.6-0.2,0.6-0.7v-0.4l0.7-0.2c0.2,0.9,0.7,1.3,1.7,1.3h0.4l-0.6-0.7v-0.6c0-0.2,0.2-0.4,0.4-0.4l-0.4-0.7l-0.4-3.3l0.7-1.3
		l-0.2-1.1l-0.9-1.1l0.2-1.7c-0.4-0.4-0.6-0.7-0.6-1.1l0.7-0.6c0-0.2-0.2-0.4-0.6-0.4c0-1.9,0.4-3.1,0.7-3.7l-1.1-0.7l-1.1,1.7
		l0.2,1.5l0.6,0.7c-0.6,0.2-0.7,0.4-0.7,0.9l0.2,0.7l0.7,2.6c-0.4,0-0.7,0.4-0.7,1.1v0.2c0,0.2,0.2,0.6,0.6,1.1
		c0,0.7-0.2,1.3-0.2,1.9v0.9c0.2,0.4,0.4,0.7,0.6,1.1l-0.7,0.4l-0.7-0.4l0.2,0.7h-0.4l-0.7-3.7l-0.2-2.2l1.1-0.2l-0.2-1.1l-0.7,0.6
		h-0.4l-0.2-1.5l-0.7,0.2l-0.2,2.2l-0.4,0.2l-0.2-1.1h-0.4c-0.4,0-0.7,0.4-0.7,1.1v0.2h-0.4l-0.2-1.5c1.1-0.2,1.9-0.7,1.9-1.7v-0.2
		l0.7,0.4l0.4-0.2v-0.9c0-0.9,0.2-1.5,0.6-1.5l0.2,1.1l-0.2,1.9c0.4,0,0.7-1.5,1.1-4.3c0.2,0,0.4-0.2,0.4-0.4l-0.4-3l-0.4,0.2
		c0,2.2-0.4,3.3-0.9,3.5h-0.4l-0.2-1.1h-0.4l-0.2,2.4h-0.7c0.4-5.7,0.9-9.6,1.5-11.9h0.4l0.2,0.7c-0.4,2.6-0.7,4.3-0.7,5v0.4
		c0.6,0,0.9-1.9,1.1-5.4l0.4-0.2c0,0.2,0.2,0.6,0.6,1.1c-0.2,0.4-0.4,0.7-0.4,1.1v0.4l0.2,0.4h0.4c0.2-2.6,0.6-3.9,1.1-3.9
		c0.2,0,0.4,0.2,0.4,0.4l0.7-0.6c0.6,0.2,0.9,0.4,1.1,0.4v0.4l-1.5,0.6c0.4,1.3,0.7,2,1.3,2h0.6c0.2-2.4,0.4-3.9,0.4-4.3l-0.2-0.4
		l-0.4,0.2l0.2,0.7h-0.7v-0.4c0-0.7,0.2-1.7,0.6-3.1l-0.2-0.4h-0.4v0.2c0,0.6-0.2,1.9-0.7,3.7h-0.2c-0.7,0-1.1-0.6-1.3-1.9l-0.4,0.2
		v0.4c0,0.6-0.2,0.7-0.6,0.9h-0.4l0.2-1.9h-0.7l-0.2,2.4h-0.4v-0.4c0-0.9,0.2-1.7,0.2-2.2v-0.7l0.7-0.2v0.7h0.4l1.1-0.9l0.4-0.2
		l0.2,0.4c-0.2,0.6-0.4,0.9-0.4,1.1c1.1-0.9,1.7-1.5,1.7-1.7c-0.4-1.1-0.9-1.9-1.5-1.9h0.2v-0.7c0-0.7,0.2-1.5,0.4-2.2v-0.4h-0.4
		c-0.7,2.6-1.1,4.1-1.1,4.8v0.2l-0.7-0.2v-0.4c0.2-1.5,0.7-3.5,1.7-6.3c0-1.5,0.9-3.7,2.4-6.7l0.7,0.4l0.4-0.2l-0.2-1.1l-0.7,0.2
		l-0.2-0.7c0.4-0.6,0.7-1.1,0.7-1.7h0.4c0.2,0,0.4,0.2,0.4,0.4c0.9-0.6,1.7-0.9,2.2-1.1l0.2,1.1l-0.7-0.4l-0.4,0.7v0.4l0.7-0.4
		l0.4-0.2l-1.3,3.1v0.4l0.4-0.2c0.6-2.4,1.1-3.5,1.7-3.5l0.7,0.4l-0.2-1.1l-0.7,0.2l0.9-2.8v-0.4h-0.2c0,1.3-0.4,1.9-0.9,2h-0.4
		l0.4-0.7h-0.4v0.2c0,0.2-0.2,0.4-0.4,0.4l-0.2-0.6c0.7-1.9,1.3-2.8,1.7-2.8c0,0.2,0.2,0.4,0.4,0.4l-0.2-1.1
		c-1.5,0.4-2.2,0.7-2.2,0.9c0.4,0.4,0.6,0.7,0.6,1.1l-0.7-0.4v0.2c0,0.6-0.4,1.5-0.9,3l-0.7,0.2v-0.4l2.6-8.9
		c-1.3,2.2-2.6,5.2-3.7,8.7c-0.2,0-0.6,0.4-0.9,1.3l0.4,0.7l0.2,0.4l-0.9-0.4l-0.4,0.7l1.1-0.2c-1.3,3.9-2.2,5.9-2.4,5.9
		c-0.4-0.4-0.6-0.9-0.6-1.5h-0.4c-0.2,1.5-0.4,2.6-0.4,3v0.2l-0.7,0.2V535c0-0.6,0.2-1.3,0.6-2.4l-0.6-0.7l1.7-2.8v-0.7l-0.7,0.2
		l-0.2-0.4c0-0.6,0.4-0.7,0.7-0.9l0.9,0.4c0-0.9,0.2-1.5,0.6-1.7l-0.6-1.9v-0.7c2.2-5,3.1-8,3.1-9.3v-0.2
		c-5.6-5.4-8.7-11.7-9.3-18.7l0.4-0.2c-0.6-1.1-1.1-3.3-1.9-6.7c0.2-1.5,0.6-2.4,0.9-2.4l-0.6-0.7L1247.9,482.3z M1248,555.6
		l0.7-0.2l0.2,0.7l-0.7,0.2L1248,555.6z M1250.6,538.7h0.7c-0.4,1.7-0.6,2.6-0.6,2.6v0.4h0.4l-0.2-1.1l0.7-0.2l0.2,0.7
		c-1.3,0.9-1.9,2.2-1.9,3.9v0.7c-0.4,0-0.6,1.1-0.6,3.1h-0.7v-0.4C1249,547.6,1249.5,544.3,1250.6,538.7z M1249.7,560.8h0.7l0.2,1.1
		l-0.7,0.2L1249.7,560.8z M1250.4,557.3l0.2,0.7l-0.7,0.2C1249.9,557.6,1250.1,557.3,1250.4,557.3z M1250.3,550h0.7
		c0,0.4,0.2,0.7,0.7,0.7l0.2,0.4c0,0.6-0.2,0.7-0.7,0.7c0-0.2-0.2-0.4-0.4-0.4h-0.2l0.2,0.7l0.6,0.7l-1.1,0.2l-0.2-0.4L1250.3,550z
		 M1250.1,485.8v0.4h0.7v-0.4H1250.1z M1250.1,564.9l0.7-0.2l0.2,0.4l-0.7,0.2v-0.4H1250.1z M1250.3,554.3h0.7l0.2,0.7h-0.9V554.3z
		 M1252.3,535.2c0,0.4,0.2,0.6,0.7,0.6h0.4c-0.2,1.3-0.6,2-0.9,2l-0.4,0.2l-0.2-1.5h-0.4l-0.2-0.4
		C1251.6,535.4,1251.7,535.2,1252.3,535.2z M1252.1,538.6l0.4-0.2l0.2,0.7l-0.4,0.2L1252.1,538.6z M1252.5,553.7l0.2,0.7l0.7-0.2
		l-0.2-0.7L1252.5,553.7z M1252.5,554.9l0.2,1.5h0.4l-0.2-1.5H1252.5z M1252.7,532.1h0.4l0.2,0.7h-0.4v-0.7H1252.7z M1253.4,564.3
		c0.2,0.4,0.4,0.7,0.7,0.7h0.2l-0.2-0.7H1253.4z M1253.8,566.9c0.2,0.4,0.4,0.9,0.6,1.9h0.4l-0.4-2.2L1253.8,566.9z M1254.9,552.4
		l-0.2-0.7h-0.7v0.4c0,0.4,0,0.9-0.2,1.3h0.2c0.6,0,0.9,0.2,1.1,0.7c-0.2,0-0.4,0.2-0.4,0.4c0.2,0,0.4,0.2,0.4,0.4l0.7-0.4l1.3,0.7
		v-0.4c0-0.7,0.4-1.1,0.9-1.3c-0.2-0.2-0.6-1.3-0.7-3L1254.9,552.4z M1254.3,534.1h0.4v0.7h-0.4V534.1z M1254.5,572.1v0.4l0.7-0.2
		v-0.4L1254.5,572.1z M1255.6,528.7l0.2,1.1l0.4-0.2l-0.2-1.1L1255.6,528.7z M1255.8,549.7l0.2,0.7c0.4-0.4,0.7-0.6,1.1-0.6
		l-0.2-0.4L1255.8,549.7z M1256.4,535v0.4c0,0.4-0.2,0.9-0.4,1.3h0.4c0.6,0,1.1,0.2,1.7,0.6l-0.2-1.1l0.7-0.2l0.2,1.1
		c0.4,0,0.7-0.4,0.7-0.7v-0.2l-0.2-0.7h-0.4c-0.4,0-0.7,0-1.1-0.2l-1.1,0.2V535H1256.4z M1256.6,572.6v0.7h0.4v-0.7H1256.6z
		 M1256.6,538.6l0.2,0.7l0.7,0.4c-0.2-0.4-0.4-0.7-0.6-1.1H1256.6z M1256.7,540l0.2,1.1h0.4l-0.2-1.1H1256.7z M1258.2,530v0.6
		c0,0.9-0.2,1.7-0.6,2.2l0.2,0.4l0.7-0.6h0.4c-0.2,0.7-0.4,1.1-0.6,1.3c-0.4-0.2-0.7-0.4-1.1-0.4h-0.2l0.2,1.5
		c0.2,0,0.4-0.2,0.4-0.4v-0.2l0.9,0.4h0.4v-0.2c0-0.4,0.2-0.6,0.7-0.7l-0.6-0.7l1.5-1.7l0.2,1.1h0.4v-0.4c0-0.4,0-0.7,0.2-1.1v-0.4
		h-0.4l0.2,0.7h-0.4C1260.1,530.8,1259.3,530.2,1258.2,530z M1257.3,537.6l0.2,0.7h0.4l-0.2-0.7H1257.3z M1258.2,538
		c0.2,0.2,0.6,1.3,0.7,3.3l0.7-0.6v0.7l-0.6,1.7l0.2,0.7h0.4c0.7-2.6,1.1-4.1,1.1-4.6v-0.2l-0.2-0.7l-0.4,0.2l0.2,1.1h-0.9l-0.6-1.9
		L1258.2,538z M1258.2,571.3l0.2,0.4l0.7-0.2l-0.2-0.4L1258.2,571.3z M1258.4,564.9l0.2,1.9l0.4-0.2l-0.2-1.9L1258.4,564.9z
		 M1260.1,526.9v0.7h0.4v-0.7H1260.1z M1260.1,535.2l0.2,0.7l0.4-0.2l-0.2-0.7L1260.1,535.2z M1260.3,537.4l0.2,0.7h0.4l-0.2-0.7
		H1260.3z M1260.3,556.7l0.2,0.7h0.4l-0.2-0.7H1260.3z M1260.3,561.3l0.2,0.7l0.4-0.2l-0.2-0.7L1260.3,561.3z M1260.6,541.5l0.2,0.7
		h0.4l-0.2-0.7H1260.6z M1261,532.4l0.2,0.7h0.4l-0.2-0.7H1261z M1261.2,559.3v0.2c0,0.2,0,0.6-0.2,0.9v0.4l0.4-0.2
		c0-0.2,0.2-0.6,0.4-1.1l-0.2-0.4L1261.2,559.3z M1261.4,567.6h0.4l0.2,0.7l-0.4,0.2L1261.4,567.6z M1261.4,576.3l0.7-0.2
		c0,0.2,0.2,0.9,0.6,2.2l-0.7,0.2C1261.9,578.4,1261.7,577.6,1261.4,576.3z M1261.6,533.9l0.7-0.2l-0.2-0.7
		C1261.7,533.2,1261.6,533.4,1261.6,533.9L1261.6,533.9z M1261.6,561.9c0.4,0.4,0.6,0.9,0.6,1.5h0.4l-0.2-1.5H1261.6z M1261.7,560.4
		v0.4l1.1-0.2c0-0.6,0.2-0.7,0.7-0.9l0.7,0.4v-0.4c-0.4-0.4-0.6-0.7-0.6-1.1c0.2,0,0.4-0.2,0.4-0.4V558h-0.4l0.4-0.7l-0.2-0.4
		c-0.6,0-1.1,1.1-1.7,3.1L1261.7,560.4z M1261.9,553.9l0.2,0.7l0.4-0.2l-0.2-0.7L1261.9,553.9z M1261.9,557.8l0.2,0.7l0.4-0.2
		l-0.2-0.7L1261.9,557.8z M1261.9,558.9l0.2,0.7l0.4-0.2l-0.2-0.7L1261.9,558.9z M1263,566l0.2,0.7h0.4l-0.2-0.7H1263z
		 M1263.2,571.5h0.4c0,0.2,0.2,0.6,0.6,1.1l-0.7,0.2L1263.2,571.5z M1263.4,560.6l0.2,1.1h0.4l-0.2-1.1H1263.4z M1263.8,545.8
		l-0.4,0.9l1.1,0.7l0.4-0.9l-0.2-0.7l-0.7,0.6C1264.2,546,1264,545.8,1263.8,545.8z M1263.6,524.7l0.2,0.7l1.1-0.2l-0.2-0.7
		L1263.6,524.7z M1264.2,520.8c0,0.2-0.2,0.6-0.4,1.1v0.4h0.4c0-0.2,0.2-0.7,0.4-1.3v-0.4h-0.4V520.8z M1264,544.3l0.2,0.7
		c0.4,0,0.7-0.4,0.7-0.7v-0.2L1264,544.3z M1265.1,543.7l0.2,1.5l0.4-0.2l-0.2-1.5h-0.4V543.7z M1267.1,501.7v0.2
		c0,0.4-0.2,1.1-0.6,1.9l0.2,0.4l0.4-0.2v-0.2c0-0.4,0.2-1.1,0.6-1.9l-0.2-0.4L1267.1,501.7z M1267.1,533.4l0.2,0.7h0.4l-0.2-0.7
		H1267.1z M1268,499.7l0.2,1.1l0.4-0.2v-0.2c0-0.4,0.7-2.2,2-5.4C1270.4,495.2,1269.5,496.7,1268,499.7z M1268.2,506.3l0.2,0.7
		l0.4-0.2l-0.2-0.7L1268.2,506.3z M1269.5,503.2l0.2,0.7c0.4,0,0.7-0.2,0.7-0.6v-0.2H1269.5z M1269.7,532.8v0.4l0.7-0.2v-0.4
		L1269.7,532.8z M1269.9,506.1l0.2,0.7h0.4l-0.2-0.7H1269.9z M1270.1,531.5l0.2,0.7h0.4l-0.2-0.7H1270.1z M1270.1,524.9l0.2,0.7h0.4
		l-0.2-0.7H1270.1z M1271.4,499.3l-1.3,3.1l0.2,0.4l0.4-0.2v-0.2c0-0.4,0.4-1.3,1.3-3l-0.2-0.4h-0.4V499.3z M1270.3,530.8l0.7-0.2
		l-0.2-0.7C1270.4,530,1270.3,530.4,1270.3,530.8L1270.3,530.8z M1274,525.2c0,0.6-0.2,1.1-0.4,1.5h0.4l0.4-0.7l-0.2-0.7H1274z
		 M1274.5,523.6l0.2,0.7c0.4,0,0.7-0.2,0.7-0.6v-0.2H1274.5z M1276,519.7v0.2c0,0.4-0.2,0.7-0.6,1.3v0.4c0.6,0,0.9-0.6,0.9-1.3v-0.7
		L1276,519.7z M1277.1,507.1l0.2,0.4l0.7-0.2l-0.2-0.4L1277.1,507.1z M1278,508.9c0.4,0,0.7-0.4,0.7-0.7v-0.6
		c-0.4,0.2-0.7,0.4-0.7,0.7V508.9z M1282.5,503.2l-0.4,1.7l0.7-0.2c0-0.2,0.2-0.6,0.4-1.1L1282.5,503.2z M1285.6,496.5l0.2,0.7
		l1.1-0.2c0-0.4-0.4-0.7-0.7-0.7h-0.6V496.5z M1285.8,499.5l0.7-0.2l0.2,0.7l-0.7,0.2L1285.8,499.5z M1286.6,494.5l0.2,1.5
		c0.6,0.2,0.9,0.4,1.1,0.4l0.4-0.9h-0.2c-0.4,0-0.7-0.4-0.7-1.1L1286.6,494.5z"/>
</g>
</svg>
